<svg xmlns="http://www.w3.org/2000/svg" xmlns:xlink="http://www.w3.org/1999/xlink" fill="none" version="1.1" width="165.36197300602817" height="161.82184279397097" viewBox="0 0 165.36197300602817 161.82184279397097"><defs><clipPath id="master_svg0_167_264"><rect x="0" y="35.21892694944563" width="136.0754852294922" height="131.06898498535156" rx="0"/></clipPath></defs><g transform="matrix(0.9659258127212524,-0.258819043636322,0.258819043636322,0.9659258127212524,-9.115328990953007,1.2000563126319364)" clip-path="url(#master_svg0_167_264)"><g><path d="" fill-rule="evenodd" fill="#000000" fill-opacity="1"/></g><g><path d="" fill-rule="evenodd" fill="#000000" fill-opacity="1"/></g><g><g><path d="M97.25772584228515,123.3148420556468C96.07842584228516,122.89534205564681,94.24591584228516,122.2225420556468,92.11406584228516,120.8245420556468C87.79593584228516,117.9934420556468,85.99067584228516,115.17104205564681,84.94742584228516,113.1089420556468C86.20839584228516,112.2176420556468,87.54193584228516,110.20794205564681,88.78475584228515,108.5651420556468C92.21385584228516,104.0039920556468,93.20267584228516,99.2855020556468,92.97588584228515,96.69907805564681Q130.69602584228517,92.3039020556468,115.56442584228516,113.40604205564681C115.71862584228515,114.4021420556468,116.62582584228515,120.7982420556468,112.73402584228515,123.9264420556468C108.47942584228515,127.3342420556468,101.15852584228516,124.7041420556468,97.26682584228516,123.3148420556468L97.25772584228515,123.3148420556468Z" fill="#D0E2FF" fill-opacity="1"/><path d="M96.99602584228515,124.2799420556468Q96.95892584228515,124.2699420556468,96.92262584228516,124.2570420556468Q93.86808584228515,123.1706420556468,91.56567584228516,121.6607420556468Q86.45947584228516,118.3129420556468,84.05511584228516,113.5603420556468Q84.01483584228515,113.4807420556468,83.98928884228516,113.3952420556468Q83.96374284228516,113.30974205564681,83.95373484228516,113.2210420556468Q83.94372584228516,113.1324420556468,83.94957684228515,113.0433420556468Q83.95542484228515,112.9543420556468,83.97694484228515,112.8677420556468Q83.99846384228516,112.7811420556468,84.03497484228515,112.6997420556468Q84.07148484228516,112.6183420556468,84.12183384228516,112.5446420556468Q84.17218184228516,112.4709420556468,84.23477684228516,112.40744205564681Q84.29737184228516,112.3438420556468,84.37023584228515,112.2923420556468Q85.25566984228516,111.6664420556468,87.25118584228515,108.9534420556468Q87.74352584228515,108.28404205564681,87.98727584228516,107.9618420556468Q92.44025584228515,102.0387220556468,91.97970584228516,96.7864310556468Q91.97125584228516,96.6901090556468,91.98142584228516,96.5939540556468Q91.99158584228516,96.4977980556468,92.01998584228515,96.40537205564681Q92.04838584228516,96.31294505564681,92.09396584228516,96.2276720556468Q92.13954584228516,96.14239805564681,92.20062584228515,96.0674370556468Q92.26169584228515,95.99247645564681,92.33600584228516,95.9306055556468Q92.41030584228515,95.8687345556468,92.49508584228515,95.8222460556468Q92.57986584228516,95.7757570556468,92.67198584228515,95.7463730556468Q92.76410584228516,95.7169890556468,92.86014584228516,95.70579805564681Q112.11282584228516,93.4624620556468,118.07772584228516,97.8742320556468Q124.42292584228515,102.5672520556468,116.61202584228516,113.6581420556468Q117.66222584228515,121.24814205564681,113.36052584228516,124.7059420556468Q108.68832584228515,128.4481420556468,96.99602584228515,124.2799420556468ZM97.52842584228516,122.3496420556468Q97.56622584228515,122.3598420556468,97.60302584228515,122.3730420556468L97.64212584228515,122.3870420556468Q108.30412584228516,126.1934420556468,112.10752584228516,123.1470420556468Q115.62312584228516,120.3212420556468,114.57622584228515,113.5590420556468Q114.54612584228516,113.36494205564681,114.59172584228516,113.1739420556468Q114.63732584228515,112.9828420556468,114.75172584228515,112.8232420556468Q121.74332584228516,103.07299205564681,116.88842584228516,99.4822120556468Q111.69452584228516,95.6406840556468,94.02175584228516,97.58692205564681Q94.10243584228516,103.1560220556468,89.58223584228516,109.16854205564681Q89.34660584228516,109.4799420556468,88.86231584228516,110.1384420556468Q87.25441584228516,112.3244420556468,86.20698584228515,113.3429420556468Q88.38075584228515,117.1810420556468,92.66246584228516,119.98824205564681Q94.74033584228516,121.35094205564681,97.52842584228516,122.3496420556468Z" fill-rule="evenodd" fill="#000000" fill-opacity="1"/></g><g><path d="M86.16302081298828,111.4227160353343Q82.17152081298828,117.2596562353343,70.91352081298828,118.3169462353343L70.91352081298828,130.6898762353343Q73.30845081298828,154.6317762353343,89.13852081298828,139.4627762353343Q116.93422081298829,138.8685762353343,87.82322081298828,112.6897162353343C87.19722081298828,112.1304862353343,86.59852081298828,111.7285422353343,86.17212081298828,111.4139762353343" fill="#D0E2FF" fill-opacity="1"/><path d="M86.76672081298828,110.6099822353343Q86.85182081298828,110.67269223533431,87.04672081298828,110.8130172353343Q87.95582081298828,111.46723173533431,88.48942081298829,111.9439792353343Q103.35702081298828,125.3140762353343,103.70632081298828,132.4232762353343Q103.90242081298828,136.4130762353343,99.93772081298829,138.4555762353343Q96.43792081298828,140.25857623533432,89.54842081298828,140.45287623533432Q81.32752081298828,148.20717623533432,76.23352081298827,145.7550762353343Q71.17178581298828,143.3185762353343,69.91848781298827,130.78937623533432Q69.91352081298828,130.73977623533432,69.91352081298828,130.6898762353343L69.91352081298828,118.3169462353343Q69.91352081298828,118.2243562353343,69.93051881298828,118.1333462353343Q69.94751781298828,118.0423362353343,69.98093681298828,117.9559962353343Q70.01435581298828,117.8696462353343,70.06305881298829,117.7909062353343Q70.11176181298828,117.71216623533431,70.17409381298827,117.6437062353343Q70.23642581298829,117.5752462353343,70.31026781298829,117.5193962353343Q70.38410881298829,117.4635462353343,70.46694981298828,117.4221962353343Q70.54979081298828,117.3808462353343,70.63881381298827,117.3554162353343Q70.72783781298828,117.3299862353343,70.82001751298829,117.3213262353343Q81.60962081298828,116.3080262353343,85.33672081298828,110.8595132353343L85.33762081298828,110.8582382353343Q85.39742081298829,110.7708012353343,85.47422081298828,110.6978292353343Q85.61422081298828,110.56133123533431,85.79542081298828,110.4876532353343Q85.97652081298828,110.4139762353343,86.17212081298828,110.4139762353343Q86.33242081298829,110.4139762353343,86.48462081298828,110.4640562353343Q86.63682081298828,110.5141362353343,86.76582081298828,110.6092802353343L86.76672081298828,110.6099822353343ZM86.37902081298829,112.8050862353343Q82.12602081298829,118.05573623533431,71.91352081298828,119.2185062353343L71.91352081298828,130.6397762353343Q73.05896081298827,142.0072762353343,77.10098081298828,143.9529762353343Q81.03232081298827,145.8454762353343,88.44672081298827,138.7406762353343Q88.58232081298829,138.6107762353343,88.75582081298828,138.5388762353343Q88.92942081298828,138.4669762353343,89.11722081298828,138.4629762353343Q95.83502081298829,138.3193762353343,99.02172081298828,136.6776762353343Q101.84162081298828,135.2249762353343,101.70872081298828,132.52147623533432Q101.40032081298828,126.24417623533431,87.15692081298829,113.4354462353343Q86.85122081298829,113.1622862353343,86.37902081298829,112.8050862353343Z" fill-rule="evenodd" fill="#000000" fill-opacity="1"/></g><g><path d="M92.8307282446289,96.6729604150218Q110.6021382446289,95.1438604150218,115.60973824462891,93.8069604150218C117.38783824462891,93.3350604150218,120.18193824462891,92.7583604150218,121.41563824462891,90.56516041502181C122.2411382446289,89.07976041502181,122.0234382446289,87.53306041502181,121.8873382446289,86.6855604150218C120.98023824462891,81.0320604150218,114.45763824462891,77.5893604150218,113.14223824462891,76.9252604150218Q114.3760382446289,62.5688404150218,100.1697382446289,67.2611104150218C97.9018382446289,68.0912104150218,94.75392824462891,69.53297041502181,91.50625824462891,72.0232804150218C88.5398082446289,74.30388041502181,86.4986782446289,76.6805604150218,85.1651382446289,78.5068604150218Q95.31633824462891,86.28356041502181,92.83071824462891,96.6817604150218L92.8307282446289,96.6729604150218Z" fill="#D0E2FF" fill-opacity="1"/><path d="M94.07860824462891,95.5605604150218Q95.7122382446289,85.7849604150218,86.55249824462891,78.3281604150218Q88.9549382446289,75.2460904150218,92.1147582446289,72.8168304150218Q95.9573382446289,69.87032041502181,100.4985382446289,68.2056404150218Q107.09583824462891,66.03007071502181,109.9185382446289,68.1329404150218Q112.7151382446289,70.2162904150218,112.14593824462891,76.8396604150218Q112.13953824462891,76.9138604150218,112.14423824462891,76.98816041502181Q112.14893824462891,77.0624604150218,112.16453824462891,77.1351604150218Q112.1801382446289,77.2079604150218,112.20643824462891,77.2776604150218Q112.2326382446289,77.3473604150218,112.26893824462891,77.41236041502181Q112.3051382446289,77.4773604150218,112.35063824462891,77.5363604150218Q112.3961382446289,77.5952604150218,112.4498382446289,77.6467604150218Q112.5036382446289,77.6983604150218,112.56433824462891,77.7413604150218Q112.62513824462891,77.78436041502181,112.6915382446289,77.8179604150218Q120.0475382446289,81.5316604150218,120.90003824462892,86.8440604150218Q121.22263824462891,88.85376041502181,120.54403824462891,90.0748604150218Q119.6086382446289,91.7377604150218,115.76153824462891,92.73386041502181Q115.48553824462891,92.8052604150218,115.35183824462891,92.8407604150218Q110.61733824462891,94.1047604150218,94.07860824462891,95.5605604150218ZM93.0469382446289,97.65806041502181Q92.8221482446289,97.7078604150218,92.5982282446289,97.65426041502181Q92.5167682446289,97.6348604150218,92.43968824462891,97.60206041502181Q92.3626082446289,97.5693604150218,92.2920482446289,97.5242604150218Q92.2214882446289,97.4791604150218,92.1594082446289,97.4228604150218Q92.0973382446289,97.3666604150218,92.04547824462891,97.3008604150218Q91.99362824462891,97.2351604150218,91.95342824462891,97.1616604150218Q91.91322824462891,97.0881604150218,91.88581824462891,97.0090604150218Q91.8583982446289,96.92996041502181,91.8445282446289,96.8473604150218Q91.8306582446289,96.76476041502181,91.83071824462891,96.6809604150218L91.8307282446289,96.67226041502181Q91.83083824462891,96.5234604150218,91.8742582446289,96.38116041502181Q94.15923824462891,86.65686041502181,84.55699524462891,79.30066041502181Q84.47996224462891,79.2416604150218,84.4157122446289,79.1689604150218Q84.3514632446289,79.0961604150218,84.30239624462891,79.0124604150218Q84.2533282446289,78.9287604150218,84.2212722446289,78.8371604150218Q84.1892172446289,78.7455604150218,84.17537024462891,78.6495604150218Q84.16152824462891,78.5534604150218,84.16640224462891,78.4565604150218Q84.1712812446289,78.3596604150218,84.19470324462891,78.2654604150218Q84.21812524462891,78.1712604150218,84.2592162446289,78.0833604150218Q84.30030724462891,77.9954604150218,84.35753424462891,77.91706041502181Q87.11993824462891,74.13411041502181,90.8977582446289,71.2297204150218Q94.98920824462891,68.0923904150218,99.8260382446289,66.3220344150218Q99.8409382446289,66.3165584150218,99.85613824462891,66.3115604150218Q107.4531382446289,63.8022904150218,111.11343824462891,66.5290784150218Q114.6410382446289,69.1570704150218,114.1885382446289,76.3410604150218Q121.89763824462891,80.4378604150218,122.8747382446289,86.52706041502181Q123.3071382446289,89.2202604150218,122.28723824462891,91.0554604150218Q120.9343382446289,93.4604604150218,116.26283824462891,94.6699604150218Q115.9926382446289,94.7399604150218,115.86773824462891,94.7730604150218Q110.79413824462891,96.12766041502181,93.0469382446289,97.65806041502181Z" fill-rule="evenodd" fill="#000000" fill-opacity="1"/></g><g><path d="M51.318615783691406,78.1747836572093C40.477975783691406,72.4252836572093,36.79486578369141,64.22038365720931,39.0990817836914,59.929983657209306C41.076715783691405,56.25135365720931,47.744405783691406,55.928053657209304,49.37731578369141,55.8931036572093C49.51341578369141,55.8931036572093,49.658515783691406,55.8756236572093,49.794615783691405,55.8756236572093C50.094015783691404,55.543583657209304,50.52031578369141,55.0717336572093,51.046515783691405,54.521243657209304C51.826715783691405,53.7173536572093,52.90621578369141,52.6513236572093,54.103715783691406,51.6289936572093C56.1629157836914,49.863923657209305,58.8482157836914,48.0639126572093,61.3701157836914,48.2211959372093C64.9171157836914,48.4396446572093,68.2918157836914,52.7736536572093,69.54371578369141,58.759183657209306C69.5709157836914,58.9163836572093,69.59811578369141,59.064983657209304,69.6253157836914,59.2222836572093C70.2331157836914,62.5863836572093,70.7049157836914,66.64078365720931,70.4599157836914,72.0320836572093Q59.69181578369141,70.79998365720931,51.87201578369141,78.48068365720931" fill="#D0E2FF" fill-opacity="1"/><path d="M51.136415783691405,79.1580836572093Q50.98561578369141,79.1301836572093,50.85011578369141,79.0582836572093Q42.93303578369141,74.8592836572093,39.42251378369141,69.0204836572093Q36.073405783691406,63.4501836572093,38.218291783691406,59.456483657209304Q40.56461578369141,55.0920336572093,49.334415783691405,54.8940436572093Q49.8829157836914,54.291373657209306,50.32891578369141,53.8248036572093Q51.959015783691406,52.1451436572093,53.45291578369141,50.869723657209306Q57.960015783691404,47.0065736572093,61.431615783691406,47.2230866572093Q64.54541578369141,47.4148576572093,67.10741578369141,50.7142136572093Q69.5371157836914,53.8432736572093,70.5225157836914,58.5543836572093Q70.5257157836914,58.5698836572093,70.5285157836914,58.5854836572093L70.56931578369141,58.8170836572093L70.6094157836914,59.044483657209305Q71.7613157836914,65.4203836572093,71.45891578369141,72.0774836572093Q71.4573157836914,72.1116836572093,71.45341578369141,72.14578365720931Q71.4308157836914,72.3433836572093,71.33431578369141,72.5172836572093Q71.2378157836914,72.69118365720931,71.0821157836914,72.8149836572093Q70.92631578369141,72.93868365720931,70.73511578369141,72.99348365720931Q70.5439157836914,73.04818365720931,70.3462157836914,73.0255836572093Q60.053415783691406,71.84788365720931,52.57451578369141,79.1922836572093Q52.57361578369141,79.1931836572093,52.57271578369141,79.1940836572093Q52.43251578369141,79.3318836572093,52.25061578369141,79.4062836572093Q52.068615783691406,79.48068365720931,51.87201578369141,79.48068365720931Q51.66241578369141,79.48068365720931,51.47041578369141,79.3964836572093Q51.27841578369141,79.3122836572093,51.136415783691405,79.1580836572093ZM51.710715783691406,77.25068365720931Q44.3442357836914,73.3249836572093,41.136555783691406,67.98998365720931Q38.37354598369141,63.3943836572093,39.979875783691405,60.40348365720931Q41.77951578369141,57.055963657209304,49.37731578369141,56.8931036572093Q49.47641578369141,56.8931036572093,49.648015783691406,56.882433657209305Q49.757615783691406,56.8756236572093,49.794615783691405,56.8756236572093Q49.8996157836914,56.8756236572093,50.00231578369141,56.853803657209305Q50.1051157836914,56.83198365720931,50.2010157836914,56.7893036572093Q50.29701578369141,56.746623657209305,50.38201578369141,56.6849336572093Q50.46701578369141,56.6232436572093,50.537315783691405,56.545243657209305Q51.236615783691406,55.7696436572093,51.76411578369141,55.21768365720931Q53.32891578369141,53.6053336572093,54.75441578369141,52.388253657209304Q58.645415783691405,49.053210657209306,61.30861578369141,49.2193036572093Q63.520215783691405,49.355503657209304,65.5277157836914,51.9408536572093Q67.6702157836914,54.7000036572093,68.5617157836914,58.948583657209305L68.59971578369141,59.1643836572093L68.64131578369141,59.4000836572093Q69.66221578369141,65.0510836572093,69.4994157836914,70.9363836572093Q59.303415783691406,70.1652836572093,51.710715783691406,77.25068365720931Z" fill-rule="evenodd" fill="#000000" fill-opacity="1"/></g><g><path d="M70.55063693173828,69.95241412595931C71.13122553173828,63.1893141259593,72.28333753173828,49.8377141259593,77.37254753173828,48.6843071259593C80.45692753173827,47.985272125959305,85.14700753173828,51.6901541259593,87.12460753173828,53.795994125959304C87.21530753173829,53.8921141259593,87.31510753173828,53.996974125959305,87.40580753173828,54.0930841259593C87.85940753173828,54.101824125959304,88.51260753173828,54.128044125959306,89.29280753173828,54.171734125959304C90.43580753173828,54.2416341259593,91.96890753173828,54.3727041259593,93.55650753173828,54.617364125959305C94.30940753173829,54.7309541259593,95.76990753173828,55.045524125959304,96.98560753173828,55.6484441259593C99.49840753173828,56.8892241259593,101.80260753173829,59.912514125959305,101.72100753173828,62.9359141259593Q101.62120753173828,66.8242141259593,97.59340753173828,70.6427141259593C94.13700753173828,73.7097141259593,90.99820753173827,76.4971141259593,87.54190753173827,79.5642141259593Q78.40671753173828,71.4990141259593,70.45990753173828,72.0146141259593C70.49619513173828,71.4204141259593,70.45990753173828,70.88741412595931,70.55062313173828,69.9349141259593L70.55063693173828,69.95241412595931Z" fill="#D0E2FF" fill-opacity="1"/><path d="M69.56051653173829,69.7946141259593Q69.55730153173828,69.8173141259593,69.55512853173828,69.8401141259593Q69.49452553173828,70.47641412595931,69.48071353173827,71.33381412595931Q69.47394053173828,71.7543141259593,69.46176753173827,71.9536141259593Q69.45792753173828,72.0165141259593,69.46200553173828,72.0793141259593Q69.46838153173829,72.17761412595931,69.49380953173828,72.27271412595931Q69.51923753173828,72.3679141259593,69.56274053173829,72.4563141259593Q69.60624253173827,72.5446141259593,69.66614853173829,72.62281412595931Q69.72605353173829,72.7010141259593,69.80006053173828,72.7660141259593Q69.87406653173828,72.8310141259593,69.95932953173828,72.8803141259593Q70.04459353173829,72.9296141259593,70.13783653173829,72.9613141259593Q70.23107953173829,72.9930141259593,70.32872053173828,73.00591412595931Q70.42636033173828,73.0189141259593,70.52464513173828,73.0125141259593Q78.05654753173827,72.52391412595931,86.88010753173828,80.31381412595931Q86.94820753173828,80.3739141259593,87.02600753173829,80.42081412595931Q87.10380753173828,80.4676141259593,87.18870753173829,80.4997141259593Q87.27370753173828,80.5318141259593,87.36310753173828,80.5480141259593Q87.45240753173829,80.5643141259593,87.54320753173829,80.5642141259593Q87.63410753173828,80.5640141259593,87.72340753173827,80.54751412595931Q87.81270753173828,80.5311141259593,87.89760753173829,80.4988141259593Q87.98250753173828,80.4665141259593,88.06010753173828,80.4194141259593Q88.13780753173828,80.3723141259593,88.20570753173828,80.31201412595931L93.23150753173829,75.8513141259593L98.25720753173829,71.3906141259593Q98.26940753173828,71.37971412595931,98.28130753173828,71.3684141259593Q102.61020753173828,67.2646141259593,102.72060753173828,62.9629141259593Q102.78830753173828,60.4564141259593,101.15210753173828,58.0598441259593Q99.63870753173828,55.8432241259593,97.42990753173828,54.7525741259593Q95.80100753173828,53.94466412595931,93.70880753173827,53.6290341259593Q91.67440753173828,53.315514125959304,89.34870753173828,53.1732941259593Q88.48430753173828,53.124884125959305,87.84690753173828,53.1043241259593Q85.81040753173828,50.9377341259593,83.18470753173828,49.3348011259593Q79.60917753173828,47.1520441259593,77.15151753173828,47.709037125959306Q73.22939753173829,48.597941282959304,71.29637453173828,56.9902641259593Q70.28576853173828,61.377814125959304,69.56051653173829,69.7946141259593ZM71.53963753173828,70.1003141259593Q71.50509753173829,70.4906141259593,71.48947753173829,70.9837141259593Q79.07311753173828,71.0164141259593,87.53450753173829,78.2336141259593L91.90390753173828,74.3555141259593L96.91710753173828,69.9058141259593Q100.63230753173828,66.3784141259593,100.72130753173828,62.9089141259593Q100.77160753173828,61.049514125959305,99.50030753173829,59.1876141259593Q98.28280753173829,57.404234125959306,96.54120753173828,56.5443041259593Q95.19290753173829,55.875554125959304,93.40410753173828,55.6056941259593Q91.46060753173828,55.3061741259593,89.23680753173828,55.1701641259593Q88.10390753173829,55.1067241259593,87.38660753173828,55.0929041259593Q87.18560753173828,55.0890341259593,87.00170753173828,55.007784125959304Q86.81780753173828,54.9265341259593,86.67960753173828,54.780534125959306L86.53900753173828,54.631984125959306L86.39570753173828,54.480564125959305Q84.54180753173829,52.506554125959305,82.14260753173828,51.0418441259593Q79.25974753173828,49.28195812595931,77.59358753173828,49.6595741259593Q73.21110753173828,50.6527841259593,71.54696753173828,70.03801412595931Q71.54428753173828,70.0693141259593,71.53963753173828,70.1003141259593Z" fill-rule="evenodd" fill="#000000" fill-opacity="1"/></g><g><path d="M43.807172424316406,96.48083385252181L39.942672424316406,96.48083385252181Q6.277572424316407,96.70803385252181,26.280682424316407,77.2224338525218Q27.051782424316407,62.7961238525218,37.783572424316404,66.5272228525218Q51.354872424316405,72.2942538525218,53.92217242431641,76.84673385252181Q44.9230724243164,81.6962338525218,43.807172424316406,96.48083385252181Z" fill="#D0E2FF" fill-opacity="1"/><path d="M44.804372424316405,96.55613385252181Q45.879072424316405,82.3170338525218,54.3965724243164,77.7270338525218Q54.404972424316405,77.7224338525218,54.41337242431641,77.7177338525218Q54.499172424316406,77.6693338525218,54.573872424316406,77.6052338525218Q54.648572424316406,77.5410338525218,54.7092724243164,77.4634338525218Q54.7700724243164,77.3859338525218,54.814472424316406,77.2980338525218Q54.858972424316406,77.2101338525218,54.88537242431641,77.1153338525218Q54.91187242431641,77.0204338525218,54.919272424316404,76.9222338525218Q54.926772424316404,76.82403385252181,54.91487242431641,76.7262338525218Q54.90297242431641,76.62843385252181,54.87227242431641,76.5348338525218Q54.841572424316404,76.44133385252181,54.79317242431641,76.3555338525218Q52.058872424316405,71.50688385252181,38.174672424316405,65.6068738525218Q38.14377242431641,65.59372185252181,38.111972424316406,65.5826808525218Q32.17757242431641,63.519473852521806,28.861072424316404,66.6031298525218Q25.771212424316406,69.47599385252181,25.305002424316406,76.7784338525218Q15.020122424316407,86.9188338525218,18.879020924316407,92.3584338525218Q22.595962424316404,97.5979338525218,39.942672424316406,97.48083385252181L43.807172424316406,97.48083385252181Q43.90097242431641,97.48083385252181,43.99307242431641,97.4634338525218Q44.08517242431641,97.44603385252181,44.17247242431641,97.4117338525218Q44.259672424316406,97.37753385252181,44.339072424316406,97.3276338525218Q44.418472424316406,97.27783385252181,44.487172424316405,97.2140338525218Q44.555872424316405,97.15033385252181,44.61157242431641,97.07493385252181Q44.66727242431641,96.99953385252181,44.70797242431641,96.9151338525218Q44.74867242431641,96.8306338525218,44.77297242431641,96.74013385252181Q44.797272424316404,96.6495338525218,44.804372424316405,96.55613385252181ZM52.4973724243164,76.5172338525218Q49.395972424316405,72.5518538525218,37.42387242431641,67.4608938525218Q32.649872424316406,65.8112810525218,30.222872424316407,68.0678338525218Q27.643232424316405,70.4663538525218,27.279262424316407,77.2758338525218Q27.269202424316404,77.46403385252181,27.191332424316407,77.6356338525218Q27.113462424316406,77.8072338525218,26.978462424316405,77.9387338525218Q17.589822424316406,87.0845338525218,20.510242424316406,91.2012338525218Q23.624322424316407,95.5909338525218,39.942672424316406,95.48083385252181L42.888272424316405,95.48083385252181Q44.18357242431641,81.6899338525218,52.4973724243164,76.5172338525218Z" fill-rule="evenodd" fill="#000000" fill-opacity="1"/></g><g><path d="M31.025211486816406,97.1099622900218C27.623361486816407,98.1847222900218,20.592795486816406,100.3954222900218,19.758199386816408,105.6294422900218C18.941746486816406,110.7324322900218,24.593411486816407,115.0139322900218,25.119571486816405,115.3984322900218Q28.013441486816404,140.6161322900218,52.797311486816405,112.8732322900218C51.491011486816404,111.7460322900218,50.030411486816405,110.2605322900218,48.67881148681641,108.3556322900218C45.4220114868164,103.7770022900218,44.49671148681641,99.1721122900218,44.1883114868164,96.4720932900218C41.593811486816406,95.9565583900218,36.64061148681641,95.3361592900218,31.025211486816406,97.10122229002181L31.025211486816406,97.1099622900218Z" fill="#D0E2FF" fill-opacity="1"/><path d="M30.602911486816406,96.1947742900218Q19.696563386816408,99.6654022900218,18.770672486816405,105.4719722900218Q18.186721486816406,109.12173229002181,21.148361486816405,112.9002322900218Q22.532891486816407,114.6666322900218,24.177251486816406,115.9407322900218Q25.809911486816407,129.0804322900218,33.57681148681641,128.3718322900218Q40.8886114868164,127.70473229002181,53.54311148681641,113.53943229002181Q53.608711486816404,113.46593229002181,53.65871148681641,113.38113229002181Q53.708711486816405,113.2962322900218,53.74131148681641,113.2033322900218Q53.773811486816406,113.1103322900218,53.787511486816406,113.0128322900218Q53.80131148681641,112.9152322900218,53.79571148681641,112.81693229002181Q53.7902114868164,112.7186322900218,53.765611486816404,112.6232322900218Q53.741011486816404,112.5278322900218,53.698211486816405,112.4391322900218Q53.65551148681641,112.3504322900218,53.59621148681641,112.2717322900218Q53.537011486816404,112.1930322900218,53.46351148681641,112.1274322900218Q53.45711148681641,112.12173229002181,53.450611486816406,112.1160322900218Q51.18781148681641,110.16363229002181,49.49431148681641,107.7769322900218Q45.91071148681641,102.7386922900218,45.18181148681641,96.35859629002181Q45.17281148681641,96.2801362900218,45.15171148681641,96.2040562900218Q45.1305114868164,96.12797529002181,45.09771148681641,96.05616029002181Q45.06481148681641,95.9843448900218,45.02111148681641,95.91857549002181Q44.97741148681641,95.85280619002181,44.92391148681641,95.7947132900218Q44.87041148681641,95.7366202900218,44.80851148681641,95.6876432900218Q44.7465114868164,95.6386662900218,44.6776114868164,95.6000202900218Q44.60881148681641,95.5613742900218,44.534711486816406,95.5340162900218Q44.460611486816404,95.5066592900218,44.38321148681641,95.49126829002181Q37.29381148681641,94.0826022900218,30.725411486816405,96.14724229002181Q30.662611486816406,96.1669782900218,30.602911486816406,96.1947742900218ZM31.443311486816405,98.0183622900218Q31.386311486816407,98.0446022900218,31.326511486816408,98.0635022900218L31.305011486816404,98.07028229002181Q21.481301486816406,101.1738622900218,20.745721486816407,105.7869122900218Q20.299583486816406,108.5753322900218,22.722451486816407,111.6664322900218Q24.083381486816407,113.4027322900218,25.709561486816405,114.5910322900218Q25.878591486816404,114.71453229002181,25.983891486816407,114.8955322900218Q26.089181486816408,115.0764322900218,26.113051486816406,115.28443229002181Q27.448601486816408,126.9226322900218,33.395111486816404,126.3801322900218Q39.74131148681641,125.8010322900218,51.3839114868164,112.9492322900218Q49.4066114868164,111.1094322900218,47.86321148681641,108.9343322900218Q44.190511486816405,103.7709122900218,43.28821148681641,97.3217722900218Q37.1433114868164,96.2574692900218,31.443311486816405,98.0183622900218Z" fill-rule="evenodd" fill="#000000" fill-opacity="1"/></g><g><path d="M41.185562873535154,124.5120602197093Q31.224842873535156,139.5325602197093,50.06678287353516,138.5713602197093Q55.39188287353515,149.7996602197093,63.19348287353516,144.5917602197093C71.91138287353516,138.7723602197093,70.10618287353515,118.53529021970931,70.10618287353515,118.5090802197093Q65.27088287353516,118.3780102197093,63.57448287353516,117.9848002197093C61.070682873535155,117.4168402197093,57.52368287353516,116.1935302197093,53.30538287353516,113.2750602197093L41.185562873535154,124.5120602197093Z" fill="#D0E2FF" fill-opacity="1"/><path d="M53.87428287353516,112.4526922197093Q53.80458287353515,112.40447021970931,53.727782873535155,112.3686662197093Q53.650982873535156,112.33286321970931,53.569182873535155,112.3104992197093Q53.48748287353516,112.2881352197093,53.403082873535155,112.2798502197093Q53.318782873535156,112.2715602197093,53.234182873535154,112.2775932197093Q53.149682873535156,112.2836222197093,53.06738287353515,112.3037932197093Q52.985082873535156,112.3239642197093,52.90728287353515,112.35770221970931Q52.82958287353516,112.39144021970931,52.758582873535154,112.4377832197093Q52.687582873535156,112.4841252197093,52.625482873535155,112.5417502197093L40.505672873535154,123.7787602197093Q40.41813287353516,123.8598602197093,40.35216287353516,123.95936021970931Q35.01406287353515,132.0090602197093,37.58005887353516,136.0711602197093Q40.02773287353516,139.9459602197093,49.454882873535155,139.5992602197093Q52.16728287353516,145.0278602197093,55.59408287353516,146.5995602197093Q59.383382873535155,148.3374602197093,63.74868287353516,145.42356021970932Q69.51688287353515,141.5730602197093,70.88278287353515,129.7550602197093Q71.55568287353515,123.9337602197093,71.10398287353516,118.4419602197093Q71.10618287353515,118.4684302197093,71.10618287353515,118.50909021970931Q71.10618287353515,118.4123102197093,71.08758287353515,118.3173202197093Q71.06898287353516,118.2223302197093,71.03258287353515,118.1326702197093Q70.99618287353516,118.0430102197093,70.94318287353516,117.9619902197093Q70.89028287353516,117.8809802197093,70.82278287353515,117.8116202197093Q70.75528287353515,117.7422702197093,70.67568287353515,117.6871402197093Q70.59618287353516,117.6320202197093,70.50748287353515,117.59317021970931Q70.41888287353515,117.5543202197093,70.32448287353515,117.5332002197093Q70.22998287353516,117.5120702197093,70.13328287353517,117.50945021970931Q65.39868287353517,117.38110021970931,63.80028287353515,117.0106302197093Q58.833982873535156,115.8840402197093,53.87428287353516,112.4526922197093ZM53.402682873535156,114.5485102197093L41.95350287353516,125.1637602197093Q37.40969287353516,132.0565602197093,39.27095287353516,135.0030602197093Q41.178912873535154,138.0234602197093,50.01578287353516,137.5726602197093Q50.08958287353516,137.5688602197093,50.16298287353516,137.5760602197093Q50.23648287353515,137.5831602197093,50.308082873535156,137.6009602197093Q50.379782873535156,137.61876021970932,50.44798287353515,137.6468602197093Q50.51618287353516,137.6750602197093,50.57958287353516,137.7128602197093Q50.64298287353516,137.7507602197093,50.70008287353515,137.7974602197093Q50.75718287353516,137.8442602197093,50.80688287353516,137.8988602197093Q50.85648287353516,137.9534602197093,50.89758287353516,138.0148602197093Q50.93868287353516,138.0761602197093,50.970282873535155,138.1428602197093Q53.47688287353516,143.4282602197093,56.427882873535154,144.7816602197093Q59.20198287353516,146.0539602197093,62.63828287353516,143.76006021970932Q67.63638287353515,140.4236602197093,68.89598287353516,129.52546021970932Q69.49258287353516,124.3641602197093,69.17508287353516,119.48093021970931Q64.97378287353516,119.33565021970931,63.348682873535154,118.9589802197093Q58.35078287353515,117.8252502197093,53.402682873535156,114.5485102197093Z" fill-rule="evenodd" fill="#000000" fill-opacity="1"/></g><g><path d="M55.77656534228515,64.8153226493968Q55.680937342285155,64.6861716493968,55.63058734228515,64.5335616493968Q55.580238342285156,64.3809516493968,55.580238342285156,64.2202506493968Q55.580238342285156,64.1217592493968,55.59945334228516,64.02516064939681Q55.618668342285154,63.928561649396805,55.65635934228516,63.8375676493968Q55.69405034228516,63.7465726493968,55.74876834228515,63.6646806493968Q55.80348734228516,63.582787649396806,55.873131342285156,63.5131436493968Q55.94277534228516,63.443499649396806,56.02466834228515,63.3887806493968Q56.10656034228516,63.334062649396806,56.197555342285156,63.296371649396804Q56.28854934228516,63.2586806493968,56.385148342285156,63.239465649396806Q56.481746942285156,63.2202506493968,56.580238342285156,63.2202506493968Q56.697451342285156,63.2202506493968,56.81148634228516,63.2473556493968Q56.925522342285156,63.2744606493968,57.03019834228515,63.327201649396805Q57.134875342285156,63.3799436493968,57.22451834228516,63.455460649396805Q57.31416134228515,63.5309786493968,57.38391134228516,63.625179649396806Q59.96379834228516,67.1094306493968,61.17621834228515,69.1592606493968Q61.810198342285155,70.23110064939681,62.09183834228516,70.9492506493968Q62.47241834228515,71.9196406493968,62.27949834228516,72.53904064939681Q62.255868342285154,72.61492064939681,62.220548342285156,72.6861106493968Q62.18522834228516,72.7573006493968,62.139108342285155,72.8220106493968Q62.09298834228515,72.88673064939681,62.03721834228516,72.9433506493968Q61.98145834228516,72.9999806493968,61.91745834228516,73.0470806493968Q61.853448342285155,73.0941806493968,61.78280834228516,73.13059064939681Q61.71216834228515,73.16699064939681,61.63665834228516,73.1917806493968Q61.56114834228516,73.2165706493968,61.482678342285155,73.2291206493968Q61.40420834228516,73.24167064939681,61.32473834228516,73.24167064939681Q61.22624834228516,73.24167064939681,61.12964834228516,73.22246064939681Q61.033048342285156,73.2032406493968,60.942048342285155,73.1655506493968Q60.85105834228516,73.12786064939681,60.769168342285155,73.0731406493968Q60.68726834228516,73.0184206493968,60.61762834228516,72.94878064939681Q60.54798834228516,72.8791306493968,60.493268342285155,72.7972406493968Q60.43854834228516,72.71535064939681,60.400858342285154,72.6243506493968Q60.36316834228516,72.5333606493968,60.34394834228516,72.4367606493968Q60.32473834228516,72.34016064939681,60.32473834228516,72.24167064939681Q60.32473834228516,72.1430006493968,60.34401834228515,72.0462306493968Q60.34365834228515,72.04414064939681,60.34324834228516,72.0418606493968Q60.319648342285156,71.9082706493968,60.22991834228516,71.6794706493968Q60.006948342285156,71.1109506493968,59.45479834228516,70.1774406493968Q58.29496834228516,68.21655064939681,55.77656534228515,64.8153226493968Z" fill-rule="evenodd" fill="#000000" fill-opacity="1"/></g><g transform="matrix(-0.5309720635414124,0.847389280796051,-0.8645287156105042,-0.5025835037231445,182.786712637984,27.774291146179394)"><line x1="82.63770294189453" y1="64.0882926415843" x2="91.94906997680664" y2="64.0882926415843" fill-opacity="0" stroke-opacity="1" stroke="#000000" fill="none" stroke-width="2" stroke-linecap="ROUND" stroke-linejoin="round"/></g><g><path d="M34.50874405126953,81.9360440868968Q43.246450051269534,87.0863990868968,44.62574005126953,87.1548790868968L44.62674005126953,87.1549190868968Q44.72204005126953,87.1595390868968,44.81474005126953,87.1820990868968Q44.907540051269535,87.2046690868968,44.99434005126953,87.24435908689681Q45.08104005126953,87.2840590868968,45.15884005126953,87.33945908689681Q45.23654005126953,87.3948590868968,45.30234005126953,87.4639590868968Q45.368140051269535,87.5330490868968,45.41974005126953,87.6133590868968Q45.47134005126953,87.6936590868968,45.50674005126953,87.7822690868968Q45.54224005126953,87.8708790868968,45.56024005126953,87.9645990868968Q45.578340051269535,88.0583090868968,45.578340051269535,88.15374908689681Q45.578340051269535,88.25223908689681,45.55914005126953,88.3488390868968Q45.53994005126953,88.4454390868968,45.50224005126953,88.5364390868968Q45.46454005126953,88.6274290868968,45.40984005126953,88.7093190868968Q45.35504005126953,88.7912190868968,45.28544005126953,88.86085908689681Q45.21584005126953,88.9304990868968,45.13394005126953,88.9852190868968Q45.05204005126953,89.03993908689681,44.961040051269535,89.0776290868968Q44.870040051269534,89.1153190868968,44.77344005126953,89.13453908689681Q44.67684005126953,89.15374908689681,44.578340051269535,89.15374908689681Q44.55414005126953,89.15374908689681,44.529940051269534,89.15257908689681L44.52844005126953,89.1525090868968L44.52814005126953,89.15248908689681Q42.65498005126953,89.0593490868968,33.492949051269534,83.6588790868968Q33.38052105126953,83.5926100868968,33.28886605126953,83.49970608689681Q33.197211051269534,83.4068020868968,33.132468051269534,83.2934880868968Q33.06772605126953,83.1801740868968,33.03423305126953,83.05403908689681Q33.00074005126953,82.9279050868968,33.00074005126953,82.7973990868968Q33.00074005126953,82.6989076868968,33.019955051269534,82.60230908689681Q33.03917005126953,82.5057100868968,33.07686105126953,82.4147160868968Q33.114552051269534,82.3237210868968,33.16927005126953,82.2418290868968Q33.223989051269534,82.1599360868968,33.29363305126953,82.09029208689681Q33.363277051269534,82.0206480868968,33.44517005126953,81.96592908689681Q33.52706205126953,81.9112110868968,33.61805705126953,81.8735200868968Q33.70905105126953,81.83582908689681,33.80565005126953,81.8166140868968Q33.90224865126953,81.7973990868968,34.00074005126953,81.7973990868968Q34.273529051269534,81.7973990868968,34.50853105126953,81.9359190868968L34.50874405126953,81.9360440868968Z" fill-rule="evenodd" fill="#000000" fill-opacity="1"/></g><g><path d="M46.570987414550785,106.0121310009593Q46.66228741455078,106.00242400095931,46.75028741455078,105.9762550009593Q46.83828741455078,105.9500860009593,46.92008741455078,105.9083300009593Q47.00188741455078,105.8665750009593,47.07468741455078,105.81062900095931Q47.14738741455078,105.7546830009593,47.208787414550784,105.68641700095931Q47.27018741455078,105.6181510009593,47.31818741455078,105.53984800095931Q47.36608741455078,105.46154400095931,47.39898741455078,105.3758220009593Q47.43188741455078,105.2900990009593,47.44858741455078,105.1998230009593Q47.46528741455078,105.1095469009593,47.46528741455078,105.0177360009593Q47.46528741455078,104.9192446009593,47.44608741455078,104.82264600095931Q47.426887414550784,104.7260470009593,47.38918741455078,104.6350530009593Q47.35148741455078,104.5440580009593,47.29678741455078,104.4621660009593Q47.24198741455078,104.3802730009593,47.17238741455078,104.31062900095931Q47.10278741455078,104.2409850009593,47.020887414550785,104.18626600095931Q46.93898741455078,104.1315480009593,46.84798741455078,104.0938570009593Q46.75698741455078,104.05616600095931,46.66038741455078,104.0369510009593Q46.56378741455078,104.0177360009593,46.46528741455078,104.0177360009593Q46.41228741455078,104.0177360009593,46.35958741455078,104.0233410009593Q43.34434741455078,104.3439380009593,40.62408741455078,105.5247060009593Q36.728597414550784,107.2137060009593,33.949902414550785,110.3585560009593Q33.82878741455078,110.4956260009593,33.76403741455078,110.66670600095931Q33.69928741455078,110.83777600095931,33.69928741455078,111.0206860009593Q33.69928741455078,111.1191860009593,33.718502414550784,111.21577600095931Q33.73771741455078,111.3123760009593,33.77540841455078,111.4033760009593Q33.813099414550784,111.4943660009593,33.86781741455078,111.57626600095931Q33.922536414550784,111.65815600095931,33.99218041455078,111.7277960009593Q34.061824414550784,111.7974460009593,34.14371741455078,111.8521560009593Q34.22560941455078,111.9068760009593,34.31660441455078,111.9445660009593Q34.40759841455078,111.9822560009593,34.50419741455078,112.0014760009593Q34.60079601455078,112.0206860009593,34.69928741455078,112.0206860009593Q34.80557641455078,112.0206860009593,34.90949041455078,111.9983460009593Q35.01340541455078,111.9760060009593,35.11030141455078,111.9323160009593Q35.207197414550784,111.88863600095931,35.292746414550784,111.82555600095931Q35.37829441455078,111.76247600095931,35.44867241455078,111.68282600095931Q37.93261741455078,108.87157600095931,41.42042741455078,107.3593260009593Q43.86003741455078,106.3003760009593,46.570987414550785,106.0121310009593Z" fill-rule="evenodd" fill="#000000" fill-opacity="1"/></g><g><path d="M62.09698661376953,117.86159406189681Q62.097896613769535,117.8402484618968,62.097896613769535,117.8188834618968Q62.097896613769535,117.7203920618968,62.078686613769534,117.62379346189681Q62.05946661376953,117.5271944618968,62.02177661376953,117.4362004618968Q61.984086613769534,117.3452054618968,61.92936661376953,117.2633134618968Q61.87464661376953,117.1814204618968,61.80500661376953,117.11177646189681Q61.73535661376953,117.0421324618968,61.65346661376953,116.98741346189681Q61.57157661376953,116.9326954618968,61.48058661376953,116.8950044618968Q61.38958661376953,116.85731346189681,61.29298661376953,116.8380984618968Q61.19638661376953,116.8188834618968,61.097896613769535,116.8188834618968Q61.002106613769534,116.8188834618968,60.90804661376953,116.8370704618968Q60.81399661376953,116.8552574618968,60.72510661376953,116.8909694618968Q60.636216613769534,116.9266814618968,60.55571661376953,116.97862046189681Q60.47522661376953,117.0305584618968,60.40605661376953,117.0968344618968Q60.33688661376953,117.1631104618968,60.28155661376953,117.2413124618968Q60.22622661376953,117.3195144618968,60.18675661376953,117.4067984618968Q60.147276613769534,117.49408246189681,60.12508661376953,117.5872734618968Q60.102906613769534,117.6804654618968,60.09880661376953,117.7761735618968Q59.97597661376953,120.6495034618968,58.92433661376953,123.3338234618968Q57.44933661376953,127.0879334618968,54.327352613769534,129.9514834618968Q54.32660061376953,129.9521834618968,54.32584761376953,129.95288346189682Q54.24923161376953,130.02308346189682,54.18870461376953,130.1075834618968Q54.12817761376953,130.1920834618968,54.08632861376953,130.2872834618968Q54.04447961376953,130.3824834618968,54.023098613769534,130.4841834618968Q54.00171661376953,130.5858834618968,54.00171661376953,130.6898834618968Q54.00171661376953,130.7883834618968,54.020931613769534,130.8849834618968Q54.04014661376953,130.9815834618968,54.07783761376953,131.0725834618968Q54.115528613769534,131.1635834618968,54.17024661376953,131.2453834618968Q54.224965613769534,131.3272834618968,54.29460961376953,131.3969834618968Q54.364253613769534,131.4665834618968,54.44614661376953,131.52128346189681Q54.52803861376953,131.57608346189681,54.61903361376953,131.61378346189682Q54.71002761376953,131.6513834618968,54.80662661376953,131.6706834618968Q54.90322521376953,131.6898834618968,55.00171661376953,131.6898834618968Q55.18941061376953,131.6898834618968,55.36433061376953,131.6217834618968Q55.53925061376953,131.5537834618968,55.67758561376953,131.4268834618968Q59.14141661376953,128.2504834618968,60.78580661376953,124.0652034618968Q61.95989661376953,121.0683334618968,62.09698661376953,117.86159406189681Z" fill-rule="evenodd" fill="#000000" fill-opacity="1"/></g><g><path d="M78.47969199462891,116.8132730400218Q78.3956069946289,116.62139504002181,78.3956069946289,116.4119010400218Q78.3956069946289,116.3134096400218,78.41482199462891,116.21681104002181Q78.43403699462891,116.1202120400218,78.4717279946289,116.0292180400218Q78.5094189946289,115.9382230400218,78.56413699462891,115.8563310400218Q78.6188559946289,115.7744380400218,78.68849999462891,115.70479404002181Q78.75814399462891,115.6351500400218,78.8400369946289,115.58043104002181Q78.9219289946289,115.5257130400218,79.0129239946289,115.4880220400218Q79.1039179946289,115.45033104002181,79.20051699462891,115.4311160400218Q79.2971155946289,115.4119010400218,79.3956069946289,115.4119010400218Q79.4680948946289,115.4119010400218,79.5398249946289,115.4223550400218Q79.6115549946289,115.43280904002181,79.6810279946289,115.4534990400218Q79.75049999462891,115.4741880400218,79.8162629946289,115.50468104002181Q79.8820249946289,115.5351730400218,79.9427029946289,115.5748310400218Q80.0033799946289,115.61448904002181,80.05770399462891,115.6624830400218Q80.1120279946289,115.7104770400218,80.15886199462891,115.7658040400218Q80.20569599462891,115.8211310400218,80.24406199462891,115.8826330400218Q80.2824269946289,115.9441360400218,80.3115219946289,116.01052904002181Q82.98976699462891,122.1221810400218,84.7350969946289,125.0469710400218L86.51314699462891,128.0179010400218Q86.6550769946289,128.2550010400218,86.6550769946289,128.5314010400218Q86.6550769946289,128.6299010400218,86.63586699462891,128.72650104002182Q86.61664699462891,128.8231010400218,86.57895699462891,128.9141010400218Q86.54126699462891,129.0051010400218,86.48654699462891,129.0870010400218Q86.4318269946289,129.1689010400218,86.3621869946289,129.2385010400218Q86.2925469946289,129.3082010400218,86.2106469946289,129.3629010400218Q86.1287569946289,129.4176010400218,86.03776699462891,129.4553010400218Q85.9467669946289,129.4930010400218,85.8501669946289,129.5122010400218Q85.75356699462891,129.5314010400218,85.6550769946289,129.5314010400218Q85.5254269946289,129.5314010400218,85.40005699462891,129.4983010400218Q85.27468699462891,129.4653010400218,85.1618969946289,129.4013010400218Q85.0491069946289,129.3374010400218,84.9563569946289,129.2468010400218Q84.8635969946289,129.1562010400218,84.7970169946289,129.04500104002182L83.01896699462891,126.0740610400218Q81.2081869946289,123.0395710400218,78.47969199462891,116.8132730400218Z" fill-rule="evenodd" fill="#000000" fill-opacity="1"/></g><g><path d="M91.5437574555664,103.6417166572093Q96.08295445556641,104.22872565720931,99.97703445556641,106.3905786572093Q102.46910445556641,107.78278865720931,104.43920445556641,109.6468786572093L104.4403044555664,109.6478586572093L104.4403044555664,109.64793865720931Q104.5900044555664,109.7895986572093,104.6715044555664,109.9788986572093Q104.75300445556641,110.1681886572093,104.75300445556641,110.3742786572093Q104.75300445556641,110.4727686572093,104.7338044555664,110.56936865720931Q104.7146044555664,110.6659686572093,104.6769044555664,110.7569686572093Q104.6392044555664,110.8479586572093,104.5845044555664,110.9298486572093Q104.5298044555664,111.0117386572093,104.46010445556641,111.0813886572093Q104.3905044555664,111.15102865720931,104.30860445556641,111.2057486572093Q104.2267044555664,111.2604686572093,104.13570445556641,111.2981586572093Q104.0447044555664,111.3358486572093,103.94810445556641,111.3550686572093Q103.85150445556641,111.3742786572093,103.75300445556641,111.3742786572093Q103.5613044555664,111.3742786572093,103.38310445556641,111.3033486572093Q103.2049044555664,111.23241865720931,103.0657044555664,111.10061865720931Q101.2764244555664,109.4074386572093,99.00160445556641,108.1365786572093Q95.4471144555664,106.1632686572093,91.2878654555664,105.6252796572093L91.2872534555664,105.6252006572093Q91.19761845556641,105.6136086572093,91.11151345556641,105.5861336572093Q91.0254094555664,105.5586586572093,90.94562645556641,105.51618965720931Q90.8658434555664,105.4737216572093,90.7949684555664,105.4176356572093Q90.7240924555664,105.3615506572093,90.66442145556641,105.2936666572093Q90.6047504555664,105.22578265720931,90.5582184555664,105.14829965720931Q90.5116864555664,105.0708166572093,90.4798004555664,104.98624565720931Q90.4479154555664,104.9016746572093,90.4317094555664,104.8127576572093Q90.4155044555664,104.7238405572093,90.4155044555664,104.6334586572093Q90.4155044555664,104.5349672572093,90.43471945556641,104.43836865720931Q90.45393445556641,104.3417696572093,90.4916254555664,104.2507756572093Q90.5293164555664,104.1597806572093,90.58403445556641,104.0778886572093Q90.6387534555664,103.9959956572093,90.70839745556641,103.92635165720931Q90.77804145556641,103.8567076572093,90.8599344555664,103.80198865720931Q90.9418264555664,103.7472706572093,91.0328214555664,103.7095796572093Q91.1238154555664,103.67188865720931,91.22041445556641,103.6526736572093Q91.3170130555664,103.6334586572093,91.4155044555664,103.6334586572093Q91.4798969555664,103.6334586572093,91.5437574555664,103.6417166572093Z" fill-rule="evenodd" fill="#000000" fill-opacity="1"/></g><g><path d="M106.86452662353516,83.3817304462718Q107.01742662353516,83.2398134462718,107.10082662353516,83.0485834462718Q107.18422662353515,82.8573534462718,107.18422662353515,82.6487174462718Q107.18422662353515,82.5502260462718,107.16502662353516,82.45362744627181Q107.14582662353516,82.3570284462718,107.10812662353516,82.2660344462718Q107.07042662353516,82.1750394462718,107.01572662353516,82.0931474462718Q106.96102662353516,82.0112544462718,106.89132662353515,81.94161044627181Q106.82172662353516,81.8719664462718,106.73982662353515,81.81724744627181Q106.65792662353516,81.7625294462718,106.56692662353515,81.7248384462718Q106.47592662353516,81.68714744627181,106.37932662353515,81.6679324462718Q106.28272662353515,81.6487174462718,106.18422662353515,81.6487174462718Q105.99502662353515,81.6487174462718,105.81892662353516,81.7178544462718Q105.64272662353515,81.7869904462718,105.50402662353515,81.9157044462718Q104.30752662353515,83.0260804462718,103.05682662353516,83.9124874462718Q98.55623662353516,87.1009074462718,92.67025462353516,88.05784744627181Q92.58306862353515,88.0720174462718,92.49971762353516,88.1012574462718Q92.41636662353515,88.1304974462718,92.33943162353516,88.1738874462718Q92.26249662353516,88.2172874462718,92.19435962353515,88.2734974462718Q92.12622262353516,88.3297074462718,92.06899462353516,88.3969974462718Q92.01176562353515,88.46427744627181,91.96721762353516,88.5405474462718Q91.92266962353516,88.6168274462718,91.89218162353515,88.69972744627181Q91.86169362353516,88.7826274462718,91.84621062353516,88.86958744627181Q91.83072662353516,88.9565574462718,91.83072662353516,89.0448874462718Q91.83072662353516,89.1433774462718,91.84994162353516,89.23997744627181Q91.86915662353516,89.3365774462718,91.90684762353516,89.42756744627181Q91.94453862353515,89.5185574462718,91.99925662353516,89.6004574462718Q92.05397562353515,89.6823474462718,92.12361962353516,89.7519874462718Q92.19326362353516,89.82163744627181,92.27515662353515,89.8763574462718Q92.35704862353515,89.9310674462718,92.44804362353516,89.9687674462718Q92.53903762353515,90.00645744627181,92.63563662353516,90.0256674462718Q92.73223522353516,90.0448874462718,92.83072662353516,90.0448874462718Q92.91148612353516,90.0448874462718,92.99119862353515,90.03192744627181Q99.33439662353516,89.0006574462718,104.21342662353516,85.54419744627181Q105.57082662353515,84.5820574462718,106.86342662353516,83.3827404462718L106.86432662353516,83.3819154462718L106.86452662353516,83.3817304462718L106.86452662353516,83.3817304462718Z" fill-rule="evenodd" fill="#000000" fill-opacity="1"/></g></g><g><path d="" fill-rule="evenodd" fill="#000000" fill-opacity="1"/></g><g><ellipse cx="68.48226547241211" cy="95.26617578977766" rx="24.321224212646484" ry="23.05066680908203" fill="#FFF879" fill-opacity="1"/><ellipse cx="68.48226547241211" cy="95.26617578977766" rx="24.321224212646484" ry="23.05066680908203" fill-opacity="0" stroke-opacity="1" stroke="#000000" fill="none" stroke-width="2" stroke-linecap="ROUND" stroke-linejoin="round"/></g><g><g><ellipse cx="63.864928245544434" cy="93.65847258085432" rx="5.533736228942871" ry="5.601014137268066" fill="#000000" fill-opacity="1"/></g><g><ellipse cx="75.10473537445068" cy="93.68459562772932" rx="5.533736228942871" ry="5.601014137268066" fill="#000000" fill-opacity="1"/></g><g transform="matrix(0.9819453358650208,-0.18916469812393188,0.20330432057380676,0.9791156053543091,-17.23496364712129,13.178679560378882)"><ellipse cx="61.74303126335144" cy="92.92204265112105" rx="2.020176649093628" ry="2.84407639503479" fill="#FFFFFF" fill-opacity="1"/></g><g transform="matrix(0.9819453358650208,-0.18916469812393188,0.20330432057380676,0.9791156053543091,-16.84058885518654,15.428575190985143)"><ellipse cx="73.73347926139832" cy="92.04704265112105" rx="2.020176649093628" ry="2.84407639503479" fill="#FFFFFF" fill-opacity="1"/></g><g><path d="M80.7718309814453,103.22106262327375Q80.86973098144531,103.15177062327376,80.94843098144531,103.06131462327376Q81.02713098144531,102.97085862327376,81.08213098144532,102.86436562327376Q81.13723098144531,102.75787262327376,81.1656309814453,102.64137862327375Q81.1939309814453,102.52488462327375,81.1939309814453,102.40499262327376Q81.1939309814453,102.30650122327376,81.17473098144531,102.20990262327376Q81.15553098144531,102.11330362327375,81.11783098144531,102.02230962327376Q81.08013098144531,101.93131462327375,81.02543098144531,101.84942262327375Q80.97063098144531,101.76752962327376,80.90103098144532,101.69788562327376Q80.83143098144531,101.62824162327375,80.7495309814453,101.57352262327376Q80.66763098144531,101.51880462327375,80.5766309814453,101.48111362327376Q80.48563098144531,101.44342262327376,80.38903098144532,101.42420762327376Q80.2924309814453,101.40499262327376,80.1939309814453,101.40499262327376Q80.03863098144531,101.40499262327376,79.89063098144531,101.45208362327375Q79.7427309814453,101.49917562327376,79.61593098144532,101.58892362327376Q70.12283098144532,108.31211262327376,58.81586398144531,102.04586462327376Q58.589701981445316,101.92052762327376,58.33113098144531,101.92052762327376Q58.23263958144531,101.92052762327376,58.13604098144531,101.93974262327376Q58.039441981445314,101.95895662327375,57.94844798144531,101.99664762327376Q57.85745298144531,102.03433862327375,57.77556098144531,102.08905762327376Q57.693667981445316,102.14377662327375,57.62402398144531,102.21342062327376Q57.554379981445315,102.28306462327376,57.49966098144531,102.36495722327376Q57.444942981445315,102.44684982327375,57.40725198144531,102.53784362327376Q57.36956098144531,102.62883862327375,57.350345981445315,102.72543662327375Q57.33113098144531,102.82203562327376,57.33113098144531,102.92052762327376Q57.33113098144531,103.05441162327375,57.36634898144531,103.18357962327376Q57.40156798144531,103.31274862327376,57.46952398144531,103.42810262327376Q57.537479981445316,103.54346262327375,57.63338798144531,103.63687262327376Q57.729294981445314,103.73029262327375,57.846397981445314,103.79519262327375Q70.25283098144531,110.67078262327375,80.7718309814453,103.22106262327375Z" fill-rule="evenodd" fill="#000000" fill-opacity="1"/></g></g></g></svg>