<svg xmlns="http://www.w3.org/2000/svg" xmlns:xlink="http://www.w3.org/1999/xlink" fill="none" version="1.1" width="208.470703125" height="163.951904296875" viewBox="0 0 208.470703125 163.951904296875"><g><g><path d="M17.540485358984377,67.43220825439454C17.420486458984374,71.17221825439454,18.040485458984374,74.86220825439453,19.550490458984374,78.29219825439453C20.820480458984374,81.16219825439453,22.820480458984374,83.73219825439453,25.210480458984375,85.74219825439454C30.430470458984374,90.13219825439452,37.09047045898437,92.18219825439454,43.76047045898437,93.02219825439454C47.430470458984374,93.49219825439454,51.15047045898437,93.54219825439453,54.84047045898438,93.25219825439453C55.88047045898438,93.17219825439453,56.890470458984375,92.39219825439453,56.84047045898438,91.25219825439453C56.79047045898437,90.24219825439454,55.960470458984375,89.16219825439453,54.84047045898438,89.25219825439453C51.670470458984376,89.50219825439453,48.48047045898437,89.50219825439453,45.320470458984374,89.19219825439453C44.95047045898437,89.15219825439453,44.58047045898438,89.12219825439453,44.210470458984375,89.07219825439454C44.01047045898437,89.05219825439454,43.820470458984374,89.02219825439454,43.62047045898437,89.00219825439453C44.180470458984374,89.07219825439454,43.460470458984375,88.98219825439453,43.34047045898437,88.96219825439454C42.560470458984376,88.84219825439453,41.780470458984375,88.71219825439454,41.000470458984374,88.55219825439454C39.45047045898437,88.24219825439454,37.91047045898438,87.84219825439453,36.40047045898437,87.34219825439453C35.670470458984376,87.10219825439452,34.95047045898437,86.84219825439453,34.240470458984376,86.55219825439454C34.15047045898437,86.51219825439453,34.060470458984376,86.48219825439453,33.98047045898437,86.44219825439453C34.030470458984375,86.46219825439454,34.390470458984375,86.62219825439453,34.070470458984374,86.48219825439453C33.920470458984376,86.41219825439453,33.77047045898438,86.35219825439452,33.62047045898437,86.28219825439453C33.26047045898437,86.12219825439453,32.90047045898437,85.95219825439453,32.54047045898437,85.77219825439454C31.220470458984373,85.11219825439453,29.950470458984377,84.35219825439452,28.770470458984377,83.47219825439453C28.620470458984375,83.36219825439453,28.290470458984373,83.09219825439453,28.630470458984377,83.37219825439453C28.490470458984376,83.26219825439453,28.350470458984375,83.14219825439453,28.210470458984375,83.03219825439453C27.930470458984374,82.80219825439454,27.660470458984374,82.56219825439453,27.390490458984374,82.32219825439454C26.860490458984373,81.84219825439453,26.350490458984375,81.32219825439454,25.870490458984374,80.78219825439453C25.630500458984375,80.51219825439453,25.400490458984375,80.23219825439453,25.180490458984373,79.95219825439453C25.110490458984376,79.87219825439453,24.970490458984376,79.65219825439453,25.240490458984375,80.03219825439453C25.190490458984375,79.96219825439454,25.130490458984376,79.89219825439453,25.080490458984375,79.81219825439453C24.960480458984375,79.65219825439453,24.840490458984377,79.48219825439453,24.730490458984374,79.31219825439453C24.320480458984374,78.71219825439454,23.940490458984375,78.08219825439453,23.590490458984377,77.43219825439454C23.390490458984374,77.06219825439453,23.210490458984374,76.68219825439454,23.040480458984376,76.30219825439453C23.010490458984375,76.24219825439454,22.880480458984376,75.95219825439453,23.000480458984377,76.22219825439453C23.130480458984376,76.51219825439453,22.950480458984373,76.09219825439453,22.940490458984375,76.07219825439454C22.860480458984377,75.87219825439453,22.780480458984375,75.67219825439453,22.710480458984375,75.47219825439453C22.410480458984374,74.64218825439453,22.170480458984375,73.79219825439453,21.980480458984374,72.92218825439453C21.880480458984376,72.47218825439452,21.800480458984374,72.02219825439454,21.730480458984374,71.56218825439453C21.720480458984376,71.49217825439453,21.670480458984375,71.16219825439453,21.710480458984375,71.44218825439454C21.750480458984377,71.74219825439454,21.690490458984375,71.30218825439454,21.690490458984375,71.23218825439453C21.660490458984377,70.99217825439453,21.640480458984374,70.75218825439453,21.620490458984374,70.51218825439453C21.530490458984374,69.47218825439452,21.520490458984376,68.44217825439453,21.550490458984374,67.40218825439453C21.580490458984375,66.36219025439453,20.610480458984377,65.35218045439453,19.550490458984374,65.40218353439452C18.440486458984374,65.45218655439453,17.580486258984376,66.28218825439453,17.550487558984376,67.40218825439453L17.540485358984377,67.43220825439454Z" fill="#000000" fill-opacity="1"/></g><g><g><g><path d="M22.27044864501953,60.63224638671875C24.26044864501953,63.282246386718754,26.33044864501953,62.34224638671875,27.36044864501953,61.54224638671875C29.04044864501953,60.22224638671875,27.34044864501953,58.64224638671875,28.030448645019533,56.89224638671875C28.66044864501953,55.29224638671875,32.120448645019536,54.05224638671875,34.10044864501953,58.99224638671875C36.09044864501953,63.932246386718745,32.43044864501953,70.37224638671876,23.780448645019533,67.94224638671875Q23.390448645019532,74.36224638671875,15.45044864501953,72.98224638671874Q8.910468645019531,71.84224638671876,7.180468645019531,59.962246386718746Q0.07047264501953127,55.29224638671875,0.49047474501953126,52.24220638671875C0.8104746450195313,49.92220638671875,2.740478645019531,49.04221638671875,5.680468645019531,50.65221638671875Q3.2904786450195314,47.662216386718754,2.4204786450195312,46.49220638671875C1.5504786450195311,45.31220638671875,2.4804786450195313,42.05220838671875,6.300478645019531,43.14221238671875C9.840478645019532,44.15221638671875,13.180448645019531,47.25221638671875,17.050448645019532,52.44221638671875Q16.83044864501953,48.092216386718746,20.88044864501953,46.60220638671875C24.93044864501953,45.11221638671875,28.97044864501953,47.79221638671875,30.620448645019533,50.43221638671875C32.27044864501953,53.072246386718746,30.54044864501953,55.22224638671875,29.13044864501953,55.63224638671875C27.72044864501953,56.05224638671875,25.45044864501953,53.86224638671875,23.820448645019532,53.34224638671875C21.90044864501953,52.74221638671875,18.95044864501953,56.19224638671875,22.29044864501953,60.62224638671875L22.27044864501953,60.63224638671875Z" fill="#FFFFFF" fill-opacity="1"/></g><g><path d="M21.9105,60.99223662109375C22.7805,62.11223662109375,24.0105,63.022236621093754,25.4905,62.87223662109375C26.5005,62.76223662109375,27.6605,62.19223662109375,28.2405,61.33223662109375C29.0905,60.07223662109375,28.1105,58.72223662109375,28.4005,57.38223662109375C28.5605,56.662236621093754,29.1905,56.17223662109375,29.8905,56.03223662109375C32.2605,55.55223662109375,33.7105,58.74223662109375,34.0305,60.59223662109375C34.3805,62.58223662109375,33.7705,64.72223662109374,32.3205,66.15223662109375C30.0905,68.34223662109375,26.7205,68.25223662109374,23.9105,67.48223662109375C23.5805,67.39223662109376,23.3005,67.64223662109376,23.2805,67.96223662109375C23.2805,68.00223662109374,23.2805,68.04223662109375,23.2705,68.08223662109376C23.2505,68.21223662109375,23.2905,67.97223662109374,23.2705,68.12223662109375C23.2605,68.19223662109374,23.2505,68.27223662109375,23.2305,68.34223662109375C23.1505,68.74223662109375,23.0405,69.13223662109375,22.8805,69.51223662109375C22.4305,70.59223662109375,21.6505,71.49223662109375,20.6105,72.04223662109375C18.9605,72.91223662109375,16.7505,72.89223662109376,15.0005,72.39223662109376C13.4105,71.94223662109374,12.1505,70.75223662109374,11.2105,69.43223662109375C9.4805,66.98223662109375,8.5105,64.00223662109374,7.9005,61.09223662109375C7.7905,60.59223662109375,7.8205,59.86223662109375,7.3905,59.522236621093754C6.4705,58.802236621093755,5.4905,58.162236621093754,4.5905,57.40223662109375C3.2605,56.272236621093754,1.5305,54.82223662109375,1.0605,53.062236621093746C0.8405,52.23219662109375,1.1505,51.17220662109375,1.8705,50.67220662109375C2.9305,49.93220662109375,4.4405,50.582206621093746,5.4405,51.11220662109375C5.9705,51.39220662109375,6.3905,50.76220662109375,6.0505,50.32220662109375C5.2805,49.36220662109375,4.5205,48.39220662109375,3.7605,47.42220662109375C3.0805,46.54220662109375,2.2905,45.78220662109375,2.8205,44.62219662109375C3.5105,43.12219962109375,5.3705,43.35220362109375,6.6605,43.79219662109375C8.3605,44.37219662109375,9.8805,45.42219662109375,11.2205,46.60219662109375C13.2705,48.40219662109375,15.0105,50.54219662109375,16.6405,52.72223662109375C16.9105,53.08223662109375,17.6005,53.01223662109375,17.5705,52.47219662109375C17.5005,51.06219662109375,18.0405,49.51219662109375,18.9905,48.48219662109375C21.3605,45.88220662109375,25.3705,46.46220662109375,27.9705,48.36219662109375C29.2105,49.27219662109375,30.6205,50.70219662109375,30.7805,52.31219662109375C30.9005,53.452236621093746,30.0705,55.22223662109375,28.7205,55.22223662109375C28.0805,55.22223662109375,27.4205,54.80223662109375,26.8905,54.49223662109375C26.2705,54.13223662109375,25.6705,53.72223662109375,25.0305,53.38223662109375C24.1005,52.87223662109375,23.2005,52.60223662109375,22.2105,53.12223662109375C21.2205,53.64223662109375,20.5305,54.79223662109375,20.3505,55.92223662109375C20.0605,57.73223662109375,20.8105,59.48223662109375,21.8605,60.912236621093754C22.2405,61.422236621093745,23.1005,60.93223662109375,22.7205,60.412236621093754C21.7105,59.04223662109375,20.9005,57.29223662109375,21.4505,55.58223662109375C21.7105,54.75223662109375,22.5005,53.71223662109375,23.4905,53.82223662109375C24.1105,53.89223662109375,24.7405,54.35223662109375,25.2605,54.67223662109375C25.9405,55.08223662109375,26.6105,55.53223662109375,27.3405,55.85223662109375C28.5905,56.412236621093754,29.7305,56.25223662109375,30.7005,55.26223662109375C33.3105,52.59223662109375,30.7105,49.07221662109375,28.3205,47.39221662109375C25.5305,45.43221662109375,21.5405,44.97221662109375,18.8005,47.28220662109375C17.3505,48.50221662109375,16.4805,50.57221662109375,16.5705,52.47221662109375L17.5005,52.22221662109375C14.7605,48.55221662109375,11.4905,44.42220662109375,7.00051,42.86221362109375C5.39051,42.30221562109375,3.35051,42.17221062109375,2.22051,43.70220662109375C1.48051,44.71220662109375,1.45051,46.03220662109375,2.20051,47.03220662109375C3.22051,48.39221662109375,4.29051,49.71220662109375,5.35051,51.04221662109375L5.96051,50.25221662109375C4.61052,49.53220662109375,2.80051,48.89221662109375,1.38051,49.81220662109375C0.320511,50.50221662109375,-0.19949,51.97221662109375,0.0705109,53.19223662109375C0.340511,54.412236621093754,1.18051,55.42223662109375,1.98051,56.30223662109375C2.90051,57.30223662109375,3.93051,58.18223662109375,5.00051,59.01223662109375C5.63051,59.50223662109375,6.28051,59.98223662109375,6.94051,60.422236621093745L6.71051,60.12223662109375C7.21051,63.54223662109375,8.39051,67.22223662109374,10.4305,70.03223662109374C11.1205,70.98223662109375,11.9305,71.85223662109375,12.9205,72.50223662109374C14.0305,73.23223662109375,15.2705,73.52223662109375,16.5805,73.64223662109376C18.9105,73.85223662109375,21.3905,73.32223662109375,22.9105,71.41223662109375C23.6805,70.45223662109375,24.2205,69.19223662109374,24.3005,67.95223662109375L23.6705,68.43223662109375C26.4205,69.18223662109375,29.5905,69.32223662109375,32.0505,67.66223662109375C33.9205,66.40223662109375,35.0405,64.30223662109375,35.1405,62.052236621093755C35.2505,59.672236621093745,34.1605,56.63223662109375,31.9905,55.42223662109375C30.4405,54.562236621093746,28.1605,55.03223662109375,27.5405,56.84223662109375C27.2505,57.67223662109375,27.4305,58.51223662109375,27.5805,59.35223662109375C27.7305,60.25223662109375,27.5505,60.86223662109375,26.7605,61.37223662109375C26.2405,61.702236621093746,25.6305,61.922236621093745,25.0105,61.87223662109375C24.0005,61.79223662109375,23.2505,61.03223662109375,22.6605,60.272236621093754C22.2705,59.76223662109375,21.5605,60.47223662109375,21.9505,60.98223662109375L21.9105,60.99223662109375Z" fill="#000000" fill-opacity="1"/></g></g><g><g><path d="M4.430484840820313,50.64221200976562C7.670486840820312,52.34220500976563,10.530486840820313,54.80220500976562,12.740486840820312,57.71221500976563C13.120486840820313,58.222205009765624,13.990486840820312,57.71221500976563,13.600486840820313,57.21221500976563C11.280486840820313,54.16220500976563,8.330486840820313,51.56221500976562,4.930484840820313,49.78221130976563C4.3604848408203125,49.48220800976563,3.8504828408203124,50.342209009765625,4.430484840820313,50.64221200976562Z" fill="#000000" fill-opacity="1"/></g><g><path d="M15.230484079345704,50.832214663085935C16.6504800793457,52.252209663085935,17.820480079345703,53.91220966308594,18.7904900793457,55.65220966308594C19.100480079345704,56.212209663085936,19.9704900793457,55.712209663085936,19.6504900793457,55.15220966308594C18.640490079345703,53.33220966308594,17.410480079345703,51.60220966308594,15.930485079345702,50.12221566308594C15.470486079345703,49.672218663085935,14.770485079345702,50.37221566308594,15.220486079345703,50.832214663085935L15.230484079345704,50.832214663085935Z" fill="#000000" fill-opacity="1"/></g><g><path d="M15.32048625,55.53221904248047C13.85048625,56.83222104248047,12.32048425,58.14222104248047,11.53048325,59.992221042480466C11.42048265,60.242221042480466,11.46048355,60.53222104248047,11.71048325,60.672221042480466C11.92048225,60.79221104248047,12.29048525,60.742221042480466,12.39048425,60.492221042480466C13.15048625,58.72222104248047,14.610486250000001,57.48223104248047,16.02048625,56.23223104248047C16.22048625,56.05223804248047,16.20048625,55.71222704248047,16.02048625,55.52222404248047C15.82048625,55.32222744248047,15.520486250000001,55.34223174248047,15.31048625,55.52222404248047L15.32048625,55.53221904248047Z" fill="#000000" fill-opacity="1"/></g></g></g><g><g><g><path d="M206.82048095703124,25.442210388183593L207.97048095703127,0.49221038818359375Q121.37048095703125,10.502210388183594,112.43048095703125,87.5822103881836L122.84048095703125,92.6622103881836C133.57048095703124,73.1622103881836,159.79048095703126,35.632210388183594,206.81048095703125,25.442210388183593L206.82048095703124,25.442210388183593Z" fill="#FF9DE0" fill-opacity="1"/></g><g><path d="M207.32051125488283,25.4422C207.45051125488283,22.6322,207.58051125488282,19.8222,207.71051125488282,17.0222C207.9205112548828,12.5422,208.1205112548828,8.07222,208.33051125488282,3.59222C208.38051125488283,2.56222,208.43051125488282,1.53222,208.4705112548828,0.50222C208.4805112548828,0.25222,208.2305112548828,-0.0277786,207.9705112548828,0.00222015C200.1005112548828,0.922218,192.2905112548828,2.43222,184.6905112548828,4.72222C178.0605112548828,6.71222,171.6005112548828,9.29222,165.46051125488282,12.4822C159.9805112548828,15.3322,154.77051125488282,18.6822,149.90051125488282,22.4922C145.49051125488282,25.9422,141.39051125488282,29.7722,137.64051125488282,33.9322C134.2305112548828,37.7122,131.1005112548828,41.7622,128.2905112548828,46.0022C125.77051125488282,49.8122,123.50051125488281,53.7822,121.49048125488281,57.8822C119.74048125488281,61.4322,118.19047125488281,65.0822,116.83047125488281,68.8022C115.74048125488281,71.7822,114.77048125488281,74.8122,113.95047125488281,77.8822C113.38046125488282,80.0122,112.87046825488281,82.1522,112.46046425488281,84.3122C112.26046725488281,85.3422,112.01046755488281,86.4122,111.94046025488281,87.4722C111.94046025488281,87.5122,111.93046565488281,87.5622,111.92045593488281,87.6022C111.90045165488281,87.7622,112.03045625488281,87.9622,112.17045625488281,88.0322C115.21045125488281,89.5122,118.24046125488282,90.9922,121.28046125488281,92.4722L122.59041125488281,93.1122C122.83041125488282,93.2322,123.1404112548828,93.1822,123.27041125488282,92.9322C125.74041125488282,88.4422,128.4404112548828,84.0622,131.33041125488282,79.8322C134.9604112548828,74.5322,138.9004112548828,69.4422,143.17041125488282,64.6322C148.02041125488282,59.1622,153.2804112548828,54.0522,158.9404112548828,49.4222C165.1804112548828,44.3222,171.9104112548828,39.8222,179.04041125488283,36.0822C186.8404112548828,31.9922,195.11041125488282,28.8422,203.6504112548828,26.7122C204.74041125488282,26.4422,205.8404112548828,26.1822,206.9404112548828,25.9522C207.5704112548828,25.8122,207.30041125488282,24.8522,206.67041125488282,24.9922C197.91041125488283,26.9022,189.4004112548828,29.8622,181.3404112548828,33.8022C174.02041125488282,37.3822,167.11041125488282,41.7622,160.6804112548828,46.7622C154.77041125488282,51.3622,149.27041125488282,56.4822,144.2004112548828,62.0022C139.73041125488282,66.8622,135.6004112548828,72.0222,131.79041125488283,77.4222C128.70041125488282,81.8022,125.83041125488282,86.3322,123.20041125488281,90.9922C122.93041125488281,91.4722,122.66041125488282,91.9522,122.3904112548828,92.4422L123.07041125488281,92.2622C120.03044125488282,90.7822,117.00043125488281,89.3022,113.9604312548828,87.8222L112.6504362548828,87.1822L112.9004362548828,87.6122Q112.9004362548828,87.4922,112.92044125488282,87.4722C112.93043125488282,87.4722,112.92044125488282,87.4122,112.92044125488282,87.4022C112.93043125488282,87.3622,112.9004362548828,87.5722,112.92044125488282,87.4222C112.93043125488282,87.3422,112.94044125488281,87.2622,112.95044125488282,87.1822C113.02045125488281,86.6722,113.11044125488282,86.1522,113.20044125488282,85.6422C113.53044125488282,83.7422,113.95044125488282,81.8522,114.41044125488281,79.9722C115.11044125488282,77.1322,115.95044125488282,74.3322,116.88045125488281,71.5622C118.07045125488281,68.0522,119.44044125488281,64.5922,120.98045125488281,61.2122C122.80041125488282,57.2222,124.86041125488282,53.3422,127.15041125488281,49.6022C129.7204112548828,45.4122,132.58041125488282,41.3922,135.73041125488282,37.6122C139.1904112548828,33.4622,142.99041125488282,29.5922,147.08041125488282,26.0622C151.61041125488282,22.1622,156.5004112548828,18.7022,161.6605112548828,15.6922C167.43051125488282,12.3322,173.5304112548828,9.55219,179.83041125488282,7.34219C186.98041125488282,4.83219,194.3704112548828,3.0322,201.8505112548828,1.84219C203.8705112548828,1.52219,205.8904112548828,1.2422,207.9205112548828,1.01219L207.4205112548828,0.512192C207.2905112548828,3.32219,207.1605112548828,6.13219,207.0305112548828,8.93219C206.82051125488283,13.4122,206.6205112548828,17.8822,206.4105112548828,22.3622C206.3605112548828,23.3922,206.3105112548828,24.4222,206.27051125488282,25.4522C206.24051125488282,26.0922,207.24051125488282,26.0922,207.27051125488282,25.4522L207.32051125488283,25.4422Z" fill="#000000" fill-opacity="1"/></g></g><g><g><path d="M140.7004852294922,101.3621908569336L159.4504852294922,110.5021908569336Q178.34048522949217,94.4821908569336,203.64048522949219,94.54219085693359L205.08048522949218,63.222190856933594C171.4204852294922,66.4521908569336,150.02049522949218,89.02219085693359,140.7004852294922,101.3621908569336Z" fill="#1FCB5F" fill-opacity="1"/></g><g><path d="M140.44047538867187,101.79219908447266C145.92046838867188,104.46219908447266,151.40049838867188,107.13219908447266,156.88049838867187,109.80219908447265L159.19049838867187,110.92219908447265C159.41049838867187,111.03219908447267,159.61049838867189,111.00219908447266,159.80049838867188,110.84219908447265C162.12049838867188,108.87219908447265,164.90049838867188,107.10219908447266,167.59049838867188,105.51219908447266C173.97049838867187,101.73219908447265,180.88049838867187,98.78219908447267,188.08049838867188,96.98219908447265C193.1704983886719,95.71219908447266,198.39049838867186,95.03219908447267,203.64049838867186,95.03219908447267C203.9204983886719,95.03219908447267,204.13049838867187,94.80219908447265,204.14049838867186,94.53219908447265C204.30049838867188,91.01219908447266,204.47049838867187,87.48219908447265,204.63049838867187,83.96219908447266L205.41049838867187,67.10220908447266C205.47049838867187,65.80220908447265,205.53049838867187,64.51221908447266,205.59049838867188,63.212212084472654C205.6004983886719,62.962212084472654,205.3504983886719,62.682212784472654,205.09049838867188,62.71221160447266C193.09049838867188,63.882209084472656,181.49049838867188,67.64220908447265,171.03049838867187,73.63219908447266C162.59049838867188,78.46219908447266,154.94049838867187,84.64219908447265,148.25046838867186,91.69219908447266C145.42046838867188,94.67219908447265,142.76046838867188,97.81219908447267,140.2804717886719,101.09219908447265C139.89047238867187,101.60219908447266,140.76046738867188,102.10219908447266,141.14047238867187,101.59219908447265C145.93046838867187,95.26219908447266,151.43049838867188,89.45219908447265,157.50049838867187,84.33219908447265C165.61049838867189,77.50219908447265,174.83049838867188,71.93220908447266,184.81049838867187,68.30220908447265C191.34049838867188,65.92219908447265,198.1704983886719,64.37221908447266,205.09049838867188,63.70220208447266L204.59049838867188,63.20220208447266C204.43049838867188,66.72220908447265,204.26049838867186,70.25220908447265,204.10049838867187,73.77219908447266L203.32049838867187,90.63219908447266C203.26049838867186,91.93219908447266,203.20049838867186,93.22219908447266,203.14049838867186,94.52219908447266L203.64049838867186,94.02219908447266C194.66049838867187,94.02219908447266,185.76049838867186,96.00219908447266,177.4804983886719,99.43219908447266C171.96049838867188,101.72219908447266,166.66049838867187,104.59219908447265,161.80049838867188,108.06219908447267C160.88049838867187,108.72219908447266,159.96049838867188,109.38219908447266,159.10049838867187,110.11219908447265L159.71049838867188,110.03219908447267C154.2304983886719,107.36219908447265,148.75046838867186,104.69219908447266,143.27047838867188,102.02219908447265L140.96047938867187,100.90219908447266C140.38047838867186,100.62219908447265,139.88047838867186,101.48219908447265,140.46047938867187,101.76219908447266L140.44047538867187,101.79219908447266Z" fill="#000000" fill-opacity="1"/></g></g><g><g><path d="M122.84048461914062,92.66220733642578L140.69048461914062,101.36220733642578C150.01048461914064,89.02220733642578,171.41048461914062,66.46220733642579,205.07048461914064,63.22220733642578L206.81048461914062,25.44220733642578C159.7904846191406,35.63220733642578,133.56048461914062,73.15220733642579,122.84048461914062,92.66220733642578Z" fill="#F2CD0B" fill-opacity="1"/></g><g><path d="M122.59048505957031,93.09218387451172C127.79048605957031,95.63218387451172,133.0004860595703,98.16218387451171,138.20048605957032,100.70218387451172C138.95048605957032,101.06218387451172,139.70048605957032,101.43218387451172,140.4404860595703,101.79218387451172C140.71048605957031,101.92218387451172,140.95048605957032,101.84218387451172,141.1204860595703,101.61218387451171C145.9104860595703,95.28218387451172,151.4104860595703,89.47218387451171,157.4804860595703,84.35218387451172C165.5904860595703,77.52218387451171,174.8104860595703,71.95218387451172,184.7904860595703,68.32218387451172C191.32048605957033,65.94218387451173,198.1504860595703,64.39228387451172,205.07048605957033,63.72218387451172C205.3504860595703,63.69218387451172,205.5604860595703,63.51218387451172,205.57048605957033,63.22218387451172C205.77048605957032,58.97218387451172,205.96048605957031,54.722183874511714,206.1604860595703,50.472183874511714C206.4704860595703,43.69218387451172,206.7904860595703,36.91218387451172,207.1004860595703,30.13222387451172C207.1704860595703,28.572223874511717,207.24048605957032,27.00222387451172,207.32048605957033,25.442222874511717C207.3404860595703,25.102225874511717,206.99048605957032,24.892219574511717,206.69048605957033,24.962219274511718C197.9304860595703,26.872223874511718,189.4204860595703,29.83222387451172,181.36048605957032,33.77221387451172C174.0404860595703,37.35218387451172,167.1304860595703,41.73218387451172,160.70048605957032,46.73218387451172C154.7904860595703,51.33218387451172,149.2904860595703,56.45218387451172,144.2204860595703,61.97218387451172C139.7504860595703,66.83218387451171,135.6204860595703,71.99218387451171,131.8104660595703,77.39218387451172C128.7204760595703,81.77218387451171,125.85046605957031,86.30218387451171,123.22047405957031,90.96218387451172C122.9504700595703,91.44218387451171,122.68048105957031,91.92218387451172,122.4104766595703,92.41218387451171C122.10047905957032,92.97218387451171,122.96048005957032,93.48218387451172,123.27047705957031,92.91218387451171C125.74047605957031,88.42218387451172,128.4404760595703,84.04218387451172,131.33047605957032,79.81218387451172C134.96048605957031,74.51218387451172,138.9004860595703,69.42218387451172,143.17048605957032,64.61218387451171C148.02048605957032,59.142183874511716,153.2804860595703,54.032183874511716,158.9404860595703,49.40218387451172C165.1804860595703,44.30218387451172,171.9104860595703,39.80218387451172,179.0404860595703,36.06218387451172C186.8404860595703,31.97220387451172,195.1104860595703,28.822203874511718,203.6504860595703,26.69220387451172C204.74048605957032,26.42220387451172,205.8404860595703,26.162203874511718,206.94048605957033,25.93219787451172L206.3104860595703,25.452193874511718C206.1104860595703,29.702193874511718,205.9204860595703,33.95219387451172,205.7204860595703,38.20218387451172C205.4104860595703,44.98218387451172,205.0904860595703,51.76218387451172,204.7804860595703,58.54218387451172C204.71048605957031,60.10218387451172,204.64048605957032,61.67218387451172,204.5604860595703,63.23218387451172L205.0604860595703,62.73218387451172C193.0604860595703,63.90218387451172,181.46048605957031,67.66218387451173,171.0004860595703,73.65218387451172C162.5604860595703,78.48218387451172,154.9104860595703,84.66218387451173,148.2204860595703,91.71218387451172C145.39048605957032,94.69218387451171,142.73048605957032,97.83218387451171,140.2504860595703,101.11218387451171L140.9304860595703,100.93218387451172C135.73048605957032,98.39218387451172,130.5204660595703,95.86218387451171,125.32046605957031,93.32218387451172C124.57046605957031,92.96218387451172,123.82046605957031,92.59218387451172,123.08046005957031,92.23218387451172C122.5004580595703,91.95218387451172,122.0004580595703,92.81218387451172,122.58046005957031,93.09218387451172L122.59048505957031,93.09218387451172Z" fill="#000000" fill-opacity="1"/></g></g></g><g><g><path d="M155.13013681030273,120.54217198486329C165.91013681030273,121.04217198486329,175.06013681030274,112.70217198486328,175.55013681030275,101.92217198486328C176.05013681030275,91.14217198486328,167.71013681030274,81.99217198486329,156.93013681030274,81.50217198486328C154.30013681030272,81.38227198486328,151.77013681030274,81.79217198486327,149.43013681030274,82.63227198486328C147.47013681030273,71.24227198486328,137.82013681030273,62.35227198486328,125.80043681030273,61.792271984863284C123.58043681030273,61.69227198486328,121.42043681030273,61.88227198486328,119.35043681030274,62.32227198486328C116.74043681030274,53.81223198486328,109.02043681030274,47.45222498486328,99.62053681030274,47.01222988486328C91.88043681030274,46.65222898486328,84.90043681030274,50.41223198486328,80.79043681030274,56.34223198486328C79.97043681030274,56.222231984863285,79.14043681030273,56.14223198486328,78.30053681030273,56.10222198486328C65.76043681030274,55.52222198486328,55.010436810302735,64.57227198486328,53.19053681030273,76.72217198486328C53.150436810302736,76.72217198486328,53.11043681030273,76.71227198486328,53.060536810302736,76.71227198486328C42.28048681030273,76.21227198486328,33.130489810302734,84.55227198486328,32.64049151030274,95.33227198486328C32.140491810302734,106.11217198486328,40.480486810302736,115.26227198486328,51.26053681030274,115.75217198486328L155.12013681030274,120.54217198486329L155.13013681030273,120.54217198486329Z" fill="#FFFFFF" fill-opacity="1"/></g><g><path d="M155.13050888061525,121.04222341308594C164.23050888061525,121.41222341308594,172.68050888061524,115.46222341308594,175.26050888061525,106.69222341308594C177.84050888061523,97.92222341308593,173.96050888061524,88.20222341308593,166.01050888061525,83.63222341308594C160.96050888061524,80.73222341308593,154.80050888061524,80.21222341308594,149.31050888061523,82.14222341308593L149.93050888061524,82.49222341308594C148.12050888061523,72.24222341308594,140.02050888061524,63.84222341308593,129.79050888061522,61.77222341308594C126.30050888061524,61.06222341308594,122.71050888061524,61.10222341308594,119.23050888061523,61.83222341308594L119.85050888061524,62.182223413085936C117.99050888061524,56.202213413085936,113.65050888061523,51.15221341308594,107.95050888061523,48.53221341308594C101.87050888061523,45.732208413085935,94.69050888061523,45.832214413085936,88.70050888061523,48.83221341308594C85.36050888061524,50.50221341308594,82.51050888061523,53.03222341308594,80.37050888061523,56.082203413085935L80.93050888061524,55.852213413085934C75.67050888061524,55.092213413085936,70.29050888061523,55.952213413085936,65.59050888061523,58.45222341308594C61.31050888061523,60.722223413085935,57.73050888061523,64.27222341308594,55.42050888061523,68.53222341308594C54.06050888061523,71.03222341308594,53.16050888061524,73.76222341308593,52.720508880615235,76.58222341308594L53.20050888061523,76.21222341308594C51.03050888061523,75.98222341308593,48.66050888061524,76.36222341308594,46.580508880615234,76.97222341308594C44.500508880615236,77.58222341308594,42.500508880615236,78.53222341308594,40.720488880615235,79.78222341308594C37.19049888061524,82.25222341308594,34.51049888061523,85.82222341308594,33.15049388061524,89.91222341308594C30.300498880615233,98.47222341308594,33.71048888061524,108.10222341308594,41.240498880615235,113.02222341308594C44.250508880615236,114.99222341308594,47.74050888061524,116.07222341308594,51.320508880615236,116.24222341308594C51.87050888061523,116.27222341308594,52.430508880615236,116.29222341308594,52.98050888061523,116.32222341308594L62.400508880615234,116.75222341308594L77.88050888061522,117.46222341308594L96.79050888061523,118.33222341308594C103.35050888061524,118.63222341308594,109.91050888061524,118.94222341308594,116.47050888061523,119.24222341308594C122.47050888061523,119.52222341308594,128.47050888061523,119.79222341308594,134.47050888061523,120.07222341308594L148.12050888061523,120.70222341308593L154.82050888061525,121.01222341308593L155.12050888061523,121.01222341308593C155.76050888061525,121.05222341308594,155.76050888061525,120.05222341308594,155.12050888061523,120.02222341308594C153.62050888061523,119.95222341308593,152.12050888061523,119.88222341308594,150.63050888061525,119.81222341308593C146.68050888061524,119.63222341308594,142.74050888061524,119.45222341308593,138.79050888061522,119.26222341308593L122.06050888061523,118.49222341308594C115.68050888061524,118.20222341308593,109.29050888061523,117.90222341308593,102.91050888061524,117.61222341308594C96.53050888061523,117.32222341308594,90.17050888061524,117.02222341308594,83.79050888061523,116.73222341308593L67.17050888061524,115.96222341308594L55.510508880615234,115.42222341308593C53.830508880615234,115.34222341308593,52.14050888061523,115.32222341308594,50.46050888061524,115.17222341308593C41.490498880615235,114.40222341308593,34.05049888061524,107.04222341308594,33.200498880615235,98.07222341308594C32.35049788061524,89.10222341308594,38.07049888061523,80.51222341308593,46.74050888061524,77.94222341308594C48.77050888061524,77.34222341308593,51.06050888061523,76.96222341308594,53.19050888061523,77.19222341308594C53.39050888061523,77.21222341308594,53.64050888061523,77.02222341308594,53.67050888061523,76.82222341308594C55.13050888061524,67.30222341308594,62.31050888061523,59.402223413085935,71.70050888061523,57.182223413085936C74.62050888061523,56.492193413085936,77.67050888061524,56.37220341308594,80.64050888061524,56.80222341308594C80.88050888061522,56.83222341308594,81.06050888061523,56.77222341308594,81.20050888061523,56.572223413085936C84.90050888061523,51.282193413085935,90.91050888061523,47.86219341308594,97.37050888061523,47.50219741308594C103.83050888061524,47.14219641308594,109.56050888061523,49.512203413085935,113.83050888061524,53.93219341308594C116.14050888061523,56.33219341308594,117.86050888061523,59.252223413085936,118.85050888061524,62.432223413085936C118.93050888061524,62.70222341308594,119.19050888061524,62.84222341308593,119.47050888061523,62.78222341308594C125.00050888061523,61.62222341308593,130.85050888061522,62.362223413085935,135.88050888061525,64.95222341308593C140.22050888061523,67.18222341308594,143.84050888061523,70.69222341308594,146.20050888061525,74.96222341308594C147.54050888061522,77.38222341308594,148.45050888061525,80.01222341308593,148.93050888061524,82.74222341308594C148.97050888061523,82.99222341308594,149.31050888061523,83.17222341308593,149.55050888061524,83.09222341308595C154.30050888061524,81.42222341308593,159.58050888061524,81.61222341308593,164.15050888061523,83.78222341308594C167.92050888061524,85.57222341308594,171.04050888061522,88.59222341308595,172.95050888061525,92.29222341308594C176.98050888061525,100.08222341308593,174.98050888061525,109.85222341308594,168.34050888061523,115.52222341308594C164.67050888061524,118.65222341308593,159.92050888061522,120.22222341308594,155.1105088806152,120.02222341308594C154.47050888061523,119.99222341308594,154.47050888061523,120.99222341308594,155.1105088806152,121.02222341308594L155.13050888061525,121.04222341308594Z" fill="#000000" fill-opacity="1"/></g></g><g><g><g><g><path d="M111.11047666015625,78.79221354345704Q112.77047666015625,93.14221954345703,105.98047666015626,94.89221954345703C99.19047666015625,96.64221954345703,89.88046666015624,95.35221954345704,91.55047566015625,77.89221954345703L111.11047666015625,78.79221354345704Z" fill="#000000" fill-opacity="1"/></g><g><path d="M110.1104241455078,78.79221329833985C110.33052414550781,80.71221329833985,110.34042414550781,82.67222329833984,110.23042414550781,84.59221329833984C110.06042414550781,87.41224329833985,109.58052414550781,90.93224329833984,107.53042414550781,92.91224329833985C107.10052414550782,93.32224329833984,106.56042414550781,93.66224329833985,106.03042414550781,93.84224329833984C105.43042414550781,94.04224329833984,104.80052414550781,94.16224329833985,104.18042414550781,94.26224329833984C104.03042414550781,94.29224329833984,103.88042414550782,94.31224329833984,103.73042414550781,94.33224329833985C103.52042414550782,94.36224329833985,103.75042414550781,94.33224329833985,103.50042414550781,94.36224329833985C103.17042414550781,94.40224329833984,102.83052414550781,94.43224329833984,102.50042414550781,94.45224329833985C101.89042414550781,94.48224329833984,101.28042414550781,94.48224329833984,100.67042414550781,94.43224329833984C98.4104741455078,94.25224329833985,96.09047414550781,93.19224329833985,94.71046414550781,91.27224329833984C92.03047414550781,87.54224329833984,92.14045414550782,82.28220329833984,92.55046414550782,77.88221329833985L91.55046414550782,78.88221329833985C97.26046414550781,79.14220329833984,102.97042414550782,79.41221329833985,108.68042414550781,79.67220329833984C109.49042414550782,79.71219329833984,110.3004241455078,79.74221329833985,111.1104241455078,79.78220329833984C112.40042414550781,79.84220329833984,112.39042414550781,77.84220129833984,111.1104241455078,77.78220329833984C105.40042414550781,77.52220929833985,99.69046414550782,77.25220529833985,93.9804541455078,76.99221029833984C93.17045414550782,76.95221709833984,92.36045414550782,76.92220309833985,91.55046414550782,76.88220977833984C90.97045914550782,76.85221099833984,90.60046414550781,77.36220529833984,90.55046114550781,77.88221329833985C90.13046314550782,82.34221329833984,90.13046314550782,87.40224329833984,92.43046414550781,91.41224329833985C93.91046414550782,93.98224329833984,96.40046414550781,95.75224329833985,99.33046414550782,96.25224329833985C100.68042414550781,96.49224329833984,102.05042414550782,96.51224329833984,103.42042414550781,96.36224329833985C104.79042414550781,96.21224329833984,106.41042414550782,95.98224329833984,107.68042414550781,95.27224329833984C110.76042414550781,93.55224329833985,111.69042414550782,89.58224329833985,112.0804241455078,86.35221329833985C112.38042414550782,83.86220329833985,112.41042414550782,81.27221329833985,112.12042414550781,78.78220329833984C112.06042414550781,78.24221329833985,111.70042414550781,77.78220329833984,111.12042414550781,77.78220329833984C110.63042414550782,77.78220329833984,110.06042414550781,78.24221329833985,110.12042414550781,78.78220329833984L110.1104241455078,78.79221329833985Z" fill="#000000" fill-opacity="1"/></g></g><g><g><path d="M86.31044053955078,77.65221403662109Q86.94054053955078,93.8422250366211,78.42049053955078,93.9722250366211C69.90048253955078,94.0922250366211,68.46048753955078,88.01222503662109,69.49048653955079,76.8822250366211L86.31044053955078,77.6622240366211L86.31044053955078,77.65221403662109Z" fill="#000000" fill-opacity="1"/></g><g><path d="M85.3104543334961,77.65221353271484C85.3604543334961,79.07221353271484,85.2804543334961,80.51221353271484,85.1504543334961,81.92221353271485C84.9204543334961,84.34221353271485,84.41045433349609,87.19223353271485,83.27045433349609,89.41223353271485C83.0104543334961,89.92223353271484,82.57045433349609,90.63223353271485,82.3104543334961,90.95223353271484C81.9304543334961,91.42223353271484,81.4504543334961,91.88223353271485,81.08045433349609,92.13223353271485C79.9304543334961,92.91223353271485,78.85045433349609,93.02223353271484,77.40047433349609,92.95223353271484C75.95047433349609,92.88223353271485,74.64047433349609,92.59223353271484,73.5004743334961,91.88223353271485C72.5004743334961,91.26223353271484,71.8004743334961,90.36223353271484,71.2704743334961,89.19223353271485C70.62046433349609,87.76223353271484,70.3504743334961,85.88223353271485,70.26046433349609,84.22220353271484C70.12046433349609,81.77221353271484,70.2804643334961,79.31220353271485,70.5004643334961,76.87220353271485L69.5004643334961,77.87220353271485C74.40046433349609,78.10219353271485,79.30045433349609,78.32219353271485,84.2004543334961,78.55219353271484L86.3104543334961,78.65220353271485C87.60045433349609,78.71219353271485,87.5904543334961,76.71219653271484,86.3104543334961,76.65219853271485C81.41045433349609,76.42220353271485,76.51046433349609,76.20220153271484,71.6104743334961,75.97220653271485L69.5004743334961,75.87220001271484C68.9204713334961,75.84220123271484,68.55047633349609,76.35219553271484,68.50047333349609,76.87220353271485C68.1404724334961,80.86220353271484,67.76047533349609,85.30220353271484,69.12047533349609,89.15223353271485C69.62047433349609,90.56223353271484,70.3804743334961,91.91223353271485,71.53048433349609,92.89223353271484C72.7404743334961,93.92223353271484,74.23047433349609,94.53223353271484,75.8004743334961,94.78223353271484C77.37047433349609,95.03223353271484,79.2304543334961,95.14223353271484,80.80045433349609,94.52223353271484C82.2004543334961,93.97223353271484,83.3104543334961,92.99223353271485,84.1804543334961,91.78223353271484C85.8904543334961,89.41223353271485,86.5904543334961,86.36223353271484,86.9704543334961,83.51220353271485C87.2304543334961,81.58220353271484,87.3904543334961,79.60219353271485,87.32045433349609,77.64220353271484C87.27045433349609,76.36220553271484,85.27045433349609,76.35221053271485,85.32045433349609,77.64220353271484L85.3104543334961,77.65221353271484Z" fill="#000000" fill-opacity="1"/></g></g><g><g><path d="M98.830478046875,78.22220647802735C101.600478046875,83.62219747802735,104.240478046875,89.10222747802734,107.130498046875,94.43222747802734C106.770498046875,94.63222747802735,106.390498046875,94.78222747802735,105.980498046875,94.89222747802734C105.440488046875,95.03222747802735,104.870488046875,95.15222747802734,104.300488046875,95.24222747802735C101.260498046875,89.58222747802735,98.480488046875,83.76222747802734,95.510498046875,78.07222747802734L98.830478046875,78.22220647802735Z" fill="#FFFFFF" fill-opacity="1"/></g><g><path d="M93.80047241210937,77.99221035712891C96.77047241210937,83.78220855712891,99.60048241210937,89.64220855712891,102.53047241210938,95.44220855712891C101.99048241210937,95.47220855712891,101.46046241210938,95.47220855712891,100.92047241210938,95.44220855712891C97.99048241210937,89.6022085571289,95.14047241210938,83.72220855712891,92.14047241210938,77.9122085571289L93.80047241210937,77.99221035712891Z" fill="#FFFFFF" fill-opacity="1"/></g><g><path d="M73.73048400878453,77.07221221923828L76.97048637939453,77.22220621923829C78.88048637939453,81.13221221923828,80.75047637939453,85.05221221923829,82.69047637939454,88.95221221923828C83.00047637939453,89.58221221923829,83.30047637939452,90.21221221923828,83.61047637939453,90.84221221923828C83.03047637939453,91.75221221923829,82.32047637939453,92.51221221923828,81.47047637939453,93.07221221923828C81.20047637939453,92.49221221923828,80.93047637939453,91.92221221923828,80.65047637939453,91.34221221923828C78.38047637939454,86.58220221923828,76.10047637939454,81.81220221923829,73.73047637939453,77.08220672923828L73.73048400878453,77.07221221923828Z" fill="#FFFFFF" fill-opacity="1"/></g><g><path d="M78.22048607421875,87.58219207763672C79.19048607421875,89.48219207763671,80.11048607421876,91.40219207763673,81.03047607421875,93.31219207763672C80.60047607421875,93.54219207763671,80.13047607421875,93.70219207763672,79.63047607421875,93.81219207763672C78.74047607421875,91.95219207763672,77.85047607421875,90.09219207763672,76.95047607421876,88.24219207763672C75.08047607421875,84.42219207763672,73.05047607421875,80.69219207763672,71.05047607421875,76.94219207763672L72.70047607421876,77.02219387763672C74.55047607421875,80.53219207763672,76.42047607421875,84.04220207763672,78.22048607421875,87.58219207763672Z" fill="#FFFFFF" fill-opacity="1"/></g></g><g><path d="M90.73048389160157,78.87221939208985C98.25048889160156,78.58221939208984,105.75043889160156,79.34221939208985,113.24043889160157,79.85220939208985C114.52043889160156,79.94220939208985,114.52043889160156,77.94220939208985,113.24043889160157,77.85220939208985C105.75043889160156,77.34221639208984,98.25046889160156,76.58220639208984,90.73048389160157,76.87221529208985C89.45048489160156,76.92221839208985,89.44049089160156,78.92221939208984,90.73048389160157,78.87221939208985Z" fill="#000000" fill-opacity="1"/></g><g><path d="M87.99052668457031,76.82221536376953C84.60052668457031,76.22220636376953,81.14052668457032,76.05220836376954,77.70052668457032,75.89221936376953C74.2604766845703,75.73223116376953,70.91047668457031,75.50222036376952,67.53047968457031,75.74222536376953C66.2504806845703,75.83222236376953,66.2404786845703,77.83222536376954,67.53047968457031,77.74222536376953C70.83048668457032,77.50221536376954,74.15048668457031,77.71222536376953,77.46052668457031,77.87223536376953C80.77052668457031,78.03223536376953,84.17052668457032,78.16222536376954,87.46052668457031,78.74222536376953C87.99052668457031,78.83222536376954,88.54052668457031,78.60222536376953,88.69042668457031,78.04222536376953C88.82052668457031,77.56223536376953,88.53042668457032,76.90222536376953,87.99052668457031,76.81223536376953L87.99052668457031,76.82221536376953Z" fill="#000000" fill-opacity="1"/></g><g><path d="M92.64048734375,83.9622151977539C90.16048734375,82.34221619775391,86.44048734375,82.1522141977539,83.89048734375,83.7122151977539C82.79048134375,84.3822051977539,83.80049134375,86.11220519775391,84.90047734375,85.4422051977539C85.92048734375,84.8222151977539,87.06048734375,84.62219519775391,88.29047734375,84.67220519775391C88.91047734375,84.70220519775391,89.40047734375,84.7722051977539,90.05047734375,84.9621951977539C90.65047734375,85.1421851977539,91.06046734375,85.3221951977539,91.63047734375,85.68219519775391C92.08047734375,85.9721951977539,92.73048734375,85.7721951977539,93.00047734374999,85.3221951977539C93.28046734375,84.8321951977539,93.10047734375,84.2521851977539,92.64047734375,83.95220519775391L92.64048734375,83.9622151977539Z" fill="#000000" fill-opacity="1"/></g></g><g><path d="M95.18047790527343,99.39221966552735C94.82047790527344,100.14221466552735,94.43047790527343,100.65221466552734,93.80047790527344,101.19222466552735C93.36047790527344,101.56221466552735,92.59046790527344,101.96222466552734,92.04047790527343,102.16222466552735C90.56048790527343,102.68222466552734,89.22047790527344,102.77222466552735,87.63047790527344,102.71222466552734C87.09048490527344,102.69222466552735,86.63047790527344,103.19222466552735,86.63047790527344,103.71222466552734C86.63047790527344,104.27222466552735,87.09048490527344,104.69222466552735,87.63047790527344,104.71222466552734C91.19047790527344,104.86222466552735,95.23048790527343,103.89221466552735,96.92047790527343,100.41222466552735C97.16047790527344,99.92221466552735,97.05047790527344,99.33222166552734,96.56046790527344,99.04222866552735C96.12046790527344,98.78223466552734,95.43046790527343,98.91222381552734,95.19047790527344,99.40222966552734L95.18047790527343,99.39221966552735Z" fill="#000000" fill-opacity="1"/></g><g><path d="M94.41047633398438,100.10221052490235C95.32047733398437,100.40221052490234,96.26048733398437,100.58221052490234,97.15047733398437,100.95222052490234L96.91047733398437,100.85221052490235C97.01048733398437,100.89220052490235,97.11047733398438,100.94221052490235,97.20046733398438,100.98222052490235C97.45046733398438,101.10221052490235,97.70046733398438,101.16221052490235,97.97047733398438,101.08222052490234C98.20046733398438,101.02222052490234,98.45046733398438,100.84222052490234,98.57047733398437,100.62221052490234C98.81048733398437,100.17222052490234,98.71047733398437,99.49221052490235,98.21047733398437,99.25222052490234C97.16047733398437,98.75222052490234,96.04047733398437,98.53221852490235,94.94047733398438,98.17221832490235C94.44047533398438,98.00222052490234,93.83047533398438,98.36222052490234,93.71047973398437,98.87221552490234C93.58047483398437,99.42222052490234,93.88047833398437,99.92222052490234,94.41047633398438,100.10221052490235Z" fill="#000000" fill-opacity="1"/></g></g><g><path d="M130.31048556347656,104.5622189428711C131.25049256347657,105.3422189428711,132.08049256347655,106.2022189428711,132.87048256347657,107.1422189428711C133.21048256347657,107.5422089428711,132.63048256347656,106.8022189428711,132.94049256347657,107.2322189428711C133.03048256347657,107.3622189428711,133.13049256347657,107.4822189428711,133.22049256347657,107.6122189428711C133.37048256347657,107.82222894287109,133.52049256347655,108.0422089428711,133.66049256347657,108.2622189428711C134.00049256347657,108.7822189428711,134.32049256347656,109.3322189428711,134.61049256347656,109.88220894287109C134.76048256347656,110.16220894287109,134.90048256347657,110.44220894287109,135.03048256347657,110.7322189428711C135.08049256347655,110.8422189428711,135.40048256347657,111.5822289428711,135.21048256347657,111.12221894287109C135.45048256347656,111.71222894287109,135.68048256347657,112.31222894287109,135.87048256347657,112.9122289428711C136.25049256347657,114.09222894287109,136.55047256347657,115.3022289428711,136.77047256347657,116.5222289428711C136.83047256347658,116.84222894287109,136.88048256347656,117.1722289428711,136.93048256347657,117.4922289428711Q137.01048256347656,118.04222894287109,136.96048256347657,117.71222894287109C136.91047256347656,117.3822289428711,136.99048256347658,117.93222894287109,136.99048256347658,117.9422289428711C137.07048256347656,118.6022289428711,137.13048256347656,119.2722289428711,137.17047256347655,119.93222894287109C137.25047256347656,121.2222289428711,137.26046256347655,122.51222894287109,137.22047256347656,123.8022289428711C137.18048256347657,125.09222894287109,137.08047256347658,126.3822289428711,136.92047256347655,127.6722289428711C136.90046256347657,127.84222894287109,136.88048256347656,128.00222894287108,136.86047256347655,128.1722289428711C136.79046256347655,128.7322289428711,136.92047256347655,127.7422289428711,136.84047256347657,128.3022289428711C136.80047256347657,128.5822289428711,136.76046256347655,128.85222894287108,136.71046256347657,129.1322289428711C136.61046256347657,129.7822289428711,136.49046256347657,130.44222894287108,136.36046256347657,131.0822289428711C135.83046256347657,133.7322289428711,135.09045256347656,136.3422289428711,134.12045256347656,138.8622289428711C133.74045256347657,139.8422289428711,134.53045256347656,141.10222894287108,135.52044256347656,141.3222289428711C136.66044256347655,141.5822289428711,137.58044256347657,140.97222894287108,137.98045256347658,139.9222289428711C139.85040256347656,135.0522289428711,140.91040256347657,129.8422289428711,141.18040256347655,124.6422289428711C141.45050256347656,119.4422289428711,140.79040256347656,113.65222894287109,138.47044256347655,108.7022189428711C137.22044256347655,106.0422089428711,135.40043256347656,103.6122189428711,133.13044256347655,101.7422099428711C132.32045256347655,101.0822067428711,131.08044256347657,100.89220394287109,130.30044556347656,101.7422099428711C129.63044736347655,102.4822189428711,129.44044456347658,103.86220894287109,130.30044556347656,104.5722089428711L130.31048556347656,104.5622189428711Z" fill="#000000" fill-opacity="1"/></g><g><g><g><path d="M135.5704535888672,134.85221862597658C130.94047358886718,136.23222162597656,125.09048458886718,139.54222162597657,124.96047973886719,145.13219162597656C124.85047958886719,149.76219162597656,128.50047358886718,151.38219162597656,133.2104835888672,153.09219162597657Q134.4604835888672,163.38219162597656,141.6004535888672,163.45219162597655C148.2304535888672,163.51219162597656,142.1104535888672,157.07219162597656,140.1704535888672,151.09219162597657Q143.6104535888672,154.26219162597656,146.1704535888672,149.85219162597656Q149.5404535888672,152.04219162597656,151.31045358886718,145.62219162597657C153.0804535888672,139.19223162597658,146.21045358886718,131.68222162597655,135.56045358886718,134.86222862597657L135.5704535888672,134.85221862597658Z" fill="#FFFFFF" fill-opacity="1"/></g><g><path d="M135.44051630859374,134.37222305664062C131.80047630859374,135.47222805664063,127.95046630859375,137.41221805664063,125.84046630859375,140.70222805664062C123.73046830859376,143.99225805664062,123.94047530859375,148.17225805664063,126.99046630859375,150.60225805664064C128.76046630859375,152.02225805664062,130.98046630859375,152.80225805664062,133.09046630859376,153.57225805664064L132.72047630859376,153.09225805664062C133.08047630859375,156.02225805664062,134.19047630859376,159.1622580566406,136.16051630859374,161.39225805664063C137.72051630859374,163.1622580566406,139.92051630859376,164.10225805664064,142.28051630859375,163.93225805664062C143.23051630859374,163.86225805664063,144.33051630859376,163.62225805664062,144.84051630859375,162.73225805664063C145.31051630859375,161.9122580566406,145.10041630859376,160.87225805664062,144.82041630859374,160.02225805664062C143.77041630859375,156.86225805664063,141.71041630859375,154.13225805664064,140.67051630859376,150.96225805664062L139.83051630859376,151.45225805664063C140.49051630859375,152.05225805664062,141.37051630859375,152.49225805664062,142.25051630859375,152.64225805664063C144.20051630859376,152.96225805664062,145.67051630859376,151.69225805664064,146.61051630859376,150.11225805664063L145.93051630859375,150.29225805664063C146.66051630859374,150.76225805664063,147.68051630859375,150.84225805664062,148.48051630859374,150.56225805664062C150.62051630859375,149.81225805664062,151.65051630859375,146.98225805664063,151.98051630859374,144.96225805664062C152.74051630859375,140.32221805664062,149.55051630859376,136.15221805664063,145.37051630859375,134.50221205664062C142.20051630859376,133.25221205664062,138.67051630859376,133.44221505664063,135.45051630859376,134.38221705664063C134.83051630859376,134.56221005664062,135.10051630859374,135.53220805664063,135.72051630859374,135.34222805664064C140.40051630859375,133.97222905664063,145.99051630859375,134.44223005664062,149.25051630859375,138.47222805664063C150.45051630859376,139.96223805664062,151.16051630859374,141.84222805664064,151.11051630859376,143.76225805664063C151.08051630859376,144.89225805664063,150.77051630859376,146.0022580566406,150.33051630859376,147.04225805664063C149.97051630859374,147.90225805664062,149.47051630859374,148.83225805664063,148.67051630859376,149.36225805664063C148.20051630859376,149.67225805664063,147.62051630859375,149.79225805664063,147.13051630859374,149.69225805664064C146.78051630859375,149.62225805664062,146.69051630859374,149.59225805664062,146.44051630859374,149.43225805664062C146.21051630859375,149.28225805664061,145.89051630859376,149.39225805664063,145.76051630859376,149.61225805664063C144.99051630859375,150.89225805664063,143.81051630859375,152.01225805664063,142.21051630859375,151.61225805664063C141.60051630859374,151.46225805664062,140.93051630859375,151.09225805664062,140.55051630859376,150.74225805664062C140.20051630859376,150.42225805664063,139.55051630859376,150.73225805664063,139.71051630859375,151.23225805664063C140.59051630859375,153.89225805664063,142.06051630859375,156.28225805664061,143.25051630859375,158.80225805664062C143.65051630859375,159.64225805664063,144.14051630859376,160.65225805664062,144.13051630859374,161.61225805664063C144.12051630859375,162.45225805664063,143.48051630859374,162.77225805664062,142.73051630859374,162.89225805664063C138.37051630859375,163.62225805664062,135.65051630859375,159.82225805664064,134.46051630859375,156.17225805664063C134.22048630859376,155.45225805664063,134.03050630859374,154.71225805664062,133.88049630859376,153.96225805664062C133.83048630859375,153.7222580566406,133.79049630859376,153.49225805664062,133.75048630859374,153.2522580566406C133.74049630859375,153.18225805664062,133.73048630859375,153.12225805664062,133.72048630859376,153.05225805664062C133.71049630859375,152.9722580566406,133.74049630859375,153.20225805664063,133.72048630859376,153.10225805664064C133.69048630859376,152.86225805664063,133.58048630859375,152.70225805664063,133.35049630859376,152.62225805664062C130.36048630859375,151.53225805664061,126.35049630859375,150.2222580566406,125.59049630859376,146.68225805664062C124.79049730859376,142.94222805664063,127.33050630859375,139.71223805664062,130.29049630859376,137.79223805664063C131.96049630859375,136.71223805664062,133.80049630859375,135.92223805664062,135.70051630859376,135.34223805664064C136.31051630859375,135.1522380566406,136.05051630859376,134.19224505664062,135.43051630859375,134.38223305664062L135.44051630859374,134.37222305664062Z" fill="#000000" fill-opacity="1"/></g></g><g><g><path d="M138.45048522648437,147.282226328125C138.77049289648437,149.672226328125,139.87047889648437,151.792216328125,140.9504888964844,153.912236328125C141.24047889648438,154.482236328125,142.10047889648436,153.982236328125,141.81048889648437,153.412236328125C140.8204788964844,151.472226328125,139.74047889648438,149.482236328125,139.4504888964844,147.292236328125C139.4104918964844,147.022232328125,139.25048789648437,146.792236328125,138.95048489648437,146.792236328125C138.71047989648437,146.792236328125,138.4104918964844,147.022232328125,138.45048522648437,147.292236328125L138.45048522648437,147.282226328125Z" fill="#000000" fill-opacity="1"/></g><g><path d="M145.8604752001953,151.0022241845703C146.94047520019532,149.2622241845703,146.2704752001953,147.1022341845703,145.70047020019533,145.3122251845703C145.5104672001953,144.70222518457032,144.5404662001953,144.9622192345703,144.7404633001953,145.5822291845703C145.2204592001953,147.0922241845703,145.9204552001953,149.02223418457032,145.0004582001953,150.5022241845703C144.66046140019532,151.05223418457032,145.53045620019532,151.55223418457032,145.8604752001953,151.0022241845703Z" fill="#000000" fill-opacity="1"/></g><g><path d="M129.78048669042968,149.45222352539062C129.6604916904297,149.47223352539064,129.8104856904297,149.45222352539062,129.8304896904297,149.45222352539062C129.8804926904297,149.45222352539062,129.9304966904297,149.45222352539062,129.98048369042968,149.44223352539063C130.0604856904297,149.44223352539063,130.15047769042968,149.44223352539063,130.2304876904297,149.43223352539061C130.4104776904297,149.43223352539061,130.59048769042968,149.43223352539061,130.7704776904297,149.43223352539061C131.12048769042968,149.44223352539063,131.4804876904297,149.47223352539064,131.8304776904297,149.46223352539062C132.09046769042968,149.46223352539062,132.34046769042968,149.2322385253906,132.3304776904297,148.9622345253906C132.3204776904297,148.6922305253906,132.1104776904297,148.4622345253906,131.8304776904297,148.4622345253906C131.46047769042968,148.4622345253906,131.09046769042968,148.44223022539063,130.7304676904297,148.43223571539062C130.3204676904297,148.4222412153906,129.92047169042968,148.43223571539062,129.5104676904297,148.49223332539063C129.40046669042968,148.51223752539062,129.2704616904297,148.62223852539063,129.2104644904297,148.72222852539062C129.1504669204297,148.83222952539063,129.12046809042968,148.99223352539062,129.16046139042967,149.11222852539063C129.2004546904297,149.23222352539062,129.2704616904297,149.35223352539063,129.3904566904297,149.41223152539064C129.5204616904297,149.48224352539063,129.63046269042968,149.48224352539063,129.78045669042967,149.46223352539062L129.78048669042968,149.45222352539062Z" fill="#000000" fill-opacity="1"/></g><g><path d="M132.02047726132812,146.92222571777344C132.09048466132813,148.04222571777345,132.07048036132812,149.16223571777343,132.14047286132813,150.28222571777343C132.23046886132812,151.55223571777344,132.50047286132812,152.78222571777343,132.89047286132813,153.99223571777344C133.08047786132812,154.60223571777342,134.05047786132812,154.34223571777343,133.85047786132813,153.72222571777343C133.49047786132812,152.57223571777342,133.21047786132812,151.40222571777343,133.13047786132813,150.19222571777343C133.06046786132814,149.10223571777342,133.08047786132812,148.00222571777343,133.01047786132813,146.91223171777344C132.97048986132813,146.27223171777345,131.97048946132813,146.27223171777345,132.01048279132812,146.91223171777344L132.02047726132812,146.92222571777344Z" fill="#000000" fill-opacity="1"/></g></g></g></g></svg>