<svg xmlns="http://www.w3.org/2000/svg" xmlns:xlink="http://www.w3.org/1999/xlink" fill="none" version="1.1" width="136.4669189453125" height="86.629150390625" viewBox="0 0 136.4669189453125 86.629150390625"><g transform="matrix(0.9996048212051392,0.028109386563301086,-0.028109386563301086,0.9996048212051392,0.0009207492257701233,-0.06549363541671482)"><g><g><path d="M100.85995307922363,39.44999969482422C99.59995307922364,38.189999694824216,98.06995307922364,37.17999969482422,96.36995307922363,36.37999969482422C98.05995307922363,35.57999969482422,99.59995307922364,34.57999969482422,100.85995307922363,33.30999969482422C105.38995307922363,28.77999969482422,105.38995307922363,21.43999969482422,100.85995307922363,16.91999969482422C98.23995307922364,14.29999969482422,94.67995307922362,13.20999969482422,91.26995307922363,13.61999969482422C91.67995307922362,10.20999969482422,90.58995307922363,6.649999694824219,87.96995307922364,4.029999694824219C83.43995307922364,-0.5000003051757813,76.09995307922364,-0.5000003051757813,71.57995307922363,4.029999694824219C70.31995307922364,5.2899996948242185,69.30995307922363,6.819999694824219,68.50995307922364,8.519999694824218C67.70995307922362,6.8299996948242185,66.70995307922362,5.2899996948242185,65.43995307922364,4.029999694824219C60.909953079223634,-0.5000003051757813,53.56995307922364,-0.5000003051757813,49.049953079223634,4.029999694824219C46.42995307922364,6.649999694824219,45.33995307922363,10.20999969482422,45.74995307922363,13.61999969482422C42.33995307922363,13.20999969482422,38.77995307922363,14.29999969482422,36.159953079223634,16.91999969482422C31.629953079223633,21.449999694824218,31.629953079223633,28.789999694824218,36.159953079223634,33.30999969482422C37.41995307922363,34.56999969482422,38.94995307922363,35.57999969482422,40.649953079223636,36.37999969482422C38.95995307922363,37.17999969482422,37.41995307922363,38.17999969482422,36.159953079223634,39.44999969482422C31.629953079223633,43.979999694824215,31.629953079223633,51.31999969482422,36.159953079223634,55.83999969482422C38.77995307922363,58.45999969482422,42.33995307922363,59.549999694824216,45.74995307922363,59.13999969482422C45.33995307922363,62.549999694824216,46.42995307922364,66.10999969482423,49.049953079223634,68.72999969482422C53.57995307922363,73.25999969482422,60.91995307922363,73.25999969482422,65.43995307922364,68.72999969482422C66.39995307922364,67.76999969482422,67.20995307922362,66.65999969482422,67.88995307922363,65.43999969482422C66.12995307922364,72.90999969482422,61.21995307922363,81.22999969482422,61.21995307922363,82.25999969482422L75.79995307922363,82.25999969482422C75.79995307922363,81.22999969482422,70.87995307922364,72.90999969482422,69.12995307922364,65.43999969482422C69.80995307922363,66.65999969482422,70.61995307922363,67.77999969482421,71.57995307922363,68.72999969482422C76.10995307922363,73.25999969482422,83.44995307922363,73.25999969482422,87.96995307922364,68.72999969482422C90.58995307922363,66.10999969482423,91.67995307922362,62.549999694824216,91.26995307922363,59.13999969482422C94.67995307922362,59.549999694824216,98.23995307922364,58.45999969482422,100.85995307922363,55.83999969482422C105.38995307922363,51.30999969482422,105.38995307922363,43.96999969482422,100.85995307922363,39.44999969482422Z" fill="#00BF9E" fill-opacity="1"/></g><g><path d="M75.79994621276856,82.88L61.219946212768555,82.88C60.87994621276856,82.88,60.59994621276856,82.6,60.59994621276856,82.26C60.59994621276856,81.79,60.97994621276855,80.98,62.069946212768556,78.7C63.30994621276855,76.1,65.03994621276856,72.48,66.29994621276856,68.75C66.16994621276856,68.9,66.02994621276855,69.04,65.88994621276856,69.17C61.12994621276856,73.93,53.37994621276856,73.93,48.61994621276855,69.17C46.13994621276856,66.69,44.86994621276855,63.32,45.069946212768556,59.83C41.58994621276855,60.04,38.20994621276856,58.77,35.72994621276855,56.28C30.969946212768555,51.52,30.969946212768555,43.77,35.72994621276855,39.01C36.719946212768555,38.02,37.90994621276855,37.14,39.289946212768555,36.38C37.90994621276855,35.62,36.719946212768555,34.74,35.72994621276855,33.75C33.41994621276856,31.44,32.149946212768555,28.38,32.149946212768555,25.11C32.149946212768555,21.84,33.41994621276856,18.78,35.72994621276855,16.47C38.20994621276856,13.99,41.579946212768554,12.71,45.069946212768556,12.92C44.859946212768556,9.43,46.12994621276856,6.06,48.61994621276855,3.58C50.929946212768556,1.27,53.98994621276856,0,57.259946212768554,0C60.52994621276855,0,63.58994621276855,1.27,65.89994621276855,3.58C66.88994621276856,4.57,67.76994621276856,5.76,68.52994621276855,7.14C69.28994621276856,5.76,70.16994621276856,4.57,71.15994621276855,3.58C75.91994621276856,-1.18,83.66994621276856,-1.18,88.42994621276856,3.58C90.90994621276855,6.06,92.17994621276856,9.43,91.97994621276855,12.92C95.46994621276855,12.71,98.83994621276855,13.98,101.31994621276856,16.47C103.62994621276856,18.78,104.89994621276855,21.84,104.89994621276855,25.11C104.89994621276855,28.38,103.62994621276856,31.44,101.31994621276856,33.75C100.32994621276856,34.74,99.13994621276855,35.62,97.75994621276855,36.38C99.13994621276855,37.14,100.32994621276856,38.02,101.31994621276856,39.01C103.62994621276856,41.32,104.89994621276855,44.38,104.89994621276855,47.65C104.89994621276855,50.91,103.62994621276856,53.98,101.31994621276856,56.29C98.83994621276855,58.77,95.47994621276855,60.05,91.97994621276855,59.84C92.18994621276855,63.33,90.91994621276856,66.7,88.42994621276856,69.18C83.66994621276856,73.94,75.91994621276856,73.94,71.15994621276855,69.18C71.01994621276856,69.04,70.88994621276856,68.9,70.74994621276855,68.76C71.99994621276855,72.49,73.72994621276855,76.11,74.97994621276855,78.71C76.06994621276856,80.99,76.44994621276855,81.8,76.44994621276855,82.27C76.44994621276855,82.61,76.16994621276856,82.89,75.82994621276856,82.89L75.79994621276856,82.88ZM62.069946212768556,81.63L74.94994621276855,81.63C74.68994621276855,81.03,74.25994621276855,80.12,73.82994621276856,79.23C72.17994621276856,75.78,69.68994621276855,70.56,68.51994621276856,65.58C68.51994621276856,65.56,68.51994621276856,65.54,68.50994621276855,65.52C68.50994621276855,65.54,68.50994621276855,65.56,68.49994621276855,65.57C67.32994621276856,70.55,64.83994621276855,75.77,63.189946212768554,79.22C62.76994621276856,80.11,62.329946212768554,81.02,62.069946212768556,81.62L62.069946212768556,81.63ZM69.11994621276855,64.82C69.33994621276855,64.82,69.54994621276856,64.94,69.65994621276855,65.14C70.33994621276855,66.36,71.12994621276854,67.42,72.00994621276855,68.3C74.07994621276856,70.37,76.83994621276855,71.51,79.76994621276856,71.51C82.69994621276855,71.51,85.44994621276855,70.37,87.52994621276855,68.3C89.91994621276856,65.91,91.05994621276855,62.6,90.64994621276855,59.23C90.62994621276854,59.04,90.68994621276855,58.85,90.82994621276856,58.72C90.96994621276855,58.59,91.15994621276855,58.52,91.33994621276855,58.54C94.70994621276856,58.95,98.01994621276856,57.81,100.40994621276856,55.42C102.47994621276855,53.35,103.61994621276855,50.59,103.61994621276855,47.66C103.61994621276855,44.73,102.47994621276855,41.98,100.40994621276856,39.9C99.26994621276856,38.76,97.81994621276856,37.77,96.09994621276856,36.96C95.87994621276854,36.86,95.73994621276856,36.64,95.73994621276856,36.4C95.73994621276856,36.16,95.87994621276854,35.94,96.09994621276856,35.84C97.81994621276856,35.03,99.26994621276856,34.04,100.40994621276856,32.9C102.47994621276855,30.83,103.61994621276855,28.07,103.61994621276855,25.14C103.61994621276855,22.21,102.47994621276855,19.46,100.40994621276856,17.38C98.01994621276856,14.99,94.70994621276856,13.85,91.33994621276855,14.26C91.14994621276855,14.28,90.95994621276856,14.22,90.82994621276856,14.08C90.69994621276855,13.95,90.62994621276854,13.76,90.64994621276855,13.57C91.05994621276855,10.19,89.91994621276856,6.88998,87.52994621276855,4.49998C83.24994621276855,0.219986,76.28994621276856,0.219986,72.01994621276856,4.49998C70.87994621276854,5.63998,69.88994621276856,7.08998,69.07994621276856,8.80999C68.86994621276855,9.24998,68.15994621276855,9.24998,67.94994621276855,8.80999C67.13994621276856,7.08998,66.14994621276855,5.63998,65.00994621276855,4.49998C62.939946212768554,2.42999,60.179946212768556,1.28999,57.249946212768556,1.28999C54.319946212768556,1.28999,51.569946212768556,2.42999,49.48994621276856,4.49998C47.09994621276856,6.88998,45.95994621276856,10.2,46.36994621276855,13.57C46.38994621276856,13.76,46.329946212768554,13.95,46.189946212768554,14.08C46.05994621276855,14.22,45.86994621276855,14.28,45.679946212768556,14.26C42.29994621276855,13.85,38.999946212768556,14.99,36.609946212768556,17.38C34.539946212768555,19.45,33.399946212768555,22.21,33.399946212768555,25.14C33.399946212768555,28.07,34.539946212768555,30.82,36.609946212768556,32.9C37.749946212768556,34.04,39.19994621276855,35.03,40.91994621276855,35.84C41.13994621276856,35.94,41.27994621276856,36.16,41.27994621276856,36.4C41.27994621276856,36.64,41.13994621276856,36.86,40.91994621276855,36.96C39.19994621276855,37.77,37.749946212768556,38.76,36.609946212768556,39.9C32.329946212768554,44.18,32.329946212768554,51.14,36.609946212768556,55.41C38.999946212768556,57.8,42.30994621276855,58.94,45.679946212768556,58.53C45.86994621276855,58.51,46.05994621276855,58.57,46.189946212768554,58.71C46.319946212768556,58.84,46.38994621276856,59.03,46.36994621276855,59.22C45.95994621276856,62.59,47.09994621276856,65.9,49.48994621276856,68.29C53.76994621276856,72.57,60.72994621276855,72.57,64.99994621276855,68.29C65.86994621276855,67.42,66.65994621276855,66.35,67.34994621276856,65.13C67.49994621276855,64.86,67.82994621276856,64.74,68.11994621276855,64.85C68.33994621276855,64.93,68.47994621276855,65.13,68.50994621276855,65.34C68.53994621276856,65.12,68.68994621276855,64.93,68.89994621276855,64.85C68.96994621276855,64.82,69.04994621276856,64.81,69.12994621276854,64.81L69.11994621276855,64.82Z" fill="#000000" fill-opacity="1"/></g></g><g><g><g><path d="M68.50991795654296,52.45001013183594C62.78995795654297,52.45001013183594,57.739957956542966,50.310000131835935,55.33995795654297,46.869990131835934C54.31996195654297,45.410000131835936,54.66996005654297,43.399990131835935,56.12995795654297,42.379997131835935C57.58995795654297,41.36000013183594,58.81995795654297,41.79999542183594,60.61995795654297,43.170000131835934C62.27995795654297,44.43999013183594,64.44995795654297,45.99000013183594,68.50991795654296,45.99000013183594C72.56991795654297,45.99000013183594,74.72991795654298,44.43999013183594,76.38991795654297,43.160000131835936C78.18991795654297,41.77999873183594,79.41991795654297,41.33999613183594,80.87991795654297,42.359993131835935C82.33991795654296,43.37999013183594,82.69991795654298,45.38999013183594,81.67991795654297,46.84999013183594C79.26991795654297,50.289990131835935,74.22991795654298,52.430010131835935,68.50991795654296,52.430010131835935L68.50991795654296,52.45001013183594Z" fill="#000000" fill-opacity="1"/></g><g><path d="M68.49996784667968,53.07996893310547C62.57995784667969,53.07996893310547,57.339947846679685,50.83999893310547,54.81995384667969,47.239988933105465C53.599952846679685,45.49998893310547,54.02995304667969,43.09998893310547,55.769947846679685,41.87998993310547C57.57994784667969,40.60999293310547,59.10994784667969,41.24999233310547,60.999957846679685,42.68998893310547C62.489947846679684,43.82998893310547,64.52996784667968,45.379988933105466,68.49996784667968,45.379988933105466C72.47996784667968,45.379988933105466,74.51996784667969,43.81998893310547,76.00996784667969,42.67998893310547C77.8899678466797,41.239990233105466,79.42996784667969,40.59999093310547,81.23996784667969,41.86999493310547C82.0799678466797,42.45998893310547,82.64996784667969,43.33999893310547,82.8299678466797,44.34999893310547C83.00996784667969,45.359998933105466,82.77996784667968,46.37999893310547,82.18996784667969,47.22999893310547C79.66996784667968,50.83999893310547,74.42996784667969,53.07996893310547,68.50996784667969,53.07996893310547L68.49996784667968,53.07996893310547ZM68.50996784667969,51.82996893310547L68.50996784667969,52.44996893310547L68.50996784667969,51.82996893310547C74.02996784667968,51.82996893310547,78.87996784667969,49.78998893310547,81.16996784667968,46.50999893310547C81.56996784667969,45.93999893310547,81.71996784667968,45.24998893310547,81.59996784667969,44.55999893310547C81.47996784667968,43.86999893310547,81.09996784667969,43.27999893310547,80.52996784667968,42.87999893310547C79.42996784667969,42.11000093310547,78.55996784667968,42.29999893310547,76.76996784667969,43.65999893310547C75.22996784667968,44.83999893310547,72.90996784667969,46.60998893310547,68.50996784667969,46.60998893310547C64.10994784667969,46.60998893310547,61.78994784667969,44.82999893310547,60.24994784667969,43.65999893310547C58.46994784667969,42.29999893310547,57.589947846679685,42.11999493310547,56.48994784667969,42.87999893310547C55.30994784667969,43.69999893310547,55.02994584667969,45.32999893310547,55.84994784667969,46.50999893310547C58.13994784667969,49.78998893310547,62.989947846679684,51.81996893310547,68.50996784667969,51.81996893310547L68.50996784667969,51.82996893310547Z" fill="#000000" fill-opacity="1"/></g></g><g><g><path d="M54.43995361328125,38.92999328613281C54.43995361328125,40.529993286132814,52.69996361328125,41.819993286132814,50.53995361328125,41.819993286132814C48.37995361328125,41.819993286132814,46.63995361328125,40.51999328613282,46.63995361328125,38.92999328613281C46.63995361328125,37.33999328613281,48.37995361328125,36.03999328613281,50.53995361328125,36.03999328613281C52.69996361328125,36.03999328613281,54.43995361328125,37.33999328613281,54.43995361328125,38.92999328613281Z" fill="#FF7FCB" fill-opacity="1"/></g><g><path d="M50.539958496093746,42.44999366210938C48.04995849609375,42.44999366210938,46.01995849609375,40.86999366210937,46.01995849609375,38.93000366210938C46.01995849609375,36.99000366210937,48.04995849609375,35.410003662109375,50.539958496093746,35.410003662109375C53.02994849609375,35.410003662109375,55.05994849609375,36.99000366210937,55.05994849609375,38.93000366210938C55.05994849609375,40.86999366210937,53.02994849609375,42.44999366210938,50.539958496093746,42.44999366210938ZM50.539958496093746,36.65999366210937C48.76995849609375,36.65999366210937,47.26995849609375,37.69999366210938,47.26995849609375,38.929993662109375C47.26995849609375,40.159983662109376,48.76995849609375,41.19999366210938,50.539958496093746,41.19999366210938C52.30994849609375,41.19999366210938,53.80994849609375,40.159983662109376,53.80994849609375,38.929993662109375C53.80994849609375,37.69999366210938,52.30994849609375,36.65999366210937,50.539958496093746,36.65999366210937Z" fill="#000000" fill-opacity="1"/></g></g><g><g><path d="M90.36995391845703,38.92999328613281C90.36995391845703,40.529993286132814,88.62996391845704,41.819993286132814,86.46995391845704,41.819993286132814C84.30995391845703,41.819993286132814,82.56995391845703,40.51999328613282,82.56995391845703,38.92999328613281C82.56995391845703,37.33999328613281,84.30995391845703,36.03999328613281,86.46995391845704,36.03999328613281C88.62996391845704,36.03999328613281,90.36995391845703,37.33999328613281,90.36995391845703,38.92999328613281Z" fill="#FF7FCB" fill-opacity="1"/></g><g><path d="M86.46995880126953,42.44999366210938C83.97995880126953,42.44999366210938,81.94995880126953,40.86999366210937,81.94995880126953,38.93000366210938C81.94995880126953,36.99000366210937,83.97995880126953,35.410003662109375,86.46995880126953,35.410003662109375C88.95994880126953,35.410003662109375,90.98994880126953,36.99000366210937,90.98994880126953,38.93000366210938C90.98994880126953,40.86999366210937,88.95994880126953,42.44999366210938,86.46995880126953,42.44999366210938ZM86.46995880126953,36.65999366210937C84.69995880126953,36.65999366210937,83.19995880126953,37.69999366210938,83.19995880126953,38.929993662109375C83.19995880126953,40.159983662109376,84.69995880126953,41.19999366210938,86.46995880126953,41.19999366210938C88.23994880126953,41.19999366210938,89.73994880126953,40.159983662109376,89.73994880126953,38.929993662109375C89.73994880126953,37.69999366210938,88.23994880126953,36.65999366210937,86.46995880126953,36.65999366210937Z" fill="#000000" fill-opacity="1"/></g></g><g><g><g><path d="M68.50995574951172,46.76999690039062Q76.61995574951172,43.53999290039062,76.61995574951172,51.53999290039062C76.61995574951172,56.01997290039063,72.98995574951172,59.64997290039062,68.50995574951172,59.64997290039062C64.02995574951171,59.64997290039062,60.39995574951172,56.01997290039063,60.39995574951172,51.53999290039062Q60.39995574951172,43.53999290039062,68.50995574951172,46.76999690039062Z" fill="#FF5B22" fill-opacity="1"/></g><g><path d="M68.50995300292969,60.27996400146485C63.699963002929685,60.27996400146485,59.77995300292969,56.359964001464846,59.77995300292969,51.54998400146484C59.77995300292969,49.08998400146484,60.509956002929684,47.34999400146484,61.94995300292969,46.36998700146484C64.25995300292969,44.79998800146485,67.59995300292968,45.79998800146485,68.50995300292969,46.10998500146484C69.41995300292969,45.78998600146485,72.75995300292969,44.79998800146485,75.06995300292968,46.36998700146484C76.50995300292969,47.34999400146484,77.2399530029297,49.08998400146484,77.2399530029297,51.54998400146484C77.2399530029297,56.359964001464846,73.31995300292968,60.27996400146485,68.50995300292969,60.27996400146485ZM65.0899630029297,46.74999400146484C64.23996300292968,46.74999400146484,63.359953002929686,46.909994001464845,62.63996300292969,47.39999400146485C61.559963002929685,48.129994001464844,61.019963002929686,49.52999400146484,61.019963002929686,51.549994001464846C61.019963002929686,55.679964001464846,64.37996300292968,59.039964001464845,68.50995300292969,59.039964001464845C72.63995300292969,59.039964001464845,75.99995300292969,55.679964001464846,75.99995300292969,51.549994001464846C75.99995300292969,49.52999400146484,75.44995300292969,48.13999400146484,74.37995300292968,47.39999400146485C72.28995300292969,45.97999600146484,68.77995300292969,47.339994001464845,68.74995300292969,47.34999400146484L68.51995300292968,47.43998400146484L68.28994300292969,47.34999400146484Q66.73994300292969,46.74999400146484,65.10994300292968,46.74999400146484L65.0899630029297,46.74999400146484Z" fill="#000000" fill-opacity="1"/></g></g><g><path d="M68.50995661328125,54.95998840332031C68.16995961328125,54.95998840332031,67.88995361328125,54.67998840332031,67.88995361328125,54.33998840332031L67.88995361328125,46.77999140332031C67.88995361328125,46.43999440332031,68.16995261328125,46.15998840332031,68.50995661328125,46.15998840332031C68.84996061328125,46.15998840332031,69.12996361328125,46.43998740332031,69.12996361328125,46.77999140332031L69.12996361328125,54.33998840332031C69.12996361328125,54.67998840332031,68.84996061328125,54.95998840332031,68.50995661328125,54.95998840332031Z" fill="#000000" fill-opacity="1"/></g></g><g><g><g><g><g><path d="M56.62995910644531,23.810000610351562C56.62995910644531,21.630000610351562,58.399959106445316,19.860000610351562,60.579959106445315,19.860000610351562C62.759959106445315,19.860000610351562,64.52994910644532,21.630000610351562,64.52994910644532,23.810000610351562L64.52994910644532,31.720000610351562C64.52994910644532,33.90000061035156,62.759959106445315,35.670000610351565,60.579959106445315,35.670000610351565C58.399959106445316,35.670000610351565,56.62995910644531,33.90000061035156,56.62995910644531,31.720000610351562L56.62995910644531,23.810000610351562Z" fill="#FFFFFF" fill-opacity="1"/></g><g><path d="M60.57995422363281,36.28998596191406C58.05996422363281,36.28998596191406,55.99995422363281,34.23998596191406,55.99995422363281,31.709985961914064L55.99995422363281,23.79998596191406C55.99995422363281,21.27999596191406,58.04995422363281,19.219985961914062,60.57995422363281,19.219985961914062C63.10995422363281,19.219985961914062,65.15995422363281,21.269985961914063,65.15995422363281,23.79998596191406L65.15995422363281,31.709985961914064C65.15995422363281,34.22998596191406,63.10995422363281,36.28998596191406,60.57995422363281,36.28998596191406ZM60.57995422363281,20.479995961914064C58.73996422363281,20.479995961914064,57.24995422363281,21.969995961914062,57.24995422363281,23.809995961914062L57.24995422363281,31.719985961914062C57.24995422363281,33.559985961914066,58.739954223632814,35.04998596191406,60.57995422363281,35.04998596191406C62.41996422363281,35.04998596191406,63.90995422363281,33.559985961914066,63.90995422363281,31.719985961914062L63.90995422363281,23.809995961914062C63.90995422363281,21.97000596191406,62.41996422363281,20.479995961914064,60.57995422363281,20.479995961914064Z" fill="#000000" fill-opacity="1"/></g></g><g><g><path d="M64.03995063232422,24.009997253417968C64.03995063232422,22.55999725341797,62.85995063232422,21.37999725341797,61.40996063232422,21.37999725341797C59.95996063232422,21.37999725341797,58.77996063232422,22.55999725341797,58.77996063232422,24.009997253417968L58.77996063232422,25.259997253417968L61.40996063232422,26.63998725341797L58.77996063232422,27.959987253417967L58.77996063232422,29.26998725341797C58.77996063232422,30.71998725341797,59.95996063232422,31.89999725341797,61.40996063232422,31.89999725341797C62.85995063232422,31.89999725341797,64.03995063232422,30.71998725341797,64.03995063232422,29.26998725341797L64.03995063232422,24.009997253417968Z" fill="#000000" fill-opacity="1"/></g><g><path d="M61.40995788574219,32.52999450683593C59.61995788574219,32.52999450683593,58.15995788574219,31.06999450683594,58.15995788574219,29.279994506835937L58.15995788574219,27.96999450683594C58.15995788574219,27.729994506835936,58.28995488574219,27.519994506835936,58.49995388574219,27.409994506835936L60.04995788574219,26.62999450683594L58.48995988574219,25.809994506835938C58.279960885742184,25.69999450683594,58.15995788574219,25.489994506835938,58.15995788574219,25.259994506835938L58.15995788574219,24.009994506835938C58.15995788574219,22.21999450683594,59.61995788574219,20.759994506835938,61.40995788574219,20.759994506835938C63.19995788574219,20.759994506835938,64.65995788574219,22.21999450683594,64.65995788574219,24.009994506835938L64.65995788574219,29.269994506835936C64.65995788574219,31.059994506835938,63.19995788574219,32.519994506835936,61.40995788574219,32.519994506835936L61.40995788574219,32.52999450683593ZM59.39995788574219,28.349994506835937L59.39995788574219,29.279994506835937C59.39995788574219,30.38999450683594,60.29995788574219,31.28999450683594,61.40995788574219,31.28999450683594C62.51995788574219,31.28999450683594,63.419957885742186,30.38999450683594,63.419957885742186,29.279994506835937L63.419957885742186,24.01998450683594C63.419957885742186,22.909984506835936,62.51995788574219,22.009984506835938,61.40995788574219,22.009984506835938C60.29995788574219,22.009984506835938,59.39995788574219,22.909984506835936,59.39995788574219,24.01998450683594L59.39995788574219,24.89998450683594L61.69995788574219,26.099984506835938C61.90995788574219,26.209984506835937,62.03995788574219,26.419984506835938,62.029957885742185,26.659984506835936C62.029957885742185,26.889984506835937,61.899967885742186,27.10997450683594,61.689967885742185,27.209984506835937L59.399967885742186,28.359984506835936L59.39995788574219,28.349994506835937Z" fill="#000000" fill-opacity="1"/></g></g></g><g><path d="M64.70995842529297,18.869990610351564C64.46995842529297,18.869990610351564,64.23995842529297,18.730000610351563,64.13995842529297,18.49000061035156C63.52995842529297,17.040000610351562,62.11996842529297,16.10000061035156,60.54996842529297,16.10000061035156C58.97996842529297,16.10000061035156,57.56995842529297,17.040000610351562,56.95996842529297,18.49000061035156C56.82996842529297,18.810000610351562,56.45996842529297,18.960000610351564,56.14997142529297,18.820000610351563C55.829971325292966,18.69000061035156,55.67996982529297,18.320000610351563,55.81996922529297,18.01000061035156C56.61997242529297,16.10000061035156,58.47996842529297,14.860000610351562,60.559968425292965,14.860000610351562C62.63995842529297,14.860000610351562,64.48996842529297,16.10000061035156,65.29996842529297,18.01000061035156C65.42995842529297,18.33000061035156,65.27996842529296,18.69000061035156,64.96995842529297,18.820000610351563C64.88995842529297,18.850000610351564,64.80995842529296,18.87000061035156,64.72996842529297,18.87000061035156L64.70995842529297,18.869990610351564Z" fill="#000000" fill-opacity="1"/></g></g><g><g><g><g><path d="M71.87995910644531,24.159999084472656C71.87995910644531,21.979999084472656,73.64995910644531,20.209999084472656,75.82995910644532,20.209999084472656C78.00995910644531,20.209999084472656,79.77994910644532,21.979999084472656,79.77994910644532,24.159999084472656L79.77994910644532,32.069999084472656C79.77994910644532,34.249999084472655,78.00995910644531,36.01999908447266,75.82995910644532,36.01999908447266C73.64995910644531,36.01999908447266,71.87995910644531,34.249999084472655,71.87995910644531,32.069999084472656L71.87995910644531,24.159999084472656Z" fill="#FFFFFF" fill-opacity="1"/></g><g><path d="M75.82995422363281,36.63999206542969C73.30996422363282,36.63999206542969,71.24995422363281,34.58999206542968,71.24995422363281,32.05999206542969L71.24995422363281,24.149992065429686C71.24995422363281,21.630002065429686,73.29995422363281,19.569992065429688,75.82995422363281,19.569992065429688C78.35995422363281,19.569992065429688,80.40995422363281,21.619992065429688,80.40995422363281,24.149992065429686L80.40995422363281,32.05999206542969C80.40995422363281,34.579992065429686,78.35995422363281,36.63999206542969,75.82995422363281,36.63999206542969ZM75.82995422363281,20.82999206542969C73.98996422363281,20.82999206542969,72.49995422363281,22.319992065429688,72.49995422363281,24.159992065429687L72.49995422363281,32.06999206542969C72.49995422363281,33.90999206542969,73.98995422363281,35.399992065429686,75.82995422363281,35.399992065429686C77.66996422363282,35.399992065429686,79.15995422363281,33.90999206542969,79.15995422363281,32.06999206542969L79.15995422363281,24.159992065429687C79.15995422363281,22.319992065429688,77.66996422363282,20.829982065429686,75.82995422363281,20.82999206542969Z" fill="#000000" fill-opacity="1"/></g></g><g><g><path d="M79.42995002197266,24.009997253417968C79.42995002197266,22.55999725341797,78.24995002197265,21.37999725341797,76.79996002197265,21.37999725341797C75.34996002197266,21.37999725341797,74.16996002197266,22.55999725341797,74.16996002197266,24.009997253417968L74.16996002197266,25.259997253417968L76.79996002197265,26.63998725341797L74.16996002197266,27.959987253417967L74.16996002197266,29.26998725341797C74.16996002197266,30.71998725341797,75.34996002197266,31.89999725341797,76.79996002197265,31.89999725341797C78.24995002197265,31.89999725341797,79.42995002197266,30.71998725341797,79.42995002197266,29.26998725341797L79.42995002197266,24.009997253417968Z" fill="#000000" fill-opacity="1"/></g><g><path d="M76.79995727539062,32.52999450683593C75.00995727539062,32.52999450683593,73.54995727539062,31.06999450683594,73.54995727539062,29.279994506835937L73.54995727539062,27.96999450683594C73.54995727539062,27.729994506835936,73.67995427539063,27.519994506835936,73.88995327539062,27.409994506835936L75.43995727539063,26.62999450683594L73.87995927539062,25.809994506835938C73.66996027539062,25.69999450683594,73.54995727539062,25.489994506835938,73.54995727539062,25.259994506835938L73.54995727539062,24.009994506835938C73.54995727539062,22.21999450683594,75.00995727539062,20.759994506835938,76.79995727539062,20.759994506835938C78.58995727539063,20.759994506835938,80.04995727539062,22.21999450683594,80.04995727539062,24.009994506835938L80.04995727539062,29.269994506835936C80.04995727539062,31.059994506835938,78.58995727539063,32.519994506835936,76.79995727539062,32.519994506835936L76.79995727539062,32.52999450683593ZM74.78995727539062,28.349994506835937L74.78995727539062,29.279994506835937C74.78995727539062,30.38999450683594,75.68995727539063,31.28999450683594,76.79995727539062,31.28999450683594C77.90995727539062,31.28999450683594,78.80995727539063,30.38999450683594,78.80995727539063,29.279994506835937L78.80995727539063,24.01998450683594C78.80995727539063,22.909984506835936,77.90995727539062,22.009984506835938,76.79995727539062,22.009984506835938C75.68995727539063,22.009984506835938,74.78995727539062,22.909984506835936,74.78995727539062,24.01998450683594L74.78995727539062,24.89998450683594L77.08995727539063,26.099984506835938C77.29995727539062,26.209984506835937,77.42995727539062,26.419984506835938,77.41995727539063,26.659984506835936C77.41995727539063,26.889984506835937,77.28996727539062,27.10997450683594,77.07996727539063,27.209984506835937L74.78996727539062,28.359984506835936L74.78995727539062,28.349994506835937Z" fill="#000000" fill-opacity="1"/></g></g></g><g><path d="M80.02995812011719,19.219989084472658C79.78995812011719,19.219989084472658,79.55995812011719,19.079999084472657,79.4599581201172,18.839999084472655C78.8499581201172,17.389999084472656,77.43996812011719,16.449999084472655,75.86996812011719,16.449999084472655C74.29996812011719,16.449999084472655,72.88995812011719,17.389999084472656,72.27996812011719,18.839999084472655C72.1499681201172,19.159999084472656,71.77996812011719,19.309999084472658,71.4699711201172,19.169999084472657C71.14997102011719,19.039999084472655,70.99996952011719,18.669999084472657,71.13996892011718,18.359999084472655C71.93997212011719,16.449999084472655,73.79996812011719,15.209999084472656,75.87996812011718,15.209999084472656C77.9599581201172,15.209999084472656,79.80996812011719,16.449999084472655,80.61996812011719,18.359999084472655C80.74995812011718,18.679999084472655,80.59996812011718,19.039999084472655,80.28995812011719,19.169999084472657C80.2099581201172,19.19999908447266,80.12995812011718,19.219999084472654,80.04996812011719,19.219999084472654L80.02995812011719,19.219989084472658Z" fill="#000000" fill-opacity="1"/></g></g></g></g><g><g><g><path d="M15.5799552154541,38.9299951171875C12.039955215454102,40.4599951171875,10.799955215454101,41.6999851171875,9.2699552154541,45.2399951171875C7.739955215454102,41.6999851171875,6.499955215454102,40.4599951171875,2.9599552154541016,38.9299951171875C6.499955215454102,37.3999951171875,7.739955215454102,36.1599951171875,9.2699552154541,32.6199951171875C10.799955215454101,36.1599951171875,12.039955215454102,37.3999951171875,15.5799552154541,38.9299951171875Z" fill="#FFFFFF" fill-opacity="1"/></g><g><path d="M9.269956054687501,45.870001525878905C9.019956054687501,45.870001525878905,8.799956054687499,45.72000152587891,8.699956054687501,45.49000152587891C7.2299560546875,42.090001525878904,6.109956054687499,40.97000152587891,2.7099550546874998,39.50000152587891C2.4799560546875,39.400001525878906,2.3299560546875,39.18000152587891,2.3299560546875,38.93000152587891C2.3299560546875,38.68000152587891,2.4799560546875,38.46000152587891,2.7099550546874998,38.36000152587891C6.109956054687499,36.89000152587891,7.2299560546875,35.770001525878904,8.699956054687501,32.37000252587891C8.8999560546875,31.910003525878906,9.6499560546875,31.910003525878906,9.8399560546875,32.37000252587891C11.3099560546875,35.770001525878904,12.4299560546875,36.89000152587891,15.8299560546875,38.36000152587891C16.0599560546875,38.46000152587891,16.209956054687503,38.68000152587891,16.209956054687503,38.93000152587891C16.209956054687503,39.18000152587891,16.0599560546875,39.400001525878906,15.8299560546875,39.50000152587891C12.4299560546875,40.97000152587891,11.3099560546875,42.090001525878904,9.8399560546875,45.49000152587891C9.7399560546875,45.72000152587891,9.519956054687501,45.870001525878905,9.269956054687501,45.870001525878905ZM4.439956054687499,38.929991525878904C6.8399560546875,40.1199915258789,8.0799560546875,41.359991525878904,9.269956054687501,43.760001525878906C10.4599560546875,41.359991525878904,11.6999560546875,40.1199915258789,14.0999560546875,38.929991525878904C11.6999560546875,37.73999152587891,10.4599560546875,36.499991525878904,9.269956054687501,34.099991525878906C8.0799560546875,36.499991525878904,6.8399560546875,37.73999152587891,4.439956054687499,38.929991525878904Z" fill="#000000" fill-opacity="1"/></g></g><g><g><path d="M22.209956054687503,10.269992523193359C19.2999560546875,11.52999252319336,18.2799560546875,12.54999252319336,17.0199560546875,15.459992523193359C15.7599560546875,12.54999252319336,14.7399560546875,11.52999252319336,11.8299560546875,10.269992523193359C14.7399560546875,9.00999252319336,15.7599560546875,7.98999252319336,17.0199560546875,5.089992523193359C18.2799560546875,7.9999925231933595,19.2999560546875,9.019992523193359,22.209956054687503,10.269992523193359Z" fill="#FFFFFF" fill-opacity="1"/></g><g><path d="M17.029955444335936,16.0799951171875C16.779955444335936,16.0799951171875,16.559955444335937,15.9299951171875,16.45995544433594,15.6999951171875C15.269955444335938,12.9399951171875,14.359955444335938,12.0299951171875,11.599954444335937,10.839995117187499C11.369955444335938,10.739995117187501,11.219955444335938,10.5199951171875,11.219955444335938,10.2699951171875C11.219955444335938,10.0199951171875,11.369955444335938,9.7999951171875,11.599954444335937,9.6999951171875C14.359955444335938,8.5099951171875,15.269955444335938,7.5999951171875,16.45995544433594,4.8399921171875C16.65995544433594,4.3799931171875,17.40995544433594,4.3799931171875,17.599955444335937,4.8399921171875C18.789955444335938,7.5999951171875,19.699955444335938,8.5099951171875,22.45995544433594,9.6999951171875C22.689955444335936,9.7999951171875,22.839955444335935,10.0199951171875,22.839955444335935,10.2699951171875C22.839955444335935,10.5199951171875,22.689955444335936,10.739995117187501,22.45995544433594,10.839995117187499C19.699955444335938,12.0299951171875,18.789955444335938,12.9399951171875,17.599955444335937,15.6999951171875C17.49995544433594,15.9299951171875,17.279955444335936,16.0799951171875,17.029955444335936,16.0799951171875ZM13.309955444335937,10.2699951171875C15.109955444335938,11.1999951171875,16.099955444335937,12.1899951171875,17.029955444335936,13.9899951171875C17.95995544433594,12.1899951171875,18.949955444335938,11.1999951171875,20.74995544433594,10.2699951171875C18.949955444335938,9.339995117187499,17.95995544433594,8.3499951171875,17.029955444335936,6.5499951171875C16.099955444335937,8.3499951171875,15.109955444335938,9.339995117187499,13.309955444335937,10.2699951171875Z" fill="#000000" fill-opacity="1"/></g></g><g><g><path d="M22.209956054687503,68.06998962402344C19.2999560546875,66.80998962402344,18.2799560546875,65.78998962402343,17.0199560546875,62.87998962402344C15.7599560546875,65.78998962402343,14.7399560546875,66.80998962402344,11.8299560546875,68.06998962402344C14.7399560546875,69.32998962402344,15.7599560546875,70.34998962402344,17.0199560546875,73.25998962402343C18.2799560546875,70.34998962402344,19.2999560546875,69.32998962402344,22.209956054687503,68.06998962402344Z" fill="#FFFFFF" fill-opacity="1"/></g><g><path d="M17.029955444335936,73.86999603271485C16.779955444335936,73.86999603271485,16.559955444335937,73.71999603271485,16.45995544433594,73.48999603271484C15.269955444335938,70.72999603271484,14.359955444335938,69.81999603271484,11.599954444335937,68.62999603271484C11.369955444335938,68.52999603271485,11.219955444335938,68.30999603271485,11.219955444335938,68.05999603271485C11.219955444335938,67.80999603271485,11.369955444335938,67.58999603271485,11.599954444335937,67.48999603271484C14.359955444335938,66.29999603271484,15.269955444335938,65.38999603271485,16.45995544433594,62.62999703271485C16.65995544433594,62.169998032714844,17.40995544433594,62.169998032714844,17.599955444335937,62.62999703271485C18.789955444335938,65.38999603271485,19.699955444335938,66.29999603271484,22.45995544433594,67.48999603271484C22.689955444335936,67.58999603271485,22.839955444335935,67.80999603271485,22.839955444335935,68.05999603271485C22.839955444335935,68.30999603271485,22.689955444335936,68.52999603271485,22.45995544433594,68.62999603271484C19.699955444335938,69.81999603271484,18.789955444335938,70.72999603271484,17.599955444335937,73.48999603271484C17.49995544433594,73.71999603271485,17.279955444335936,73.86999603271485,17.029955444335936,73.86999603271485ZM13.309955444335937,68.06999603271484C15.109955444335938,68.99999603271485,16.099955444335937,69.98998603271484,17.029955444335936,71.78999603271484C17.95995544433594,69.98998603271484,18.949955444335938,68.99999603271485,20.74995544433594,68.06999603271484C18.949955444335938,67.13999603271485,17.95995544433594,66.14999603271484,17.029955444335936,64.34998603271484C16.099955444335937,66.14999603271484,15.109955444335938,67.13999603271485,13.309955444335937,68.06999603271484Z" fill="#000000" fill-opacity="1"/></g></g></g><g><g><g><path d="M123.25996398925781,38.9299951171875C126.79995398925782,40.4599951171875,128.0399639892578,41.6999851171875,129.56996398925781,45.2399951171875C131.09996398925782,41.6999851171875,132.33996398925783,40.4599951171875,135.87996398925782,38.9299951171875C132.33996398925783,37.3999951171875,131.09996398925782,36.1599951171875,129.56996398925781,32.6199951171875C128.0399639892578,36.1599951171875,126.79995398925782,37.3999951171875,123.25996398925781,38.9299951171875Z" fill="#FFFFFF" fill-opacity="1"/></g><g><path d="M129.5799583544922,45.870001525878905C129.3299583544922,45.870001525878905,129.1099583544922,45.72000152587891,129.0099483544922,45.49000152587891C127.53994835449218,42.090001525878904,126.41994835449219,40.97000152587891,123.01994335449218,39.50000152587891C122.78994735449218,39.400001525878906,122.63993835449219,39.18000152587891,122.63993835449219,38.93000152587891C122.63993835449219,38.68000152587891,122.7899323544922,38.46000152587891,123.01994335449218,38.36000152587891C126.41993835449219,36.89000152587891,127.53994835449218,35.770001525878904,129.0099483544922,32.37000252587891C129.20994835449218,31.910003525878906,129.95994835449218,31.910003525878906,130.14994835449218,32.37000252587891C131.61994835449218,35.770001525878904,132.73993835449218,36.89000152587891,136.1399383544922,38.36000152587891C136.36993835449218,38.46000152587891,136.51993835449218,38.68000152587891,136.51993835449218,38.93000152587891C136.51993835449218,39.18000152587891,136.36993835449218,39.400001525878906,136.1399383544922,39.50000152587891C132.73993835449218,40.97000152587891,131.61994835449218,42.090001525878904,130.14994835449218,45.49000152587891C130.04993835449218,45.72000152587891,129.82993835449219,45.870001525878905,129.5799583544922,45.870001525878905ZM124.7499583544922,38.929991525878904C127.14994835449218,40.1199915258789,128.3899583544922,41.359991525878904,129.5799583544922,43.760001525878906C130.7699583544922,41.359991525878904,132.0099483544922,40.1199915258789,134.4099383544922,38.929991525878904C132.00996835449217,37.73999152587891,130.7699583544922,36.499991525878904,129.5799583544922,34.099991525878906C128.3899583544922,36.499991525878904,127.14996835449219,37.73999152587891,124.7499583544922,38.929991525878904Z" fill="#000000" fill-opacity="1"/></g></g><g><g><path d="M116.62995910644531,10.269992523193359C119.53995910644531,11.52999252319336,120.55994910644532,12.54999252319336,121.81995910644531,15.459992523193359C123.07995910644532,12.54999252319336,124.09995910644531,11.52999252319336,126.99995910644532,10.269992523193359C124.08994910644532,9.00999252319336,123.06995910644531,7.98999252319336,121.81995910644531,5.089992523193359C120.55996910644531,7.9999925231933595,119.53995910644531,9.019992523193359,116.62995910644531,10.269992523193359Z" fill="#FFFFFF" fill-opacity="1"/></g><g><path d="M121.81995873046876,16.0799951171875C121.56995873046876,16.0799951171875,121.34995873046876,15.9299951171875,121.24995873046875,15.6999951171875C120.05994873046875,12.9399951171875,119.14994873046875,12.0299951171875,116.38995373046875,10.839995117187499C116.15995773046875,10.739995117187501,116.00994873046875,10.5199951171875,116.00994873046875,10.2699951171875C116.00994873046875,10.0199951171875,116.15994273046876,9.7999951171875,116.38995373046875,9.6999951171875C119.14994873046875,8.5099951171875,120.05994873046875,7.5999951171875,121.24995873046875,4.8399921171875C121.44994873046875,4.3799931171875,122.19994873046875,4.3799931171875,122.38994873046875,4.8399921171875C123.57995873046875,7.5999951171875,124.48995873046874,8.5099951171875,127.24994873046874,9.6999951171875C127.47994873046875,9.7999951171875,127.62994873046875,10.0199951171875,127.62994873046875,10.2699951171875C127.62994873046875,10.5199951171875,127.47994873046875,10.739995117187501,127.24994873046874,10.839995117187499C124.48995873046874,12.0299951171875,123.57995873046875,12.9399951171875,122.38994873046875,15.6999951171875C122.28994873046875,15.9299951171875,122.06994873046875,16.0799951171875,121.81995873046876,16.0799951171875ZM118.09995873046876,10.2699951171875C119.89995873046875,11.1999951171875,120.88994873046875,12.1899951171875,121.81995873046876,13.9899951171875C122.74995873046875,12.1899951171875,123.73995873046874,11.1999951171875,125.53995873046875,10.2699951171875C123.73995873046874,9.339995117187499,122.74996873046875,8.3499951171875,121.81995873046876,6.5499951171875C120.88996873046875,8.3499951171875,119.89995873046875,9.339995117187499,118.09995873046876,10.2699951171875Z" fill="#000000" fill-opacity="1"/></g></g><g><g><path d="M116.62995910644531,68.06998962402344C119.53995910644531,66.80998962402344,120.55994910644532,65.78998962402343,121.81995910644531,62.87998962402344C123.07995910644532,65.78998962402343,124.09995910644531,66.80998962402344,126.99995910644532,68.06998962402344C124.08994910644532,69.32998962402344,123.06995910644531,70.34998962402344,121.81995910644531,73.25998962402343C120.55996910644531,70.34998962402344,119.53995910644531,69.32998962402344,116.62995910644531,68.06998962402344Z" fill="#FFFFFF" fill-opacity="1"/></g><g><path d="M121.81995873046876,73.86999603271485C121.56995873046876,73.86999603271485,121.34995873046876,73.71999603271485,121.24995873046875,73.48999603271484C120.05994873046875,70.72999603271484,119.14994873046875,69.81999603271484,116.38995373046875,68.62999603271484C116.15995773046875,68.52999603271485,116.00994873046875,68.30999603271485,116.00994873046875,68.05999603271485C116.00994873046875,67.80999603271485,116.15994273046876,67.58999603271485,116.38995373046875,67.48999603271484C119.14994873046875,66.29999603271484,120.05994873046875,65.38999603271485,121.24995873046875,62.62999703271485C121.44994873046875,62.169998032714844,122.19994873046875,62.169998032714844,122.38994873046875,62.62999703271485C123.57995873046875,65.38999603271485,124.48995873046874,66.29999603271484,127.24994873046874,67.48999603271484C127.47994873046875,67.58999603271485,127.62994873046875,67.80999603271485,127.62994873046875,68.05999603271485C127.62994873046875,68.30999603271485,127.47994873046875,68.52999603271485,127.24994873046874,68.62999603271484C124.48995873046874,69.81999603271484,123.57995873046875,70.72999603271484,122.38994873046875,73.48999603271484C122.28994873046875,73.71999603271485,122.06994873046875,73.86999603271485,121.81995873046876,73.86999603271485ZM118.09995873046876,68.06999603271484C119.89995873046875,68.99999603271485,120.88994873046875,69.98998603271484,121.81995873046876,71.78999603271484C122.74995873046875,69.98998603271484,123.73995873046874,68.99999603271485,125.53995873046875,68.06999603271484C123.73995873046874,67.13999603271485,122.74996873046875,66.14999603271484,121.81995873046876,64.34998603271484C120.88996873046875,66.14999603271484,119.89995873046875,67.13999603271485,118.09995873046876,68.06999603271484Z" fill="#000000" fill-opacity="1"/></g></g></g></g></svg>