<?xml version="1.0" encoding="UTF-8"?>
<svg id="Layer_1" data-name="Layer 1" xmlns="http://www.w3.org/2000/svg" version="1.1" viewBox="0 0 1000 1000">
  <defs>
    <style>
      .cls-1 {
        fill: #92c8c6;
      }

      .cls-1, .cls-2, .cls-3, .cls-4, .cls-5, .cls-6, .cls-7, .cls-8, .cls-9 {
        stroke-width: 0px;
      }

      .cls-10, .cls-11, .cls-12, .cls-13, .cls-14, .cls-15, .cls-16 {
        stroke: #000;
      }

      .cls-10, .cls-14 {
        stroke-miterlimit: 10;
      }

      .cls-10, .cls-4 {
        fill: #4795bd;
      }

      .cls-11 {
        fill: #fdd172;
      }

      .cls-11, .cls-12, .cls-13, .cls-15, .cls-16, .cls-17 {
        stroke-linecap: round;
        stroke-linejoin: round;
        stroke-width: 3px;
      }

      .cls-12, .cls-9 {
        fill: #29aba1;
      }

      .cls-13, .cls-7 {
        fill: #fff;
      }

      .cls-2 {
        fill: #000;
      }

      .cls-3 {
        fill: #e54040;
      }

      .cls-14, .cls-16, .cls-17 {
        fill: none;
      }

      .cls-15 {
        fill: #fefefd;
      }

      .cls-5 {
        fill: #f4984b;
      }

      .cls-6 {
        fill: #a2a2a2;
      }

      .cls-17 {
        stroke: #fff;
      }

      .cls-8 {
        fill: #fcdcdb;
      }
    </style>
  </defs>
  <g>
    <g>
      <path class="cls-5" d="M653.83,355.29c10.98,16.18,38.77,17.36,44.24,17.01-11.61,14.16-28.55,38.65-21.01,53.38.79,1.56,2.35,3.94,3.02,4.97,5.27,8.06,11.57,15.38,18.74,21.8-6.89,3.35-27.98,15.1-32.68,35.34-3.02,13,1.42,26.87,13.18,41.26-9.84.26-39.04,2.55-51.89,20.5-6.84,9.57-7.87,22.03-3.07,37.08-8.94-4.49-33.3-14.8-50.94-4.16-.68.46-16.21,11.26-18.29,40.01-14.93-20.06-40.38-29.19-59.71-20.85-12.15,5.24-18.38,15.98-21.3,23.15-2.9-8.57-10.99-26.76-28.65-32.3-3.51-1.1-7.09-1.57-10.66-1.57-17.65,0-34.92,11.54-40.26,15.92,1.24-7.53,4.19-33.96-12.83-47.45-.69-.52-16.94-12.2-48.85-4.44,11.3-17.04,11.25-38.44-.53-53.32-10.72-13.53-27.11-16.41-34.62-17,5.85-6.6,20.72-25.66,17.71-45.75-1.82-12.17-9.91-22.46-24.07-30.64,7.78-3.25,27.92-13.3,33.36-31.97,3.64-12.49-.1-26.31-11.13-41.1,21.42,2.2,39.48-3.45,47.66-15.08,7.91-11.25,7.08-29.05,6.58-39.68-.15-3.17-.45-6.36-.88-9.51,5.98,1.86,12.04,3.5,18.06,4.88,23.8,5.47,31.3,3.43,35.86.41,1.83-1.22,3.28-2.66,3.55-2.93,3.54-3.6,5.91-8.56,7.46-15.62,2.93-13.35,4.69-20.36,5.73-24.05,4.01,4.86,24.01,27.65,46.1,27.65,1.08,0,2.18-.06,3.27-.17,12.27-1.29,22.75-9.93,31.18-25.7,2.89,7.74,11.45,26.16,29.43,32.7,14.13,5.14,30.76,1.66,49.48-10.33-1.33,6.83-2.66,21.51,6.58,33.58,9.49,12.4,27.32,18.36,52.99,17.71-3.82,7.33-13.89,29.93-2.81,46.27Z"/>
      <path class="cls-16" d="M434.81,590.91c3.57,0,7.15.47,10.66,1.57,17.66,5.54,25.75,23.73,28.65,32.3,2.92-7.17,9.15-17.91,21.3-23.15,19.33-8.34,44.78.79,59.71,20.85,2.08-28.75,17.61-39.55,18.29-40.01,17.64-10.64,42-.33,50.94,4.16-4.8-15.05-3.77-27.51,3.07-37.08,12.85-17.95,42.05-20.24,51.89-20.5-11.76-14.39-16.2-28.26-13.18-41.26,4.7-20.24,25.79-31.99,32.68-35.34-7.17-6.42-13.47-13.74-18.74-21.8-.67-1.03-2.23-3.41-3.02-4.97-7.54-14.73,9.4-39.22,21.01-53.38-5.47.35-33.26-.83-44.24-17.01-11.08-16.34-1.01-38.94,2.81-46.27-25.67.65-43.5-5.31-52.99-17.71-9.24-12.07-7.91-26.75-6.58-33.58-18.72,11.99-35.35,15.47-49.48,10.33-17.98-6.54-26.54-24.96-29.43-32.7-8.43,15.77-18.91,24.41-31.18,25.7-1.09.11-2.19.17-3.27.17-22.09,0-42.09-22.79-46.1-27.65-1.04,3.69-2.8,10.7-5.73,24.05-1.55,7.06-3.92,12.02-7.46,15.62-.27.27-1.72,1.71-3.55,2.93-4.56,3.02-12.06,5.06-35.86-.41-6.02-1.38-12.08-3.02-18.06-4.88.43,3.15.73,6.34.88,9.51.5,10.63,1.33,28.43-6.58,39.68-8.18,11.63-26.24,17.28-47.66,15.08,11.03,14.79,14.77,28.61,11.13,41.1-5.44,18.67-25.58,28.72-33.36,31.97,14.16,8.18,22.25,18.47,24.07,30.64,3.01,20.09-11.86,39.15-17.71,45.75,7.51.59,23.9,3.47,34.62,17,11.78,14.88,11.83,36.28.53,53.32,31.91-7.76,48.16,3.92,48.85,4.44,17.02,13.49,14.07,39.92,12.83,47.45,5.34-4.38,22.61-15.92,40.26-15.92Z"/>
    </g>
    <path class="cls-16" d="M437.83,227.26"/>
  </g>
  <path class="cls-11" d="M342.51,486.16s-63.98,30.2-49.69,82.52c0,0,18.6-5.13,21.84-3.8,0,0,4.85-44.2,40.99-54.44l-11.95-24.27"/>
  <ellipse class="cls-11" cx="492.93" cy="438.98" rx="161.07" ry="160.07"/>
  <path class="cls-15" d="M678.3,537.96s.36-10.8,6.63-19.21c.12-.16.25-.33.37-.49,2.74-3.5,6.55-6.53,11.84-8.11,18.1-5.39,13.65-29.93,13.25-32.09-.4-2.16-1.75-22.79,11.87-18.34s16.83,16.18,15.02,26.56c-1.81,10.38-17.72,31.69-4.91,36.67,12.81,4.99,31.69,68.36-21.03,61.21-4.66-.84-11.69-2.68-19.23-7.1-8.67-5.07-14.16-11.29-17.17-15.29,0,0-21.34-22.72,7.15-42.34.92-.24,1.84-.47,2.76-.71"/>
  <path class="cls-13" d="M282.51,578.27s-10.13,15.55-4.76,29.33c-1.18,4.01-2.69,11.1-1.25,19.61.49,2.88,3.16,18.61,12.35,21.28,5.17,1.5,10.26-1.76,13.5-3.8,38.09-23.98,41.68-21.84,49.33-30.92,7.89-9.36-5.33-42.83-23.4-45.33-12.22-1.69-22.36-2.63-32.03,1.01-6.44,2.43-10.91,6.2-13.74,8.82"/>
  <path class="cls-16" d="M682.08,519.46"/>
  <path class="cls-16" d="M480.15,613.99"/>
  <path class="cls-15" d="M682.08,519.46c-1.22-2.15-5.22-8.67-10-8.29,0,0-1.09.09-2.17.67-7.56,4.06-19.76,45.54-7.82,52.07,2.46,1.34,6.36,1.44,12.84-2.11,0,0-21.03-21.03,7.15-42.34Z"/>
  <path class="cls-10" d="M280.98,578.27"/>
  <path class="cls-11" d="M621.03,536.03c11.56,3.15,24.09,6.61,35.64,9.75.23-4.7,1.15-8.28,1.99-10.73.79-2.31,1.67-4.14,3.27-8.72.71-2.05,1.26-3.75,1.61-4.9-9.07-2.99-18.13-5.99-27.2-8.98-2.17,4.57-5.61,9.56-9,14.76-2.1,3.22-4.23,6.16-6.31,8.82Z"/>
  <path class="cls-13" d="M291.96,554.91s-.29.15-.58.3c-1.41.75-14.44,7.89-13.59,15.93.25,2.33,1.62,4.74,4.72,7.13,0,0,16.21-19.15,45.77-9.83,1-.97,3.37-3.55,2.99-6.53-.45-3.46-4.34-5.33-7.94-7-3.44-1.6-9.64-3.8-18.45-3.39-3.1.09-7.67.72-12.92,3.39Z"/>
  <path class="cls-16" d="M659.89,530.34"/>
  <path class="cls-16" d="M661.81,520.94"/>
  <path class="cls-16" d="M688.41,546.07s24.89-2.11,30.83-18.45"/>
  <ellipse class="cls-15" cx="732.57" cy="581.39" rx="17.81" ry="9.32"/>
  <ellipse class="cls-15" cx="737.28" cy="559.08" rx="20.45" ry="11.66" transform="translate(-22.49 30.97) rotate(-2.37)"/>
  <ellipse class="cls-15" cx="743.17" cy="535.6" rx="20.32" ry="11.66"/>
  <path class="cls-16" d="M697.15,544.88c4.06,5.21,6.45,9.94,6.73,12.71.12,1.23.14,2.61.14,2.61.03,2.65-.29,4.93-.33,4.93"/>
  <path class="cls-16" d="M671.17,558.03"/>
  <path class="cls-16" d="M674.93,523.94"/>
  <path class="cls-11" d="M507.81,605.92c2.61-2.66,5.21-5.33,7.82-7.99,11.22-2.09,23.15-5.21,35.49-9.77,1.99-.74,3.94-1.49,5.85-2.26-11.88,13.71-23.76,27.42-35.64,41.13"/>
  <path class="cls-12" d="M479.16,626.46s-12.34-3.9-16.87,1.25c-5.62,6.39,1.87,19.67,3.42,22.37,4.25,7.39,14.36,19.25,24.26,16.91,4.3-1.02,9.68-4.98,10.09-10.4.25-3.41-1.55-6.13-2.49-7.34"/>
  <g>
    <path class="cls-2" d="M647.94,691.42c-.12-1.38-.31-2.76-.58-4.15.17-.01.34-.03.52-.09.6.6,1.18,1.23,1.72,1.89.53.64.44,1.59-.2,2.11-.42.35-.98.43-1.46.24Z"/>
    <path class="cls-2" d="M647.9,709.56c.31-.66.11-1.46-.51-1.88l-1.27-.86c.68-1.98,1.21-4.09,1.55-6.33.45-2.99.54-6.02.27-9.07.48.19,1.04.11,1.46-.24.64-.52.73-1.47.2-2.11-.54-.66-1.12-1.29-1.72-1.89.11-.03.22-.08.33-.13,1.35-.64,1.51-2.14,1.42-3.3,1.52,5.75,1.86,11.53,1.01,17.18-.48,3.16-1.33,6.09-2.41,8.77l-.33-.14Z"/>
    <path class="cls-6" d="M647.94,691.42c.27,3.05.18,6.08-.27,9.07-.34,2.24-.87,4.35-1.55,6.33l-28.76-19.54c2.77-1.59,5.87-2.91,9.23-3.53,1.72-.32,6.99-1.29,12.83,1.24,3,1.31,5.72,3.37,7.87,5.98.17.21.4.37.65.45Z"/>
    <path class="cls-2" d="M647.21,686.56c.23.19.45.4.67.62-.18.06-.35.08-.52.09-.04-.24-.09-.47-.15-.71Z"/>
    <path class="cls-2" d="M647.39,707.68c.62.42.82,1.22.51,1.88-.03.07-.07.14-.11.2-.29.43-.77.66-1.25.66-.29,0-.58-.09-.84-.26l-.69-.47c.4-.92.78-1.88,1.11-2.87l1.27.86Z"/>
    <path class="cls-2" d="M647.56,685.7c.66-.31.69-1.42.45-2.87,0,0-.13-.5-.43-1.35.74-.15,1.49.31,1.72,1.05.12.4.23.8.33,1.21,0,0,0,0,0,.01.09,1.16-.07,2.66-1.42,3.3-.11.05-.22.1-.33.13-.22-.22-.44-.43-.67-.62-.05-.3-.12-.59-.2-.89.2.09.39.11.55.03Z"/>
    <path class="cls-2" d="M648.01,682.83c.24,1.45.21,2.56-.45,2.87-.16.08-.35.06-.55-.03-.17-.77-.37-1.53-.59-2.3-.04-.13-.06-.25-.06-.38l.18.21v-.04c-.02-.08-.07-.25-.15-.5.1-.53.49-.99,1.05-1.15.05-.01.09-.02.14-.03.3.85.43,1.35.43,1.35Z"/>
    <path class="cls-2" d="M646.54,683.16v.04l-.18-.21c-.01-.11,0-.22.03-.33.08.25.13.42.15.5Z"/>
    <path class="cls-1" d="M646.05,682.63c-.79-.93-1.77-2.09-2.94-3.15-9.27-8.41-25.69-4.11-30.52-2.58-2.21.69-4.4,1.63-6.48,2.77-3,1.55-5.84,3.41-8.45,5.52-8.05,6.54-11.95,13.95-14.05,17.94l-.37.71c-9.51,17.88-21.72,30.21-34.4,34.72-6.94,2.47-19.69,5.12-23.45-.64-1.8-2.76-1.65-6.02-1.45-10.54.23-5,.51-11.22-1.78-19.43-1.33-4.78-3.39-9.38-6.14-13.7,2.82-4.07,6.12-7.81,9.81-11.11,2.35-2.11,4.39-3.63,5.69-4.53,3-2.1,7.72-4.24,13.72-6.26-.1,1.48-.07,3.34.39,5.41,0,.02.58,2.59,1.92,5.04,3.95,7.2,11.86,10.06,12.2,10.18.44.15.92.1,1.31-.16.39-.25.64-.67.68-1.13.18-2.09,1.18-6.06,3.42-10.34,4.51-8.63,18.5-15.78,26.8-18.49l.17-.05c9.84-3.21,20.01-6.52,34.04-1.57,14.3,5.04,19.3,18.54,20.22,21.42-.03.11-.04.22-.03.33-.1-.12-.21-.25-.31-.36Z"/>
    <path class="cls-2" d="M642.6,683.22c1.65.91,3.2,2.03,4.61,3.34.06.24.11.47.15.71-1.27.03-2.36-1.25-3.59-2.7-.36-.43-.75-.89-1.17-1.35Z"/>
    <path class="cls-2" d="M648.23,709.7c-2.4,5.99-5.93,10.75-8.91,14.12l-.44-.39c.43-.71.2-1.63-.51-2.06l-.56-.34c2.47-2.9,5.19-6.7,7.2-11.34l.69.47c.26.17.55.26.84.26.48,0,.96-.23,1.25-.66.04-.06.08-.13.11-.2l.33.14Z"/>
    <path class="cls-2" d="M638.88,723.43c-.29.46-.78.72-1.29.72-.26,0-.53-.07-.77-.22l-1.06-.64c.65-.68,1.33-1.43,2.05-2.26l.56.34c.71.43.94,1.35.51,2.06Z"/>
    <path class="cls-2" d="M637.59,724.15c.51,0,1-.26,1.29-.72l.44.39c-1.66,1.9-3.16,3.36-4.18,4.36-.42.4-.76.74-1.02,1-2.26,2.35-5.7,4.52-9.72,6.5l-.72-1.46c.24-.14.44-.35.57-.61.21-.4.22-.86.06-1.25,3.19-1.66,5.88-3.41,7.64-5.25.28-.28.65-.65,1.09-1.08.74-.72,1.68-1.64,2.72-2.74l1.06.64c.24.15.51.22.77.22Z"/>
    <path class="cls-2" d="M603.39,700.08l34.42,20.95c-.72.83-1.4,1.58-2.05,2.26l-33.93-20.64c-.54-.33-.8-.96-.7-1.55.39-.4.76-.8,1.13-1.19.38-.09.78-.04,1.13.17Z"/>
    <path class="cls-6" d="M601.83,702.65l33.93,20.64c-1.04,1.1-1.98,2.02-2.72,2.74-.44.43-.81.8-1.09,1.08-1.76,1.84-4.45,3.59-7.64,5.25-.14-.32-.38-.6-.71-.77l-33.73-17.42c-.09-.05-.19-.08-.29-.11,3.87-4.5,7.76-8.94,11.55-12.96-.1.59.16,1.22.7,1.55Z"/>
    <path class="cls-7" d="M613.51,679.75c3.16-.99,19.28-5.57,27.58,1.95.54.49,1.04,1.01,1.51,1.52-.65-.36-1.31-.69-1.99-.98-4.43-1.92-9.33-2.41-14.57-1.45-4.44.82-8.41,2.72-11.83,4.89-2.16,1.36-4.1,2.83-5.81,4.2-7.04,6.06-14.64,14.69-22.11,23.41-1.07,1.25-2.13,2.5-3.19,3.74-2.39,2.8-4.81,5.63-7.22,8.39l-2.2-1.84c4.4-5.23,8.51-11.38,12.21-18.33l.38-.73c1.99-3.79,5.71-10.85,13.28-17,2.45-1.99,5.12-3.73,7.97-5.2,1.94-1.06,3.95-1.93,5.99-2.57Z"/>
    <path class="cls-2" d="M623.6,731.59c.33.17.57.45.71.77-.95.49-1.94.98-2.96,1.45l-32.86-16.97c-.31-.16-.54-.42-.67-.72.58-.68,1.17-1.37,1.76-2.06.1.03.2.06.29.11l33.73,17.42Z"/>
    <path class="cls-2" d="M621.35,733.81c1.02-.47,2.01-.96,2.96-1.45.16.39.15.85-.06,1.25-.13.26-.33.47-.57.61-.23.14-.5.21-.77.21-.23,0-.46-.06-.69-.17l-.87-.45Z"/>
    <path class="cls-6" d="M588.49,716.84l32.86,16.97c-4.37,2.02-9.33,3.88-13.98,5.52-.11-.38-.38-.72-.76-.91l-26.13-13.13c-.13-.07-.27-.11-.4-.13,1.77-2.05,3.54-4.12,5.3-6.18.81-.95,1.62-1.9,2.44-2.86.13.3.36.56.67.72Z"/>
    <path class="cls-2" d="M616.56,686.74l.8.54c-.95.55-1.87,1.12-2.74,1.71-.47-.49-.54-1.26-.14-1.85.11-.16.24-.29.39-.39.5-.34,1.17-.36,1.69-.01Z"/>
    <path class="cls-2" d="M626.59,683.75c-3.36.62-6.46,1.94-9.23,3.53l-.8-.54c-.52-.35-1.19-.33-1.69.01l-.66-1.07c3.42-2.17,7.39-4.07,11.83-4.89,5.24-.96,10.14-.47,14.57,1.45.68.29,1.34.62,1.99.98.42.46.81.92,1.17,1.35,1.23,1.45,2.32,2.73,3.59,2.7.27,1.39.46,2.77.58,4.15-.25-.08-.48-.24-.65-.45-2.15-2.61-4.87-4.67-7.87-5.98-5.84-2.53-11.11-1.56-12.83-1.24Z"/>
    <path class="cls-2" d="M614.62,688.99c.87-.59,1.79-1.16,2.74-1.71l28.76,19.54c-.33.99-.71,1.95-1.11,2.87l-30.13-20.47c-.1-.07-.18-.14-.26-.23Z"/>
    <path class="cls-2" d="M607.27,740.43c.18-.36.21-.75.1-1.1,4.65-1.64,9.61-3.5,13.98-5.52l.87.45c.23.11.46.17.69.17.27,0,.54-.07.77-.21l.72,1.46c-5.31,2.63-11.62,4.95-17.55,7.02l-.52-1.5c.4-.11.75-.38.94-.77Z"/>
    <path class="cls-2" d="M607.37,739.33c-1.13.4-2.24.79-3.31,1.16l-24.92-12.52c-.37-.18-.63-.5-.75-.87.57-.64,1.13-1.29,1.69-1.94.13.02.27.06.4.13l26.13,13.13c.38.19.65.53.76.91Z"/>
    <path class="cls-2" d="M604.06,740.49c1.07-.37,2.18-.76,3.31-1.16.11.35.08.74-.1,1.1-.19.39-.54.66-.94.77-.13.04-.26.06-.4.06-.22,0-.45-.06-.67-.17l-1.2-.6Z"/>
    <path class="cls-6" d="M579.14,727.97l24.92,12.52c-.71.25-1.41.49-2.09.72-5.12,1.76-9.54,3.28-12.29,4.63-.49.24-.99.5-1.51.79-.02-.02-.05-.04-.08-.05l-18.84-9.35c3.01-3.16,6.08-6.6,9.14-10.13.12.37.38.69.75.87Z"/>
    <path class="cls-6" d="M602.26,699.91c2.76-2.86,5.46-5.48,8.06-7.72,1.3-1.04,2.73-2.14,4.3-3.2.08.09.16.16.26.23l30.13,20.47c-2.01,4.64-4.73,8.44-7.2,11.34l-34.42-20.95c-.35-.21-.75-.26-1.13-.17Z"/>
    <path class="cls-2" d="M601.33,700.59c.22-.36.56-.59.93-.68-.37.39-.74.79-1.13,1.19.03-.17.1-.35.2-.51Z"/>
    <path class="cls-2" d="M587.96,714.64c.37-.52,1.02-.74,1.62-.58-.59.69-1.18,1.38-1.76,2.06-.19-.4-.19-.88.03-1.3.03-.06.07-.13.11-.18Z"/>
    <path class="cls-2" d="M605.26,741.09c.22.11.45.17.67.17.14,0,.27-.02.4-.06l.52,1.5c-1.33.46-2.64.91-3.91,1.35-5.02,1.72-9.35,3.22-11.94,4.48-.82.4-1.69.88-2.6,1.41l-.38-.64c.32-.13.59-.38.75-.71.36-.71.08-1.57-.6-1.96.52-.29,1.02-.55,1.51-.79,2.75-1.35,7.17-2.87,12.29-4.63.68-.23,1.38-.47,2.09-.72l1.2.6Z"/>
    <path class="cls-2" d="M586.29,713.29c7.47-8.72,15.07-17.35,22.11-23.41,1.71-1.37,3.65-2.84,5.81-4.2l.66,1.07c-.15.1-.28.23-.39.39-.4.59-.33,1.36.14,1.85-1.57,1.06-3,2.16-4.3,3.2-2.6,2.24-5.3,4.86-8.06,7.72-.37.09-.71.32-.93.68-.1.16-.17.34-.2.51-3.79,4.02-7.68,8.46-11.55,12.96-.6-.16-1.25.06-1.62.58l-1.67-1.35Z"/>
    <path class="cls-2" d="M588.77,748.59c-.16.33-.43.58-.75.71-.19.09-.39.13-.6.13s-.45-.05-.66-.16l-1.66-.82c1.06-.67,2.09-1.28,3.07-1.82.68.39.96,1.25.6,1.96Z"/>
    <path class="cls-2" d="M588.09,746.58s.06.03.08.05c-.98.54-2.01,1.15-3.07,1.82l-17.75-8.81c-.1-.05-.18-.1-.26-.17.72-.73,1.44-1.48,2.16-2.24l18.84,9.35Z"/>
    <path class="cls-6" d="M567.35,739.64l17.75,8.81c-4.87,3.03-10.28,7.12-14.01,10.06l-17.15-8.54c4.36-2.22,7.23-4.85,8.47-5.97,1.54-1.4,3.1-2.92,4.68-4.53.08.07.16.12.26.17Z"/>
    <path class="cls-2" d="M578.47,725.96c.31-.61.97-.92,1.61-.8-.56.65-1.12,1.3-1.69,1.94-.12-.36-.1-.77.08-1.14Z"/>
    <path class="cls-7" d="M575.88,725.42c-1.44,1.67-2.89,3.3-4.32,4.9l-2.37-1.83c1.53-1.53,3.02-3.17,4.49-4.91l2.2,1.84Z"/>
    <path class="cls-2" d="M572.55,760.91c.37-.74.07-1.64-.67-2.01l-.79-.39c3.73-2.94,9.14-7.03,14.01-10.06l1.66.82c.21.11.44.16.66.16s.41-.04.6-.13l.38.64c-5.4,3.16-12.1,8.26-16.21,11.51l-.03-.04c.16-.13.29-.3.39-.5Z"/>
    <path class="cls-2" d="M571.88,758.9c.74.37,1.04,1.27.67,2.01-.1.2-.23.37-.39.5-.27.21-.61.33-.95.33-.23,0-.45-.05-.67-.15l-2.05-1.02c.71-.58,1.6-1.28,2.6-2.06l.79.39Z"/>
    <path class="cls-7" d="M571.56,730.32c-1.9,2.1-3.78,4.13-5.62,6.04-1.9,1.95-3.75,3.78-5.56,5.43-2.23,2.03-5.33,4.57-9.84,6.47-.37.16-.76.31-1.15.46-4.81,1.82-10.07,2.46-15.62,1.9-.11-.01-.22-.01-.33.01-2.07-2.8-3.51-5.36-4.28-6.86,1.64.44,3.42.61,5.23.61,6.52,0,13.41-2.26,15.45-2.99,6.7-2.38,13.24-6.78,19.35-12.9l2.37,1.83Z"/>
    <path class="cls-2" d="M553.94,749.97l17.15,8.54c-1,.78-1.89,1.48-2.6,2.06l-16.85-8.39c-.36-.18-.62-.48-.74-.83,1.08-.42,2.09-.89,3.04-1.38Z"/>
    <path class="cls-2" d="M566.91,737.28c.44-.49,1.16-.63,1.77-.33l.57.28c-.72.76-1.44,1.51-2.16,2.24-.56-.43-.74-1.19-.42-1.84.07-.13.15-.25.24-.35Z"/>
    <path class="cls-2" d="M578.39,727.1c-3.06,3.53-6.13,6.97-9.14,10.13l-.57-.28c-.61-.3-1.33-.16-1.77.33l-.97-.92c1.84-1.91,3.72-3.94,5.62-6.04,1.43-1.6,2.88-3.23,4.32-4.9,2.41-2.76,4.83-5.59,7.22-8.39,1.06-1.24,2.12-2.49,3.19-3.74l1.67,1.35c-.04.05-.08.12-.11.18-.22.42-.22.9-.03,1.3-.82.96-1.63,1.91-2.44,2.86-1.76,2.06-3.53,4.13-5.3,6.18-.64-.12-1.3.19-1.61.8-.18.37-.2.78-.08,1.14Z"/>
    <path class="cls-2" d="M552.97,749.49c-.6-.3-1.32-.16-1.77.32l-.66-1.55c4.51-1.9,7.61-4.44,9.84-6.47,1.81-1.65,3.66-3.48,5.56-5.43l.97.92c-.09.1-.17.22-.24.35-.32.65-.14,1.41.42,1.84-1.58,1.61-3.14,3.13-4.68,4.53-1.24,1.12-4.11,3.75-8.47,5.97l-.97-.48Z"/>
    <path class="cls-2" d="M553.94,749.97c-.95.49-1.96.96-3.04,1.38-.14-.37-.13-.8.06-1.19.07-.13.15-.25.24-.35.45-.48,1.17-.62,1.77-.32l.97.48Z"/>
    <path class="cls-9" d="M548.47,662.34c1.03,1.91.84,4.1.49,5.61-10.12,2.01-19.46,6.51-27.07,13.04-3.79,3.26-7.18,7.03-10.07,11.21-1.17-.39-2.04-.98-2.6-1.75-.55-.77-.79-1.75-.79-2.85,0-4.39,3.79-10.84,6.82-14.6,2.95-3.67,5.97-5.75,10.97-9.2,4.81-3.31,7.06-4.79,10.13-5.26.03,0,1.15-.17,2.71-.17,2.98,0,7.58.59,9.41,3.97Z"/>
    <path class="cls-2" d="M548.87,682.07c-1.2-2.19-1.75-4.52-1.77-4.63-.52-2.36-.45-4.42-.28-5.94.51-.13,1.03-.25,1.54-.36-.18,1.45-.34,3.54.2,5.97.01.02.52,2.24,1.62,4.24,2.37,4.33,6.54,6.89,8.87,8.05.57-2.87,1.82-6.31,3.45-9.44,5.31-10.16,20.99-17.49,28.53-19.95l.17-.05c10.32-3.36,20.98-6.84,35.96-1.55,17.52,6.17,22.11,23.32,22.3,24.05,0,.04.02.08.02.12.05.28.12.69.15,1.16-.1-.41-.21-.81-.33-1.21-.23-.74-.98-1.2-1.72-1.05-1.44-4.14-6.84-16.7-20.92-21.66-14.58-5.14-25.11-1.66-35.16,1.62-7.04,2.29-22.55,9.43-27.67,19.21-2.14,4.1-3.36,8.26-3.58,10.91-1.53-.53-8.07-3.43-11.38-9.49Z"/>
    <path class="cls-2" d="M548.46,670.41c-.03.22-.07.46-.1.73-.51.11-1.03.23-1.54.36.05-.49.11-.93.16-1.3l-.06-.27c.49-.12.97-.23,1.43-.33.11.25.15.53.11.81Z"/>
    <path class="cls-2" d="M547.1,677.44c.02.11.57,2.44,1.77,4.63,3.31,6.06,9.85,8.96,11.38,9.49.22-2.65,1.44-6.81,3.58-10.91,5.12-9.78,20.63-16.92,27.67-19.21,10.05-3.28,20.58-6.76,35.16-1.62,14.08,4.96,19.48,17.52,20.92,21.66-.05.01-.09.02-.14.03-.56.16-.95.62-1.05,1.15-.92-2.88-5.92-16.38-20.22-21.42-14.03-4.95-24.2-1.64-34.04,1.57l-.17.05c-8.3,2.71-22.29,9.86-26.8,18.49-2.24,4.28-3.24,8.25-3.42,10.34-.04.46-.29.88-.68,1.13-.39.26-.87.31-1.31.16-.34-.12-8.25-2.98-12.2-10.18-1.34-2.45-1.91-5.02-1.92-5.04-.46-2.07-.49-3.93-.39-5.41l-.11-.4c.56-.16,1.13-.31,1.69-.45-.17,1.52-.24,3.58.28,5.94Z"/>
    <path class="cls-6" d="M537.6,753.82c4.51,0,8.82-.77,12.85-2.29l.45-.18c.12.35.38.65.74.83l16.85,8.39c-.89.72-1.52,1.24-1.82,1.48-13.99,5.84-24.31-1.06-30.67-8.26.53.02,1.07.03,1.6.03Z"/>
    <path class="cls-2" d="M536,753.79c-.84-.04-1.68-.09-2.53-.18-.48-.04-.89-.31-1.13-.7-.17-.27-.25-.6-.21-.94.06-.72.63-1.27,1.31-1.34.77,1.03,1.62,2.1,2.56,3.16Z"/>
    <path class="cls-2" d="M556.5,767.24c-11.23,0-19.54-7.43-24.66-13.95l.5-.38c.24.39.65.66,1.13.7.85.09,1.69.14,2.53.18,6.36,7.2,16.68,14.1,30.67,8.26.3-.24.93-.76,1.82-1.48l2.05,1.02c.22.1.44.15.67.15.34,0,.68-.12.95-.33l.03.04c-2.26,1.78-3.74,3.01-3.78,3.05-.11.1-.24.17-.37.23-4.13,1.76-7.99,2.51-11.54,2.51Z"/>
    <path class="cls-2" d="M536,753.79c-.94-1.06-1.79-2.13-2.56-3.16.11-.02.22-.02.33-.01,5.55.56,10.81-.08,15.62-1.9.39-.15.78-.3,1.15-.46l.66,1.55c-.09.1-.17.22-.24.35-.19.39-.2.82-.06,1.19l-.45.18c-4.03,1.52-8.34,2.29-12.85,2.29-.53,0-1.07-.01-1.6-.03Z"/>
    <path class="cls-2" d="M549.84,741.39c-2.04.73-8.93,2.99-15.45,2.99-1.81,0-3.59-.17-5.23-.61-.39-.75-.62-1.24-.68-1.38-.1-.23-.26-.42-.44-.56,6.13,2.5,16.01.03,21.3-1.85,20.2-7.19,32.63-30.56,35.22-35.44,1.93-3.62,5.72-11.43,14.05-18.18,3.23-2.63,6.22-4.34,8.19-5.36,2.64-1.44,4.88-2.24,6.24-2.67,1.7-.54,19.67-6.25,29.06,2.26,2.32,2.1,3.87,4.62,4.91,5.08.08.3.15.59.2.89-1.41-1.31-2.96-2.43-4.61-3.34-.47-.51-.97-1.03-1.51-1.52-8.3-7.52-24.42-2.94-27.58-1.95-2.04.64-4.05,1.51-5.99,2.57-2.85,1.47-5.52,3.21-7.97,5.2-7.57,6.15-11.29,13.21-13.28,17l-.38.73c-3.7,6.95-7.81,13.1-12.21,18.33-1.47,1.74-2.96,3.38-4.49,4.91-6.11,6.12-12.65,10.52-19.35,12.9Z"/>
    <path class="cls-2" d="M528.04,741.83c-.22-.09-.44-.18-.65-.29.24.04.46.14.65.29Z"/>
    <path class="cls-2" d="M531.84,753.29c-3.97-5.05-6.04-9.55-6.1-9.67-.19-.42-.17-.87.02-1.26,1.02.63,2.17,1.1,3.4,1.41.77,1.5,2.21,4.06,4.28,6.86-.68.07-1.25.62-1.31,1.34-.04.34.04.67.21.94l-.5.38Z"/>
    <path class="cls-2" d="M525.76,742.36c.15-.31.4-.57.74-.72.29-.13.6-.16.89-.1.21.11.43.2.65.29.18.14.34.33.44.56.06.14.29.63.68,1.38-1.23-.31-2.38-.78-3.4-1.41Z"/>
    <path class="cls-2" d="M518.65,688.37c1.71-2.02,3.76-4.18,6.18-6.35,2.7-2.42,4.93-4.02,5.83-4.64,3.39-2.36,8.94-4.85,16.32-7.18-.05.37-.11.81-.16,1.3-.56.14-1.13.29-1.69.45-7.91,2.22-15.19,6.08-21.28,11.32-1.84,1.58-3.57,3.28-5.2,5.1Z"/>
    <path class="cls-2" d="M517.99,686.85c1.81-2.1,3.77-4.09,5.84-5.95,2.46-2.2,4.61-3.8,5.98-4.76,3.6-2.51,9.38-5.06,16.72-7.37.49-.15,1.03-.05,1.42.29.18.15.31.33.4.54-.46.1-.94.21-1.43.33-6.26,1.51-15.4,4.77-24.05,12.2-1.82,1.56-3.44,3.15-4.88,4.72Z"/>
    <path class="cls-2" d="M524.14,738.74c-4.25-6.51.91-14.84-3.42-30.39-1.75-6.27-4.46-11.04-6.5-14.12,1.12-1.68,2.58-3.69,4.43-5.86,1.63-1.82,3.36-3.52,5.2-5.1,6.09-5.24,13.37-9.1,21.28-11.32l.11.4c-6,2.02-10.72,4.16-13.72,6.26-1.3.9-3.34,2.42-5.69,4.53-3.69,3.3-6.99,7.04-9.81,11.11,2.75,4.32,4.81,8.92,6.14,13.7,2.29,8.21,2.01,14.43,1.78,19.43-.2,4.52-.35,7.78,1.45,10.54,3.76,5.76,16.51,3.11,23.45.64,12.68-4.51,24.89-16.84,34.4-34.72l.37-.71c2.1-3.99,6-11.4,14.05-17.94,2.61-2.11,5.45-3.97,8.45-5.52,2.08-1.14,4.27-2.08,6.48-2.77,4.83-1.53,21.25-5.83,30.52,2.58,1.17,1.06,2.15,2.22,2.94,3.15.1.11.21.24.31.36,0,.13.02.25.06.38.22.77.42,1.53.59,2.3-1.04-.46-2.59-2.98-4.91-5.08-9.39-8.51-27.36-2.8-29.06-2.26-1.36.43-3.6,1.23-6.24,2.67-1.97,1.02-4.96,2.73-8.19,5.36-8.33,6.75-12.12,14.56-14.05,18.18-2.59,4.88-15.02,28.25-35.22,35.44-5.29,1.88-15.17,4.35-21.3,1.85-.19-.15-.41-.25-.65-.29-1.32-.64-2.44-1.56-3.25-2.8Z"/>
    <path class="cls-2" d="M513.71,694.76c1.5-2.26,3.15-4.39,4.94-6.39-1.85,2.17-3.31,4.18-4.43,5.86,2.04,3.08,4.75,7.85,6.5,14.12,4.33,15.55-.83,23.88,3.42,30.39.81,1.24,1.93,2.16,3.25,2.8-.29-.06-.6-.03-.89.1-.34.15-.59.41-.74.72-1.13-.71-2.11-1.62-2.88-2.8-2.33-3.57-2.15-7.43-1.93-12.31.21-4.79.48-10.75-1.68-18.5-1.31-4.7-3.38-9.23-6.16-13.47.24-.11.45-.29.6-.52Z"/>
    <path class="cls-2" d="M518.65,688.37c-1.79,2-3.44,4.13-4.94,6.39-.15.23-.36.41-.6.52-.04-.07-.09-.15-.14-.22-.33-.5-.33-1.16.01-1.66,1.5-2.24,3.13-4.38,4.9-6.42.03-.04.06-.09.11-.13,1.44-1.57,3.06-3.16,4.88-4.72,8.65-7.43,17.79-10.69,24.05-12.2l.06.27c-7.38,2.33-12.93,4.82-16.32,7.18-.9.62-3.13,2.22-5.83,4.64-2.42,2.17-4.47,4.33-6.18,6.35Z"/>
    <path class="cls-2" d="M511.82,692.2c2.89-4.18,6.28-7.95,10.07-11.21,7.61-6.53,16.95-11.03,27.07-13.04.35-1.51.54-3.7-.49-5.61-1.83-3.38-6.43-3.97-9.41-3.97-1.56,0-2.68.17-2.71.17-3.07.47-5.32,1.95-10.13,5.26-5,3.45-8.02,5.53-10.97,9.2-3.03,3.76-6.82,10.21-6.82,14.6,0,1.1.24,2.08.79,2.85.56.77,1.43,1.36,2.6,1.75ZM508,691.32c-3.52-4.93,2.44-14.74,6.08-19.26,3.09-3.84,6.17-5.97,11.29-9.49,4.81-3.32,7.29-4.99,10.75-5.51.46-.07,10.41-1.44,13.67,4.57,1.59,2.94.81,6.22.38,7.61-.56.1-1.17.22-1.82.36-.09-.21-.22-.39-.4-.54-.39-.34-.93-.44-1.42-.29-7.34,2.31-13.12,4.86-16.72,7.37-1.37.96-3.52,2.56-5.98,4.76-2.07,1.86-4.03,3.85-5.84,5.95-.05.04-.08.09-.11.13-2.22,2.44-4,4.82-5.42,6.95-1.22-.27-3.24-.9-4.46-2.61Z"/>
    <path class="cls-2" d="M505.28,748.09c.22-.52.73-.9,1.34-.91.61-.03,1.13.31,1.38.81-.58,1.99-1.43,3.8-2.69,5.54l-.14-4.81c-.01-.22.03-.43.11-.63Z"/>
    <path class="cls-2" d="M512.14,695.4c-2.42-.53-4.22-1.61-5.36-3.21-4.95-6.92,4.98-19.65,6.13-21.07,3.23-4.02,6.38-6.19,11.61-9.79,4.68-3.22,7.5-5.17,11.38-5.75.47-.07,11.42-1.66,15.21,5.33,1.31,2.43,1.49,5.54.49,8.77-.16.54-.61.94-1.16,1.04-.7.13-1.39.27-2.08.42.03-.27.07-.51.1-.73.04-.28,0-.56-.11-.81.65-.14,1.26-.26,1.82-.36.43-1.39,1.21-4.67-.38-7.61-3.26-6.01-13.21-4.64-13.67-4.57-3.46.52-5.94,2.19-10.75,5.51-5.12,3.52-8.2,5.65-11.29,9.49-3.64,4.52-9.6,14.33-6.08,19.26,1.22,1.71,3.24,2.34,4.46,2.61,1.42-2.13,3.2-4.51,5.42-6.95-1.77,2.04-3.4,4.18-4.9,6.42-.34.5-.34,1.16-.01,1.66.05.07.1.15.14.22-.2.1-.42.15-.65.15-.1,0-.21-.01-.32-.03Z"/>
    <path class="cls-1" d="M501.87,709.44c5.7,9.48,5.15,18.75,4.75,25.53-.34,5.62-.58,9.71-1.8,13.11-.56,1.54-1.32,2.94-2.38,4.28-8.58,10.82-29.95,7.74-42.22,3.02-8.32-3.2-13.84-7.95-15.83-9.84-.01-.01-.48-.46-1.17-1.17-.01-.01-1.3-1.35-2.5-2.78-24.96-29.74-17.46-59.27-17.38-59.56.37-1.37.98-3.63,1.99-6.29,2.2-5.78,6.31-13.44,14.03-18.02.02,0,.04-.02.06-.04.02-.01.03-.02.05-.02,1.73-1.03,14.65-8.75,20.02-14.84l.36.67c6.9,12.58,10.7,19.5,18.8,23.75.35.18.7.36,1.07.53-2.1,3.53-6.24,12.17-2.42,20.21.15.32.32.64.49.95-11.77-2.05-31.12,1.98-32.11,2.19-.81.17-1.33.96-1.16,1.77.15.71.77,1.19,1.47,1.19.1,0,.21-.01.31-.03,7.35-1.55,26.68-4.51,34.51-1.23.17.16.34.32.52.48.15.13.32.23.5.3.29.1.59.21.91.32.07.03.15.06.22.09,5.14,1.97,13.47,6.37,18.91,15.43Z"/>
    <path class="cls-2" d="M506.62,734.97c.4-6.78.95-16.05-4.75-25.53-5.44-9.06-13.77-13.46-18.91-15.43.59.19,1.27,0,1.67-.52.5-.65.38-1.6-.28-2.1-.05-.04-.11-.08-.16-.11,5.56,2.14,14.42,6.89,20.25,16.61,6.18,10.28,5.57,20.49,5.17,27.26-.31,5.18-.55,9.28-1.61,12.84-.25-.5-.77-.84-1.38-.81-.61.01-1.12.39-1.34.91h-.46c1.22-3.41,1.46-7.5,1.8-13.12Z"/>
    <path class="cls-2" d="M484.35,691.39c.66.5.78,1.45.28,2.1-.4.52-1.08.71-1.67.52-.07-.03-.15-.06-.22-.09-.07-.04-.14-.09-.21-.14-.48-.37-1.06-.69-1.72-.96-1.22-1.17-2.23-2.48-3.02-3.89,1.8.31,3.42.76,4.77,1.4.18.18.36.36.55.54.34.12.69.25,1.06.4.01-.01.01,0,.02.01.05.03.11.07.16.11Z"/>
    <path class="cls-2" d="M484.17,691.27c-.37-.15-.72-.28-1.06-.4-.19-.18-.37-.36-.55-.54.59.27,1.13.58,1.61.94Z"/>
    <path class="cls-2" d="M482.53,693.78c.07.05.14.1.21.14-.32-.11-.62-.22-.91-.32-.18-.07-.35-.17-.5-.3-.18-.16-.35-.32-.52-.48.66.27,1.24.59,1.72.96Z"/>
    <path class="cls-2" d="M445.68,691.12c.99-.21,20.34-4.24,32.11-2.19.79,1.41,1.8,2.72,3.02,3.89-7.83-3.28-27.16-.32-34.51,1.23-.1.02-.21.03-.31.03-.7,0-1.32-.48-1.47-1.19-.17-.81.35-1.6,1.16-1.77Z"/>
    <path class="cls-2" d="M439.36,657.72c-7.72,4.58-11.83,12.24-14.03,18.02l-.64-.25c.09-.25.11-.54.04-.83-.18-.8-.95-1.31-1.76-1.15,2.45-5.99,6.83-13.54,14.73-18.29.12-.1.26-.18.4-.24,7.49-4.44,19.6-12.75,20.69-16.46.02-.08.04-.16.07-.24,0-.05.02-.09.04-.14h0c.15-.44.42-.88,1.07-1.04.52-.12,1.07.04,1.45.43.37.38.5.94.35,1.46-.22.74-.14,1.52.23,2.2l.47.85c6.84,12.46,10.27,18.72,17.56,22.54.78.41,1.61.79,2.45,1.13.42.17.74.53.87.97s.05.91-.21,1.29c-.74,1.04-7.08,10.43-3.14,18.73.63,1.31,1.48,2.53,2.55,3.63-1.35-.64-2.97-1.09-4.77-1.4-.17-.31-.34-.63-.49-.95-3.82-8.04.32-16.68,2.42-20.21-.37-.17-.72-.35-1.07-.53-8.1-4.25-11.9-11.17-18.8-23.75l-.36-.67c-5.37,6.09-18.29,13.81-20.02,14.84-.02,0-.03.01-.05.02-.02.02-.04.03-.06.04Z"/>
    <path class="cls-2" d="M424.73,674.66c.07.29.05.58-.04.83-.17.47-.57.85-1.09.96-.7.16-1.35.37-1.94.66.36-1.1.8-2.31,1.31-3.6.81-.16,1.58.35,1.76,1.15Z"/>
    <path class="cls-2" d="M459.15,758.18c-8.83-3.39-14.71-8.45-16.83-10.47,0,0-.51-.48-1.25-1.25-.06-.06-1.38-1.43-2.65-2.94-9.55-11.39-14.53-22.77-16.99-32.63-4.24-16.98-1.04-29.44-.99-29.64.27-1,.66-2.43,1.22-4.14.59-.29,1.24-.5,1.94-.66.52-.11.92-.49,1.09-.96l.64.25c-1.01,2.66-1.62,4.92-1.99,6.29-.08.29-7.58,29.82,17.38,59.56,1.2,1.43,2.49,2.77,2.5,2.78.69.71,1.16,1.16,1.17,1.17,1.99,1.89,7.51,6.64,15.83,9.84,12.27,4.72,33.64,7.8,42.22-3.02,1.06-1.34,1.82-2.74,2.38-4.28h.46c-.08.21-.12.42-.11.64l.14,4.81c-.16.23-.34.47-.52.7-5.05,6.37-13.37,8.49-21.88,8.49s-18-2.32-23.76-4.54Z"/>
    <path class="cls-7" d="M421.43,710.89c2.46,9.86,7.44,21.24,16.99,32.63,1.27,1.51,2.59,2.88,2.65,2.94.74.77,1.25,1.25,1.25,1.25,2.12,2.02,8,7.08,16.83,10.47,5.76,2.22,14.86,4.54,23.76,4.54s16.83-2.12,21.88-8.49c.18-.23.36-.47.52-.7l.11,3.61c0,1.51-.75,2.89-2,3.7-5.63,3.65-11.74,6.14-18.15,7.4-18.98,3.72-34.2-4.6-39.86-8.35-22.58-14.96-24.89-41.86-25.13-47.1-.02-.53-.1-1.05-.23-1.56l1.38-.34Z"/>
    <path class="cls-7" d="M421.66,677.11c-.56,1.71-.95,3.14-1.22,4.14-.05.2-3.25,12.66.99,29.64l-1.38.34c-.05-.16-.09-.33-.15-.49-1.19-3.51-6.88-21.45-2.03-30.08.93-1.65,2.17-2.83,3.79-3.55Z"/>
    <path class="cls-2" d="M420.28,712.79c.24,5.24,2.55,32.14,25.13,47.1,5.66,3.75,20.88,12.07,39.86,8.35,6.41-1.26,12.52-3.75,18.15-7.4,1.25-.81,2-2.19,2-3.7l-.11-3.61c1.26-1.74,2.11-3.55,2.69-5.54.1.19.15.41.16.64l.26,8.47c0,2.57-1.26,4.89-3.37,6.26-5.96,3.86-12.41,6.49-19.2,7.82-3.54.69-6.95.99-10.2.99-15.21,0-26.98-6.53-31.9-9.78-23.78-15.76-26.22-43.97-26.47-49.46-.02-.43-.09-.84-.22-1.22-1.77-5.23-7.14-23.02-1.8-32.52,1.69-3,4.27-4.91,7.68-5.67,0,0,.02,0,.03-.01-.51,1.29-.95,2.5-1.31,3.6-1.62.72-2.86,1.9-3.79,3.55-4.85,8.63.84,26.57,2.03,30.08.06.16.1.33.15.49.13.51.21,1.03.23,1.56Z"/>
  </g>
  <path class="cls-16" d="M343.7,601.05s-1.35,5.62-2.38,6.55"/>
  <path class="cls-13" d="M337.66,603.61s16.51,32.09,7.83,37.87c-4.1,2.73-9.4,4.23-14.17,2.43-7.92-2.99-10.24-15.04-11.53-21.36-.33-1.6-.52-2.97-.64-3.96"/>
  <path class="cls-16" d="M312.98,617.48s4.94,2.04,8.34,0l3.4-2.04"/>
  <path class="cls-13" d="M293.49,621.27c.24,9.6,3.43,17.25,7.63,22.11,2.05,2.38,5.79,5.95,11.22,5.92,4.24-.02,9.14-2.32,10.91-6.27,1.18-2.64.31-4.56-1.93-14.33-1-4.35-1.73-7.89-2.17-10.11"/>
  <path class="cls-16" d="M288.85,620.07s5.32,1.32,6.94.34l1.62-.98"/>
  <path class="cls-16" d="M545.83,454.93s7.32,7.65,13.62,3.65c6.3-4,3.83-2.47,3.83-2.47"/>
  <path class="cls-16" d="M573.49,450.5s21.28-7.74,22.98,14.21c1.7,21.96-5.96,37.62-20.34,34.64"/>
  <path class="cls-16" d="M546.25,499.71s2.38-4.53,9.7-3.68l7.32.85"/>
  <ellipse class="cls-2" cx="582.25" cy="471.86" rx="5.45" ry="13.02"/>
  <path class="cls-16" d="M450.08,350.05s3.57-23.98,26.89-14.1"/>
  <path class="cls-16" d="M541.83,346.33s4.26-23.66,26.89-12.77"/>
  <path class="cls-11" d="M688.08,257.42s2,23.86-19.28,22.84c0,0,20.62-2.64,20.1,23.4,0,0-.78-26.55,18.46-24.51-1.39,1.68-19.63-4.32-19.28-21.73"/>
  <path class="cls-11" d="M486.49,622.86c-10.35,5.76-16.05,14.6-14.55,21.03.89,3.84,3.68,6.77,3.68,6.77,1.08,1.22,3.76,3.9,7.71,4.3,3.55.36,6.33-1.29,9.59-3.23,0,0,1.69-1,8.34-6.51h0c-4.92-7.45-9.84-14.9-14.76-22.36Z"/>
  <path class="cls-16" d="M482.05,666.16"/>
  <path class="cls-11" d="M481.05,613.99"/>
  <path class="cls-11" d="M481.05,613.97s30.92,49.91,32.38,56.61c.04.19.06.35.05.47-.3,4.24,10.85-12.42,22.37-13.94,0,0-24.95-53.97-33.35-57.3,0,0-18.1,3.34-20.45,14.16"/>
  <path class="cls-17" d="M289.24,572.66"/>
  <path class="cls-17" d="M265.99,526.87"/>
  <path class="cls-17" d="M397.93,592.53"/>
  <path class="cls-17" d="M381.39,534.73"/>
  <g>
    <g>
      <path class="cls-4" d="M679.14,343.54c.54.44.88,1.06.94,1.75.14,1.55.16,2.31.16,2.67-.81,3.48-23.45,43.14-58.86,101.54-.21.37-.58.61-1,.65-.43.07-.84-.09-1.15-.42l-2.37-2.43-57.8-59.07c-2.08-2.19-3.99-3.19-5.85-3.03h-.09c-1.62.17-3.08,1.19-4.36,3.07-.58.84-1.14,1.67-1.74,2.52-6.61,9.62-13.67,19.34-20.51,28.77-7.85,10.82-15.97,22.02-23.45,33.06-.67.99-1.53,1.55-2.41,1.6-.92.05-1.87-.45-2.66-1.42-.11-.13-.21-.25-.32-.38-11.7-14.03-23.86-28.24-35.63-42-11.86-13.87-24.11-28.21-35.91-42.34-.1-.12-.18-.66.23-1.57.15-.34.33-.65.52-.92.57-.83,1.25-1.34,1.64-1.38h0s248.7-21.28,248.7-21.28c.7-.06,1.38.14,1.91.58ZM663.81,361.08c1.4-2.45,1.32-5.3-.23-7.64-1.54-2.34-4.16-3.59-7.01-3.35l-214.14,18.3c-.81.06-1.37.74-1.3,1.51.01.11.03.21.06.31-.04.35.05.71.28,1.01l50.26,64.14c1.78,2.28,4.49,3.56,7.43,3.53s5.63-1.37,7.38-3.69l19.32-25.51,24.62-32.51c.8-1.06,2.01-1.73,3.34-1.86h.06c1.35-.12,2.69.33,3.67,1.24l55.41,51.39c1.87,1.73,4.36,2.55,6.9,2.3.16-.02.31-.03.46-.06,2.71-.41,5.03-1.99,6.36-4.32l23.38-40.79,13.76-24.01Z"/>
      <path class="cls-2" d="M661.32,359.72c.88-1.53.83-3.3-.14-4.77-.96-1.46-2.59-2.24-4.37-2.09l-211.92,18.11,35.21,44.95,13.9,17.74c1.24,1.58,3.11,2.46,5.14,2.45,2.04-.04,3.9-.96,5.11-2.56l18.26-24.12c.12-.04.22-.1.3-.16.07-.05.2-.15.91-1.1l2.13,1.53-19.32,25.51c-1.75,2.31-4.44,3.66-7.38,3.69s-5.64-1.25-7.43-3.53l-50.26-64.14c-.23-.29-.32-.66-.28-1.01-.03-.1-.05-.2-.06-.31-.07-.77.5-1.45,1.3-1.51l214.14-18.3c2.85-.24,5.47,1.01,7.01,3.35,1.54,2.35,1.63,5.2.23,7.64l-13.76,24.01-1.83-.99,7.55-13.57c.21-.38.23-.83.06-1.21l5.49-9.59Z"/>
      <path class="cls-2" d="M646.5,385.58l9.33-16.27c.17.38.15.83-.06,1.21l-7.55,13.57c-.08.16-.2.29-.33.41-.09.06-.58.46-1.39,1.08Z"/>
      <path class="cls-8" d="M652.26,371.02l-6.4,11.51c-1.4,1.11-9.7,7.5-18.75,10.82-6.43,2.37-12.36-.32-17.58-2.69-2.57-1.15-5-2.26-7.3-2.68-.85-.16-1.7-.18-2.54-.09-4.94.49-9.47,4.66-11.5,6.81l-6.96-7.66c2.69-2.04,9.36-6.94,13.58-8.62,4.79-1.9,10.19-1.32,19.92,2.1,8.87,3.13,13,.76,17.78-2,.57-.33,1.16-.67,1.76-1,2.37-1.32,3.71-2.44,4.78-3.34,1.56-1.32,2.5-2.12,5.85-2.68,3.2-.54,5.74-.57,7.34-.48Z"/>
      <path class="cls-2" d="M616.53,447.63c.49.6.4,1.47-.23,1.96l-.66.52-1.97-2.02.86-.67c.61-.48,1.51-.38,2,.21Z"/>
      <path class="cls-3" d="M556.99,390.16l56.68,57.93-5.14,4.04c-.56.16-1.84-.46-2.91-1.91-.03-.04-.08-.09-.11-.13l-55.47-58.66c.37-.53.73-1.07,1.1-1.6.79-1.15,1.53-1.74,2.29-1.83.91-.08,2.13.67,3.56,2.17Z"/>
      <path class="cls-2" d="M615.64,450.1l-5.47,4.31c-.08.06-.15.11-.24.15-.37.2-.77.3-1.19.34-1.76.18-3.82-.93-5.37-2.99l-54.96-58.12c.55-.79,1.09-1.58,1.63-2.38l55.47,58.66s.08.09.11.13c1.07,1.45,2.36,2.07,2.91,1.91l5.14-4.04,1.97,2.02Z"/>
      <path class="cls-2" d="M632.52,378.51c-4.79,2.76-8.91,5.13-17.78,2-9.73-3.43-15.13-4-19.92-2.1-4.23,1.68-10.89,6.58-13.58,8.62l6.96,7.66c2.03-2.14,6.56-6.31,11.5-6.81.84-.08,1.69-.07,2.54.09,2.3.42,4.73,1.53,7.3,2.68,5.22,2.37,11.15,5.06,17.58,2.69,9.05-3.32,17.35-9.71,18.75-10.82l6.4-11.51c-1.6-.09-4.14-.06-7.34.48-3.35.56-4.3,1.35-5.85,2.68-1.07.9-2.41,2.02-4.78,3.34-.61.33-1.19.67-1.76,1ZM646.5,385.58c-2.98,2.24-10.29,7.4-18.39,10.38-1.49.55-2.95.87-4.37,1.01-5.81.58-11.05-1.79-15.42-3.78-2.4-1.1-4.67-2.12-6.63-2.48-5.78-1.08-12.31,6.87-12.38,6.94-.26.33-.66.51-1.07.54-.42,0-.83-.16-1.11-.47l-9.03-9.95c-.26-.28-.39-.66-.35-1.04.03-.38.22-.73.52-.97.4-.31,9.72-7.67,15.48-9.95,6.32-2.5,13.08-1.06,21.95,2.07,7.61,2.69,10.7.9,15.38-1.79.58-.33,1.17-.68,1.8-1.02,2.13-1.17,3.29-2.16,4.32-3.03,1.74-1.46,3.1-2.62,7.23-3.32,6.3-1.07,10.22-.29,10.38-.25.44.09.8.38.99.78,0,0,.01.03.01.04l-9.33,16.27Z"/>
      <path class="cls-2" d="M588.24,398.2c.42-.02.81-.21,1.07-.54.07-.07,6.6-8.02,12.38-6.94,1.96.36,4.23,1.38,6.63,2.48,4.37,1.98,9.61,4.36,15.42,3.78,1.42-.14,2.88-.46,4.37-1.01,8.1-2.97,15.41-8.14,18.39-10.38l-22.31,38.94c-.9,1.57-2.47,2.64-4.29,2.91-1.81.28-3.64-.27-4.98-1.51l-29.01-26.92,1.24-1.28c.28.31.69.47,1.11.47Z"/>
      <path class="cls-2" d="M547.27,390.55c.58-.52,1.48-.49,2.01.07l.76.8c-.54.79-1.08,1.58-1.63,2.38l-1.22-1.28c-.46-.48-.49-1.19-.14-1.71.07-.09.13-.18.22-.26Z"/>
      <path class="cls-2" d="M559.06,388.25l57.8,59.07-.33.31c-.49-.6-1.39-.69-2-.21l-.86.67-56.68-57.93c-1.43-1.5-2.65-2.25-3.56-2.17-.77.09-1.5.67-2.29,1.83-.37.53-.73,1.07-1.1,1.6l-.76-.8c-.53-.56-1.43-.59-2.01-.07-.09.07-.16.16-.22.26h-.01c.59-.85,1.16-1.68,1.74-2.53,1.27-1.87,2.74-2.9,4.36-3.06h.09c1.86-.17,3.77.83,5.85,3.02Z"/>
      <path class="cls-8" d="M515.15,394.37c6.18,2.23,11.63.86,15.66-1.2-4.19,6.05-8.53,12.25-9.67,13.74-1.9.05-9.73-1.1-13.51-4.04-5.46-4.24-13.07-.03-14.63,1.83-.75.9-6.37,4.91-10.7,7.88l-7.65-9.85c1-.27,2.45-.67,3.99-1.16,1.52-.48,2.72-1.55,4.25-2.9,1.73-1.54,4.1-3.63,8.1-5.93,6.92-4,12.12-2.73,24.16,1.63Z"/>
      <path class="cls-2" d="M614.91,425.93c1.35,1.24,3.17,1.79,4.98,1.51,1.83-.28,3.39-1.34,4.29-2.91l22.31-38.94c.82-.62,1.3-1.02,1.39-1.08.13-.12.25-.25.33-.41l1.83.99-23.38,40.79c-1.33,2.34-3.65,3.91-6.36,4.32-.15.02-.3.04-.46.06-2.54.25-5.03-.57-6.9-2.3l-55.41-51.39c-.98-.91-2.31-1.37-3.67-1.25h-.06c-1.32.14-2.54.81-3.34,1.87l-24.62,32.51-2.13-1.53c.67-.91,1.88-2.58,4.08-5.72l.04-.06,20.34-26.85c1.27-1.69,3.22-2.77,5.35-2.98h.09c2.16-.2,4.3.53,5.87,1.98l26.39,24.49,29.01,26.92Z"/>
      <path class="cls-2" d="M522.51,409.41l5.29-6.98c-2.2,3.14-3.41,4.81-4.08,5.72-.72.95-.84,1.05-.91,1.1-.08.06-.18.12-.3.16Z"/>
      <path class="cls-2" d="M516.15,391.76c11.04,3.99,19.27-5.36,19.62-5.76.49-.57,1.34-.67,1.95-.22s.75,1.28.32,1.89c-4.72,6.86-7.96,11.52-10.2,14.7l-.04.06-5.29,6.98c-2.37.97-12.39-1.03-16.66-4.35-3.83-2.97-9.71.29-10.65,1.41-1.37,1.63-10.57,7.94-12.41,9.18-.21.14-.44.22-.67.24-.47.05-.96-.15-1.28-.55l-10.07-12.98c-.47-.61-.35-1.49.28-1.95.5-.38,1.17-.38,1.66-.05.39-.1,2.66-.66,5.06-1.43.93-.3,1.88-1.14,3.21-2.31,1.82-1.62,4.31-3.82,8.56-6.28,7.96-4.59,13.91-3.17,26.61,1.42ZM521.14,406.91c1.14-1.49,5.48-7.69,9.67-13.74-4.03,2.05-9.48,3.43-15.66,1.2-12.04-4.36-17.24-5.62-24.16-1.63-4,2.3-6.37,4.4-8.1,5.93-1.53,1.35-2.73,2.42-4.25,2.9-1.54.49-2.99.9-3.99,1.16l7.65,9.85c4.34-2.97,9.95-6.99,10.7-7.88,1.56-1.86,9.17-6.07,14.63-1.83,3.78,2.94,11.61,4.09,13.51,4.04Z"/>
      <path class="cls-2" d="M528.86,421.18c-7.84,10.8-15.95,21.99-23.4,32.98-1.18,1.75-2.85,2.78-4.65,2.86-1.6.08-3.15-.55-4.44-1.82l1.07-.81c.62-.47.73-1.35.25-1.96.12.13.22.25.32.38.79.97,1.74,1.46,2.66,1.42.88-.05,1.74-.61,2.41-1.6,7.48-11.05,15.6-22.24,23.45-33.06,6.84-9.43,13.9-19.16,20.51-28.77h.01c-.35.53-.32,1.24.14,1.72l1.22,1.28c-6.35,9.18-13.04,18.41-19.55,27.38Z"/>
      <path class="cls-2" d="M495.79,454.59c-.42-.51-.85-1.01-1.27-1.52l1.15-.87c.62-.47,1.52-.37,2,.24s.37,1.49-.25,1.96l-1.07.81c-.19-.19-.38-.39-.57-.62Z"/>
      <path class="cls-3" d="M494.52,453.08l-4.86,3.7c-.34.26-.81.21-1.08-.11l-75.11-88.24c-.27-.32-.18-.65-.13-.78s.22-.43.65-.48l9.46-.94c-.21.68-.28,1.34-.22,1.93.07.66.3,1.25.7,1.72,11.8,14.14,24.07,28.48,35.93,42.36,11.44,13.37,23.25,27.19,34.66,40.84Z"/>
      <path class="cls-2" d="M494,433.65l-13.9-17.74.75-.56c.32.4.8.59,1.28.55.24-.02.47-.1.67-.24,1.83-1.25,11.04-7.55,12.41-9.18.94-1.12,6.82-4.38,10.65-1.41,4.27,3.32,14.29,5.33,16.66,4.35l-18.26,24.12c-1.22,1.61-3.07,2.53-5.11,2.56-2.03.02-3.91-.87-5.14-2.45Z"/>
      <path class="cls-2" d="M661.32,359.72l-5.49,9.59s-.01-.03-.01-.04c-.19-.4-.56-.69-.99-.78-.17-.04-4.08-.82-10.38.25-4.13.7-5.5,1.86-7.23,3.32-1.03.87-2.19,1.85-4.32,3.03-.62.34-1.22.69-1.8,1.02-4.68,2.69-7.77,4.47-15.38,1.79-8.87-3.13-15.63-4.57-21.95-2.07-5.76,2.28-15.08,9.64-15.48,9.95-.3.24-.49.59-.52.97-.04.38.09.76.35,1.04l9.03,9.95-1.24,1.28-26.39-24.49c-1.57-1.45-3.71-2.18-5.87-1.99h-.09c-2.13.22-4.07,1.3-5.35,2.99l-20.34,26.85c2.23-3.17,5.47-7.84,10.2-14.7.43-.61.29-1.45-.32-1.89s-1.46-.35-1.95.22c-.35.4-8.59,9.75-19.62,5.76-12.69-4.59-18.65-6.01-26.61-1.42-4.25,2.46-6.75,4.66-8.56,6.28-1.33,1.17-2.28,2.01-3.21,2.31-2.41.77-4.67,1.33-5.06,1.43-.49-.32-1.16-.32-1.66.05-.63.46-.75,1.35-.28,1.95l10.07,12.98-.75.56-35.21-44.95,211.92-18.11c1.78-.15,3.42.63,4.37,2.09.97,1.46,1.02,3.24.14,4.77Z"/>
      <path class="cls-2" d="M616.86,447.31l2.37,2.43c.31.32.72.49,1.15.42.43-.04.79-.28,1-.65,35.4-58.4,58.05-98.06,58.86-101.54,0-.36-.03-1.13-.16-2.67-.06-.69-.4-1.31-.94-1.75-.53-.44-1.21-.65-1.91-.58l-248.7,21.28h0c-.39.04-1.07.55-1.64,1.38h-1.46c.23-.27.36-.64.32-1.02-.05-.49-.36-.9-.78-1.1.89-1.07,2.07-1.92,3.34-2.04l248.68-21.28c1.45-.14,2.88.3,4,1.22s1.81,2.21,1.94,3.64c.12,1.42.18,2.43.17,3.01-.04,3.59-30.73,55.83-59.23,102.84-.65,1.13-1.81,1.88-3.15,2.03h-.08c-1.31.14-2.57-.32-3.47-1.27l-1.52-1.55.66-.52c.62-.48.71-1.36.23-1.96l.33-.31Z"/>
      <path class="cls-2" d="M462.05,410.44c11.76,13.76,23.92,27.97,35.63,42-.48-.61-1.38-.71-2-.24l-1.15.87c-11.41-13.65-23.22-27.46-34.66-40.84-11.86-13.88-24.13-28.22-35.93-42.36-.4-.47-.63-1.07-.7-1.72-.06-.59,0-1.24.22-1.93l1.01-.1c.4-.04.73-.23.96-.51h1.46c-.19.27-.37.57-.52.91-.41.91-.32,1.45-.23,1.57,11.8,14.13,24.05,28.47,35.91,42.34Z"/>
      <path class="cls-2" d="M424.96,363.5c.42.2.73.61.78,1.1.04.38-.09.75-.32,1.02s-.56.47-.96.51l-1.01.1c.08-.26.18-.52.29-.79.28-.65.7-1.33,1.22-1.94Z"/>
      <path class="cls-2" d="M413.99,367.17c-.43.04-.6.35-.65.48s-.14.46.13.78l75.11,88.24c.27.32.74.36,1.08.11l4.86-3.7c.42.51.85,1.01,1.27,1.52.18.22.38.43.57.62l-4.95,3.76c-.57.43-1.22.68-1.87.75-1.16.12-2.35-.33-3.15-1.26l-75.11-88.23c-.86-1.02-1.07-2.41-.56-3.63.52-1.22,1.67-2.06,3.01-2.2l10.47-1.04c.28-.03.55.02.78.15-.52.61-.94,1.29-1.22,1.94-.12.26-.21.53-.29.79l-9.46.94Z"/>
    </g>
    <g>
      <path class="cls-14" d="M527.81,402.43c-2.2,3.14-3.41,4.81-4.08,5.72-.72.95-.84,1.05-.91,1.1-.08.06-.18.12-.3.16-2.37.97-12.39-1.03-16.66-4.35-3.83-2.97-9.71.29-10.65,1.41-1.37,1.63-10.57,7.94-12.41,9.18-.21.14-.44.22-.67.24-.47.05-.96-.15-1.28-.55l-10.07-12.98c-.47-.61-.35-1.49.28-1.95.5-.38,1.17-.38,1.66-.05.39-.1,2.66-.66,5.06-1.43.93-.3,1.88-1.14,3.21-2.31,1.82-1.62,4.31-3.82,8.56-6.28,7.96-4.59,13.91-3.17,26.61,1.42,11.04,3.99,19.27-5.36,19.62-5.76.49-.57,1.34-.67,1.95-.22s.75,1.28.32,1.89c-4.72,6.86-7.96,11.52-10.2,14.7"/>
      <path class="cls-14" d="M474.65,402.74l7.65,9.85c4.34-2.97,9.95-6.99,10.7-7.88,1.56-1.86,9.17-6.07,14.63-1.83,3.78,2.94,11.61,4.09,13.51,4.04,1.14-1.49,5.48-7.69,9.67-13.74-4.03,2.05-9.48,3.43-15.66,1.2-12.04-4.36-17.24-5.62-24.16-1.63-4,2.3-6.37,4.4-8.1,5.93-1.53,1.35-2.73,2.42-4.25,2.9-1.54.49-2.99.9-3.99,1.16Z"/>
      <path class="cls-14" d="M646.5,385.58c-2.98,2.24-10.29,7.4-18.39,10.38-1.49.55-2.95.87-4.37,1.01-5.81.58-11.05-1.79-15.42-3.78-2.4-1.1-4.67-2.12-6.63-2.48-5.78-1.08-12.31,6.87-12.38,6.94-.26.33-.66.51-1.07.54-.42,0-.83-.16-1.11-.47l-9.03-9.95c-.26-.28-.39-.66-.35-1.04.03-.38.22-.73.52-.97.4-.31,9.72-7.67,15.48-9.95,6.32-2.5,13.08-1.06,21.95,2.07,7.61,2.69,10.7.9,15.38-1.79.58-.33,1.17-.68,1.8-1.02,2.13-1.17,3.29-2.16,4.32-3.03,1.74-1.46,3.1-2.62,7.23-3.32,6.3-1.07,10.22-.29,10.38-.25.44.09.8.38.99.78,0,0,.01.03.01.04.17.38.15.83-.06,1.21l-7.55,13.57c-.08.16-.2.29-.33.41-.09.06-.58.46-1.39,1.08Z"/>
      <path class="cls-14" d="M599.69,387.88c.84-.08,1.69-.07,2.54.09,2.3.42,4.73,1.53,7.3,2.68,5.22,2.37,11.15,5.06,17.58,2.69,9.05-3.32,17.35-9.71,18.75-10.82l6.4-11.51c-1.6-.09-4.14-.06-7.34.48-3.35.56-4.3,1.35-5.85,2.68-1.07.9-2.41,2.02-4.78,3.34-.61.33-1.19.67-1.76,1-4.79,2.76-8.91,5.13-17.78,2-9.73-3.43-15.13-4-19.92-2.1-4.23,1.68-10.89,6.58-13.58,8.62l6.96,7.66c2.03-2.14,6.56-6.31,11.5-6.81Z"/>
      <path class="cls-14" d="M424.96,363.5c.89-1.07,2.07-1.92,3.34-2.04l248.68-21.28c1.45-.14,2.88.3,4,1.22s1.81,2.21,1.94,3.64c.12,1.42.18,2.43.17,3.01-.04,3.59-30.73,55.83-59.23,102.84-.65,1.13-1.81,1.88-3.15,2.03h-.08c-1.31.14-2.57-.32-3.47-1.27l-1.52-1.55-1.97-2.02-56.68-57.93c-1.43-1.5-2.65-2.25-3.56-2.17-.77.09-1.5.67-2.29,1.83-.37.53-.73,1.07-1.1,1.6-.54.79-1.08,1.58-1.63,2.38-6.35,9.18-13.04,18.41-19.55,27.38-7.84,10.8-15.95,21.99-23.4,32.98-1.18,1.75-2.85,2.78-4.65,2.86-1.6.08-3.15-.55-4.44-1.82-.19-.19-.38-.39-.57-.62-.42-.51-.85-1.01-1.27-1.52-11.41-13.65-23.22-27.46-34.66-40.84-11.86-13.88-24.13-28.22-35.93-42.36-.4-.47-.63-1.07-.7-1.72-.06-.59,0-1.24.22-1.93.08-.26.18-.52.29-.79.28-.65.7-1.33,1.22-1.94Z"/>
      <path class="cls-14" d="M547.04,390.8c.59-.84,1.16-1.68,1.74-2.52,1.27-1.87,2.74-2.9,4.36-3.06h.09c1.86-.17,3.77.83,5.85,3.02l57.8,59.07,2.37,2.43c.31.32.72.49,1.15.42.43-.04.79-.28,1-.65,35.4-58.4,58.05-98.06,58.86-101.54,0-.36-.03-1.13-.16-2.67-.06-.69-.4-1.31-.94-1.75-.53-.44-1.21-.65-1.91-.58l-248.7,21.28h0c-.39.04-1.07.55-1.64,1.38-.19.27-.37.58-.52.92-.41.91-.32,1.45-.23,1.57,11.8,14.13,24.05,28.47,35.91,42.34,11.76,13.76,23.92,27.97,35.63,42,.12.13.22.25.32.38.79.97,1.74,1.46,2.66,1.42.88-.05,1.74-.61,2.41-1.6,7.48-11.05,15.6-22.24,23.45-33.06,6.84-9.43,13.9-19.16,20.51-28.77Z"/>
      <path class="cls-14" d="M650.05,385.09l-23.38,40.79c-1.33,2.34-3.65,3.91-6.36,4.32-.15.02-.3.04-.46.06-2.54.25-5.03-.57-6.9-2.3l-55.41-51.39c-.98-.91-2.31-1.37-3.67-1.25h-.06c-1.32.14-2.54.81-3.34,1.87l-24.62,32.51-19.32,25.51c-1.75,2.31-4.44,3.66-7.38,3.69s-5.64-1.25-7.43-3.53l-50.26-64.14c-.23-.29-.32-.66-.28-1.01-.03-.1-.05-.2-.06-.31-.07-.77.5-1.45,1.3-1.51l214.14-18.3c2.85-.24,5.47,1.01,7.01,3.35,1.54,2.35,1.63,5.2.23,7.64l-13.76,24.01Z"/>
      <path class="cls-14" d="M527.85,402.37l20.34-26.85c1.27-1.69,3.22-2.77,5.35-2.98h.09c2.16-.2,4.3.53,5.87,1.98l26.39,24.49,29.01,26.92c1.35,1.24,3.17,1.79,4.98,1.51,1.83-.28,3.39-1.34,4.29-2.91l22.31-38.94,9.33-16.27,5.49-9.59c.88-1.53.83-3.3-.14-4.77-.96-1.46-2.59-2.24-4.37-2.09l-211.92,18.11,35.21,44.95,13.9,17.74c1.24,1.58,3.11,2.46,5.14,2.45,2.04-.04,3.9-.96,5.11-2.56l18.26-24.12,5.29-6.98.04-.06Z"/>
      <path class="cls-14" d="M615.64,450.1l-5.47,4.31c-.08.06-.15.11-.24.15-.37.2-.77.3-1.19.34-1.76.18-3.82-.93-5.37-2.99l-54.96-58.12-1.22-1.28c-.46-.48-.49-1.19-.14-1.71.07-.09.13-.18.22-.26.58-.52,1.48-.49,2.01.07l.76.8,55.47,58.66s.08.09.11.13c1.07,1.45,2.36,2.07,2.91,1.91l5.14-4.04.86-.67c.61-.48,1.51-.38,2,.21s.4,1.47-.23,1.96l-.66.52Z"/>
      <path class="cls-14" d="M496.36,455.21l-4.95,3.76c-.57.43-1.22.68-1.87.75-1.16.12-2.35-.33-3.15-1.26l-75.11-88.23c-.86-1.02-1.07-2.41-.56-3.63.52-1.22,1.67-2.06,3.01-2.2l10.47-1.04c.28-.03.55.02.78.15.42.2.73.61.78,1.1.04.38-.09.75-.32,1.02s-.56.47-.96.51l-1.01.1-9.46.94c-.43.04-.6.35-.65.48s-.14.46.13.78l75.11,88.24c.27.32.74.36,1.08.11l4.86-3.7,1.15-.87c.62-.47,1.52-.37,2,.24s.37,1.49-.25,1.96l-1.07.81Z"/>
    </g>
  </g>
</svg>