<svg xmlns="http://www.w3.org/2000/svg" xmlns:xlink="http://www.w3.org/1999/xlink" fill="none" version="1.1" width="200.60986328125" height="199.22998046875" viewBox="0 0 200.60986328125 199.22998046875"><g><g><g><g><path d="M200.11002838134766,148.0199822998047C200.11002838134766,150.6699822998047,178.06002838134765,151.12998229980468,177.57002838134764,153.62998229980468C177.06002838134765,156.2099822998047,197.27002838134766,165.01998229980467,196.29002838134767,167.38998229980467C195.29002838134767,169.8099822998047,174.74002838134766,161.8099822998047,173.31002838134765,163.9599822998047C171.87002838134765,166.12998229980468,187.17002838134766,181.99998229980469,185.35002838134767,183.82998229980467C183.52002838134766,185.6699822998047,167.57002838134764,170.43998229980468,165.42002838134766,171.8999822998047C163.28002838134768,173.3399822998047,171.36002838134766,193.8599822998047,168.95002838134764,194.8599822998047C166.58002838134766,195.8499822998047,157.71002838134766,175.6699822998047,155.14002838134766,176.1799822998047C152.64002838134766,176.6799822998047,152.20002838134766,198.7299822998047,149.55002838134766,198.7299822998047C146.90002838134765,198.7299822998047,146.46002838134766,176.6799822998047,143.96002838134766,176.1799822998047C141.38002838134764,175.6699822998047,132.52002838134766,195.8499822998047,130.15002838134765,194.8599822998047C127.74002838134766,193.8599822998047,135.82002838134764,173.3399822998047,133.68002838134765,171.8999822998047C131.52002838134766,170.44998229980467,115.57002838134765,185.6699822998047,113.75002838134766,183.82998229980467C111.92002838134766,181.9899822998047,127.23002838134765,166.1199822998047,125.79002838134765,163.9599822998047C124.36002838134766,161.8099822998047,103.81002838134765,169.8099822998047,102.81002838134765,167.38998229980467C101.83002838134766,165.01998229980467,122.04002838134765,156.2099822998047,121.53002838134765,153.62998229980468C121.04002838134765,151.12998229980468,98.99002838134766,150.65998229980468,98.99002838134766,148.0199822998047C98.99002838134766,145.37998229980468,121.04002838134765,144.90998229980468,121.53002838134765,142.40998229980468C122.04002838134765,139.8299822998047,101.83002838134766,131.0199822998047,102.81002838134765,128.6499822998047C103.81002838134765,126.22998229980469,124.36002838134766,134.2299822998047,125.79002838134765,132.0799822998047C127.23002838134765,129.90998229980468,111.93002838134765,114.03998229980469,113.75002838134766,112.2099822998047C115.58002838134766,110.36998229980469,131.53002838134765,125.59998229980468,133.68002838134765,124.13998229980469C135.82002838134764,122.69998229980469,127.74002838134766,102.17998229980469,130.15002838134765,101.17998229980469C132.52002838134766,100.18998229980468,141.39002838134766,120.36998229980469,143.96002838134766,119.85998229980468C146.46002838134766,119.35998229980468,146.90002838134765,97.30998229980469,149.55002838134766,97.30998229980469C152.20002838134766,97.30998229980469,152.64002838134766,119.35998229980468,155.14002838134766,119.85998229980468C157.72002838134765,120.36998229980469,166.58002838134766,100.18998229980468,168.95002838134764,101.17998229980469C171.36002838134766,102.18998229980468,163.28002838134768,122.69998229980469,165.42002838134766,124.13998229980469C167.58002838134766,125.58998229980469,183.53002838134768,110.36998229980469,185.35002838134767,112.2099822998047C187.18002838134765,114.04998229980468,171.87002838134765,129.9199822998047,173.31002838134765,132.0799822998047C174.74002838134766,134.2299822998047,195.29002838134767,126.22998229980469,196.29002838134767,128.6499822998047C197.27002838134766,131.0199822998047,177.06002838134765,139.8299822998047,177.57002838134764,142.40998229980468C178.06002838134765,144.90998229980468,200.11002838134766,145.37998229980468,200.11002838134766,148.0199822998047Z" fill="#A47FFF" fill-opacity="1"/></g><g><path d="M149.53998809814453,199.23003662109375C147.91998809814453,199.23003662109375,147.25998809814453,195.61003662109374,146.14998809814455,187.36003662109374C145.58998809814454,183.23003662109375,144.74998809814454,177.00003662109376,143.84998809814454,176.67003662109374Q143.82998809814453,176.67003662109374,143.81998809814453,176.67003662109374C142.81998809814453,176.67003662109374,139.45998809814452,182.42003662109374,137.44998809814453,185.86003662109374C133.33998809814454,192.90003662109376,131.38998809814453,195.92003662109374,129.94998809814453,195.32003662109375C128.47998809814453,194.71003662109376,129.25998809814453,191.15003662109376,131.38998809814453,183.17003662109374C132.40998809814454,179.34003662109376,134.11998809814452,172.94003662109375,133.39998809814455,172.31003662109373C132.54998809814452,171.85003662109375,127.21998809814453,175.89003662109377,124.03998809814453,178.30003662109374C117.49998809814453,183.25003662109376,114.50998809814453,185.31003662109373,113.38998809814453,184.19003662109375C112.27998809814453,183.07003662109375,114.33998809814453,180.10003662109375,119.32998809814453,173.58003662109377C121.75998809814453,170.41003662109375,125.81998809814453,165.10003662109375,125.36998809814453,164.24003662109374C124.73998809814454,163.51003662109375,118.32998809814453,165.20003662109374,114.49998809814453,166.20003662109374C106.50999809814454,168.30003662109374,102.94998809814453,169.06003662109373,102.33999809814453,167.59003662109376C101.73999809814453,166.14003662109377,104.76999809814453,164.20003662109374,111.81998809814453,160.12003662109376C115.30998809814453,158.10003662109375,121.14998809814453,154.71003662109376,121.02998809814453,153.74003662109374C120.70998809814454,152.85003662109375,114.46998809814453,152.00003662109376,110.34998809814454,151.44003662109375C102.09998809814454,150.32003662109375,98.47998809814453,149.66003662109375,98.47998809814453,148.04003662109375C98.47998809814453,146.42003662109374,102.09998809814454,145.76003662109375,110.34998809814454,144.64003662109374C114.47998809814453,144.08003662109374,120.70998809814454,143.23003662109375,121.03998809814453,142.33003662109374C121.15998809814454,141.37003662109376,115.31998809814453,137.98003662109375,111.82998809814453,135.96003662109376C104.77998809814453,131.87003662109376,101.74998809814453,129.93003662109373,102.34998809814454,128.49003662109374C102.95998809814454,127.01003662109375,106.51998809814452,127.78003662109376,114.50998809814453,129.88003662109375C118.33998809814453,130.89003662109374,124.74998809814453,132.57003662109375,125.37998809814454,131.84003662109376C125.82998809814453,130.99003662109374,121.76998809814452,125.68003662109375,119.33998809814453,122.51003662109375C114.34998809814454,115.99003662109375,112.28998809814453,113.02003662109375,113.39998809814453,111.90003662109375C114.50998809814453,110.78003662109376,117.49998809814453,112.83003662109375,124.04998809814452,117.79003662109375C127.22998809814453,120.20003662109374,132.55998809814452,124.23003662109375,133.40998809814454,123.77003662109375C134.13998809814453,123.14003662109374,132.41998809814453,116.73003662109375,131.39998809814455,112.91003662109375C129.26998809814452,104.94003662109375,128.48998809814452,101.38004662109375,129.95998809814452,100.76003662109375C131.39998809814455,100.16004662109376,133.35998809814453,103.18003662109375,137.45998809814452,110.22003662109375C139.46998809814454,113.67003662109374,142.81998809814453,119.41003662109375,143.82998809814453,119.41003662109375C143.83998809814454,119.41003662109375,143.84998809814454,119.41003662109375,143.85998809814453,119.41003662109375C144.74998809814454,119.09003662109374,145.59998809814454,112.85003662109375,146.14998809814455,108.72003662109375C147.26998809814452,100.47003662109375,147.91998809814453,96.85003662109375,149.53998809814453,96.85003662109375C151.15998809814454,96.85003662109375,151.81998809814453,100.47003662109375,152.92998809814452,108.72003662109375C153.48998809814452,112.85003662109375,154.32998809814453,119.08003662109375,155.22998809814453,119.41003662109375C156.20998809814452,119.51003662109375,159.59998809814454,113.70003662109374,161.62998809814454,110.22003662109375C165.73998809814452,103.18003662109375,167.6899880981445,100.16004662109376,169.13998809814453,100.76003662109375C170.60998809814453,101.37003662109375,169.82998809814453,104.93003662109375,167.69998809814453,112.90003662109375C166.67998809814452,116.73003662109375,164.95998809814455,123.13003662109375,165.6899880981445,123.77003662109375C166.53998809814453,124.22003662109375,171.86998809814452,120.19003662109375,175.04998809814452,117.78003662109376C181.59998809814454,112.83003662109375,184.57998809814453,110.77003662109375,185.69998809814453,111.89003662109374C186.80998809814452,113.01003662109375,184.7499880981445,115.98003662109375,179.75998809814453,122.50003662109376C177.32998809814453,125.67003662109374,173.26998809814455,130.98003662109375,173.71998809814454,131.84003662109376C174.34998809814454,132.57003662109375,180.75998809814453,130.88003662109375,184.58998809814454,129.88003662109375C192.57998809814453,127.78003662109376,196.13998809814453,127.02003662109375,196.7499880981445,128.49003662109374C197.34998809814454,129.94003662109375,194.31998809814453,131.88003662109375,187.26998809814455,135.96003662109376C183.77998809814454,137.98003662109375,177.9399880981445,141.37003662109376,178.05998809814452,142.34003662109376C178.37998809814454,143.23003662109375,184.61998809814452,144.08003662109374,188.73998809814452,144.64003662109374C196.98998809814452,145.76003662109375,200.60998809814453,146.42003662109374,200.60998809814453,148.04003662109375C200.60998809814453,149.66003662109375,196.98998809814452,150.32003662109375,188.73998809814452,151.44003662109375C184.60998809814453,152.00003662109376,178.37998809814454,152.85003662109375,178.04998809814452,153.75003662109376C177.92998809814452,154.71003662109376,183.76998809814455,158.10003662109375,187.25998809814453,160.12003662109376C194.30998809814452,164.21003662109376,197.33998809814454,166.15003662109376,196.73998809814452,167.59003662109376C196.12998809814454,169.07003662109375,192.56998809814453,168.30003662109374,184.57998809814453,166.20003662109374C180.7499880981445,165.19003662109375,174.33998809814454,163.51003662109375,173.70998809814455,164.24003662109374C173.25998809814453,165.09003662109376,177.31998809814453,170.40003662109376,179.7499880981445,173.57003662109375C184.73998809814452,180.09003662109376,186.79998809814452,183.06003662109373,185.6899880981445,184.18003662109373C184.57998809814453,185.30003662109374,181.58998809814454,183.25003662109376,175.03998809814453,178.29003662109375C171.85998809814453,175.88003662109375,166.53998809814453,171.85003662109375,165.67998809814452,172.31003662109373C164.94998809814453,172.94003662109375,166.66998809814453,179.35003662109375,167.6899880981445,183.17003662109374C169.81998809814453,191.14003662109377,170.59998809814454,194.70003662109374,169.12998809814454,195.32003662109375C167.67998809814452,195.92003662109374,165.72998809814453,192.90003662109376,161.61998809814452,185.86003662109374C159.58998809814454,182.38003662109375,156.20998809814452,176.54003662109375,155.21998809814454,176.67003662109374C154.32998809814453,176.99003662109374,153.47998809814453,183.23003662109375,152.92998809814452,187.36003662109374C151.80998809814452,195.61003662109374,151.15998809814454,199.23003662109375,149.53998809814453,199.23003662109375ZM143.84998809814454,175.67003662109374C143.91998809814453,175.67003662109374,143.97998809814453,175.67003662109374,144.04998809814452,175.69003662109375C145.47998809814453,175.97003662109375,146.08998809814454,179.42003662109374,147.13998809814453,187.22003662109375C147.67998809814452,191.25003662109376,148.58998809814454,197.99003662109374,149.54998809814452,198.23003662109375C150.48998809814452,197.99003662109374,151.39998809814455,191.25003662109376,151.94998809814453,187.23003662109375C152.99998809814454,179.43003662109373,153.60998809814453,175.98003662109375,155.03998809814453,175.70003662109374C156.51998809814452,175.40003662109376,158.44998809814453,178.42003662109374,162.4999880981445,185.37003662109373C164.59998809814454,188.97003662109375,167.76998809814455,194.41003662109375,168.7499880981445,194.41003662109375Q168.75998809814453,194.41003662109375,168.76998809814455,194.41003662109375C169.4999880981445,193.80003662109374,167.76998809814455,187.32003662109375,166.73998809814452,183.44993662109374C164.6899880981445,175.77003662109377,163.91998809814453,172.31993662109375,165.13998809814453,171.49993662109375C166.36998809814452,170.66993662109377,169.28998809814453,172.69003662109375,175.65998809814454,177.52003662109377C178.82998809814453,179.91993662109377,184.14998809814455,183.94003662109375,184.9999880981445,183.49003662109374C185.42998809814452,182.63993662109374,181.37998809814454,177.35993662109377,178.96998809814454,174.20003662109374C174.10998809814453,167.85003662109375,172.06998809814453,164.94003662109375,172.89998809814455,163.70003662109374C173.71998809814454,162.47003662109375,177.16998809814453,163.23003662109375,184.84998809814454,165.25003662109376C188.72998809814453,166.27003662109377,195.21998809814454,167.97003662109375,195.82998809814453,167.21003662109376C195.87998809814454,166.27003662109377,190.39998809814455,163.09003662109376,186.76998809814455,160.99003662109374C179.80998809814452,156.95003662109374,176.78998809814453,155.03003662109376,177.07998809814453,153.55003662109374C177.35998809814453,152.12003662109376,180.80998809814452,151.51003662109375,188.60998809814453,150.45003662109374C192.62998809814454,149.90003662109376,199.34998809814454,148.99003662109374,199.60998809814453,148.04003662109375C199.34998809814454,147.09003662109376,192.62998809814454,146.17003662109374,188.60998809814453,145.63003662109375C180.80998809814452,144.57003662109375,177.35998809814453,143.95003662109374,177.07998809814453,142.52993662109375C176.78998809814453,141.05003662109374,179.80998809814452,139.13003662109375,186.76998809814455,135.08993662109376C190.39998809814455,132.98993662109376,195.87998809814454,129.80993662109375,195.81998809814453,128.84993662109375C195.21998809814454,128.10993662109374,188.71998809814454,129.81993662109375,184.83998809814454,130.82993662109374C177.15998809814454,132.84993662109375,173.69998809814453,133.59993662109375,172.88998809814453,132.37993662109375C172.05998809814452,131.13993662109374,174.10998809814453,128.22993662109374,178.95998809814455,121.87993662109375C181.37998809814454,118.71993662109375,185.41998809814453,113.43993662109375,184.97998809814453,112.57993662109375C184.13998809814453,112.14993662109374,178.82998809814453,116.16993662109375,175.64998809814455,118.56993662109375C169.27998809814454,123.38993662109375,166.35998809814453,125.41993662109375,165.12998809814454,124.58993662109376C163.90998809814454,123.76993662109375,164.67998809814452,120.31993662109375,166.72998809814453,112.63993662109375C167.76998809814455,108.76993662109375,169.4999880981445,102.28996662109375,168.73998809814452,101.66996662109375Q168.73998809814452,101.66996662109375,168.72998809814453,101.66996662109375C167.76998809814455,101.66996662109375,164.59998809814454,107.10993662109375,162.48998809814452,110.70993662109375C158.43998809814454,117.65993662109375,156.50998809814453,120.67993662109374,155.02998809814454,120.37993662109375C153.59998809814454,120.09993662109375,152.98998809814452,116.64993662109376,151.93998809814454,108.84993662109375C151.39998809814455,104.81996662109376,150.48998809814452,98.08996662109375,149.52998809814454,97.84996762109375C148.58998809814454,98.08996662109375,147.67998809814452,104.82996662109375,147.12998809814454,108.85993662109375C146.07998809814453,116.65993662109375,145.46998809814454,120.10993662109375,144.03998809814453,120.38993662109375C142.56998809814453,120.68993662109375,140.62998809814454,117.66993662109375,136.57998809814453,110.71993662109375C134.47998809814453,107.11993662109376,131.30998809814452,101.67996662109375,130.32998809814453,101.67996662109375Q130.31998809814453,101.67996662109375,130.30998809814452,101.67996662109375C129.57998809814453,102.28996662109375,131.30998809814452,108.76993662109375,132.33998809814454,112.63993662109375C134.38998809814453,120.31993662109375,135.15998809814454,123.76993662109375,133.93998809814454,124.58993662109376C132.70998809814452,125.41993662109375,129.78998809814453,123.39993662109376,123.41998809814453,118.56993662109375C120.24998809814453,116.16993662109375,114.93998809814454,112.14993662109374,114.07998809814453,112.59993662109375C113.64998809814453,113.44993662109376,117.69998809814453,118.72993662109374,120.10998809814453,121.88993662109375C124.96998809814453,128.23993662109376,127.00998809814453,131.14993662109376,126.17998809814453,132.38993662109374C125.35998809814453,133.61993662109376,121.90998809814454,132.85993662109377,114.22998809814453,130.83993662109376C110.34998809814454,129.81993662109375,103.85000809814453,128.11993662109376,103.24999809814453,128.87993662109375C103.19999809814453,129.81993662109375,108.67998809814453,132.99993662109375,112.30998809814453,135.09993662109375C119.26998809814452,139.13993662109374,122.28998809814453,141.05993662109375,121.99998809814453,142.53993662109374C121.71998809814453,143.96993662109375,118.26998809814452,144.57993662109374,110.46998809814453,145.63993662109374C106.43999809814453,146.18993662109375,99.70999809814452,147.10993662109377,99.47000109814454,148.05993662109375C99.70999809814452,148.99993662109375,106.45000809814454,149.91993662109374,110.46998809814453,150.46993662109375C118.26998809814452,151.52993662109375,121.71998809814453,152.14993662109376,121.99998809814453,153.56993662109375C122.28998809814453,155.04993662109376,119.26998809814452,156.96993662109375,112.30998809814453,161.00993662109374C108.67998809814453,163.10993662109377,103.19999809814453,166.28993662109374,103.25999809814454,167.24993662109375C103.85998809814453,167.99003662109374,110.35998809814453,166.27993662109375,114.23998809814454,165.27003662109377C121.91998809814453,163.24993662109375,125.37998809814454,162.49993662109375,126.18998809814454,163.71993662109375C127.01998809814452,164.96003662109376,124.96998809814453,167.86993662109376,120.11998809814453,174.21993662109375C117.69998809814453,177.38003662109375,113.65998809814454,182.66003662109375,114.09998809814454,183.52003662109377C114.93998809814454,183.96003662109376,120.24998809814453,179.93003662109373,123.42998809814453,177.52993662109375C129.79998809814452,172.70993662109373,132.71998809814454,170.67993662109376,133.94998809814453,171.50993662109374C135.16998809814453,172.32993662109374,134.39998809814455,175.77993662109375,132.34998809814454,183.45993662109373C131.30998809814452,187.32993662109374,129.57998809814453,193.80993662109375,130.33998809814454,194.42993662109376Q130.33998809814454,194.42993662109376,130.34998809814454,194.42993662109376C131.30998809814452,194.42993662109376,134.47998809814453,188.98993662109376,136.58998809814454,185.38993662109374C140.46998809814454,178.74993662109375,142.39998809814455,175.69993662109374,143.84998809814454,175.69993662109374L143.84998809814454,175.67003662109374Z" fill="#000000" fill-opacity="1"/></g></g><g><path d="" fill-rule="evenodd" fill="#000000" fill-opacity="1"/></g></g><g><g><path d="M183.06000335693358,148.0200036621094C183.06000335693358,149.93000366210939,172.9700033569336,150.8300036621094,172.6100033569336,152.63000366210937C172.24000335693358,154.49000366210936,181.2300033569336,159.15000366210938,180.52000335693361,160.87000366210938C179.8000033569336,162.61000366210936,170.1300033569336,159.59000366210938,169.1000033569336,161.14000366210936C168.06000335693358,162.70000366210937,174.5800033569336,170.45000366210937,173.2600033569336,171.7700036621094C171.9400033569336,173.09000366210938,164.1600033569336,166.62000366210938,162.6000033569336,167.66000366210938C161.06000335693358,168.70000366210937,164.12000335693358,178.35000366210937,162.3800033569336,179.0800036621094C160.6700033569336,179.79000366210937,155.9800033569336,170.82000366210937,154.12000335693358,171.19000366210938C152.3200033569336,171.55000366210936,151.43000335693358,181.6400036621094,149.5200033569336,181.6400036621094C147.6100033569336,181.6400036621094,146.7200033569336,171.55000366210936,144.9200033569336,171.19000366210938C143.06000335693358,170.82000366210937,138.37000335693358,179.79000366210937,136.6600033569336,179.0800036621094C134.9200033569336,178.36000366210936,137.99000335693358,168.70000366210937,136.4400033569336,167.66000366210938C134.8900033569336,166.61000366210936,127.1000033569336,173.09000366210938,125.77999335693359,171.7700036621094C124.4599933569336,170.45000366210937,130.9800033569336,162.70000366210937,129.9400033569336,161.14000366210936C128.9100033569336,159.59000366210938,119.2399933569336,162.62000366210938,118.5199933569336,160.87000366210938C117.80999335693359,159.16000366210938,126.80000335693359,154.49000366210936,126.4300033569336,152.64000366210936C126.08000335693359,150.84000366210938,115.9800033569336,149.94000366210938,115.9800033569336,148.03000366210938C115.9800033569336,146.12000366210938,126.0700033569336,145.22000366210938,126.4300033569336,143.42000366210937C126.80000335693359,141.56000366210938,117.80999335693359,136.90000366210938,118.5199933569336,135.18000366210939C119.2399933569336,133.44000366210938,128.9100033569336,136.4600036621094,129.9400033569336,134.91000366210938C130.9800033569336,133.35000366210937,124.4599933569336,125.60000366210937,125.77999335693359,124.28000366210938C127.1000033569336,122.96000366210937,134.8800033569336,129.43000366210939,136.4400033569336,128.39000366210936C137.9800033569336,127.35000366210937,134.9200033569336,117.69999366210938,136.6600033569336,116.97000366210938C138.37000335693358,116.26000366210937,143.06000335693358,125.23000366210937,144.9200033569336,124.86000366210938C146.7200033569336,124.50000366210938,147.6100033569336,114.41000366210938,149.5200033569336,114.41000366210938C151.43000335693358,114.41000366210938,152.3200033569336,124.50000366210938,154.12000335693358,124.86000366210938C155.9800033569336,125.23000366210937,160.6700033569336,116.26000366210937,162.3800033569336,116.97000366210938C164.12000335693358,117.69000366210938,161.0500033569336,127.35000366210937,162.6000033569336,128.39000366210936C164.1500033569336,129.44000366210938,171.9400033569336,122.96000366210937,173.2600033569336,124.28000366210938C174.5800033569336,125.60000366210937,168.06000335693358,133.35000366210937,169.1000033569336,134.91000366210938C170.1300033569336,136.4600036621094,179.8000033569336,133.43000366210939,180.52000335693361,135.18000366210939C181.2300033569336,136.89000366210936,172.24000335693358,141.56000366210938,172.6100033569336,143.41000366210938C172.96000335693358,145.2100036621094,183.06000335693358,146.11000366210936,183.06000335693358,148.0200036621094Z" fill="#FFD700" fill-opacity="1"/></g><g><path d="M149.53996826171874,182.14001892089846C148.23996826171876,182.14001892089846,147.59996826171874,179.98001892089843,146.65996826171875,176.46001892089845C146.21996826171875,174.83001892089845,145.40996826171875,171.79001892089843,144.83996826171875,171.68001892089845C144.23996826171876,171.57001892089843,142.33996826171875,174.02001892089845,141.20996826171876,175.48001892089843C139.03996826171874,178.31001892089844,137.63996826171876,180.02001892089845,136.47996826171874,179.53001892089844C135.29996826171876,179.04001892089843,135.53996826171874,176.82001892089843,136.01996826171876,173.24001892089842C136.26996826171876,171.43001892089845,136.67996826171876,168.40001892089845,136.17996826171876,168.06001892089844C135.67996826171876,167.72001892089844,133.00996826171874,169.25001892089844,131.40996826171875,170.17001892089843C128.29996826171876,171.96001892089845,126.33996826171875,173.01001892089843,125.44996826171875,172.11001892089843C124.54996826171875,171.21001892089845,125.60996826171875,169.26001892089843,127.41996826171875,166.16001892089844C128.33996826171875,164.57001892089843,129.88996826171876,161.91001892089844,129.54996826171876,161.40001892089845C129.21996826171875,160.90001892089845,126.18996826171875,161.30001892089842,124.37996826171874,161.54001892089843C120.79996826171875,162.01001892089843,118.57996826171875,162.24001892089842,118.08996826171875,161.05001892089842C117.60995826171875,159.89001892089843,119.31996826171876,158.50001892089844,122.15996826171875,156.34001892089844C123.62996826171874,155.22001892089844,126.09996826171874,153.33001892089845,125.97996826171875,152.72001892089844C125.86996826171875,152.15001892089845,122.82996826171875,151.33001892089845,121.19996826171875,150.90001892089845C117.67996826171876,149.96001892089845,115.52996826171875,149.31001892089844,115.52996826171875,148.02001892089845C115.52996826171875,146.73001892089843,117.68996826171875,146.08001892089845,121.19996826171875,145.14001892089843C122.82996826171875,144.70001892089843,125.86996826171875,143.89001892089843,125.97996826171875,143.32001892089843C126.09996826171874,142.71001892089845,123.63996826171875,140.83001892089845,122.15996826171875,139.70001892089843C119.32996826171875,137.54001892089843,117.60995826171875,136.15001892089845,118.08996826171875,134.99001892089842C118.57996826171875,133.80001892089842,120.79996826171875,134.03001892089844,124.37996826171874,134.50001892089844C126.18996826171875,134.74001892089842,129.21996826171875,135.13001892089844,129.54996826171876,134.64001892089843C129.88996826171876,134.13001892089844,128.33996826171875,131.47001892089844,127.41996826171875,129.88001892089844C125.61996826171875,126.78001892089844,124.55996826171875,124.83001892089844,125.44996826171875,123.93001892089843C126.34996826171874,123.03000892089844,128.29996826171876,124.08001892089844,131.40996826171875,125.87001892089845C132.99996826171875,126.78001892089844,135.67996826171876,128.32001892089843,136.17996826171876,127.98001892089843C136.67996826171876,127.65001892089843,136.26996826171876,124.62001892089845,136.01996826171876,122.81000892089844C135.53996826171874,119.23000892089844,135.29996826171876,117.01000892089844,136.47996826171874,116.52000892089843C137.63996826171876,116.03001892089844,139.02996826171875,117.75001892089844,141.20996826171876,120.57001892089843C142.33996826171875,122.04001892089843,144.21996826171875,124.49001892089844,144.83996826171875,124.37001892089845C145.40996826171875,124.26001892089843,146.21996826171875,121.22001892089844,146.65996826171875,119.59001892089844C147.59996826171874,116.07001892089843,148.23996826171876,113.91001892089844,149.53996826171874,113.91001892089844C150.83996826171875,113.91001892089844,151.47996826171874,116.07001892089843,152.41996826171874,119.59001892089844C152.85996826171873,121.22001892089844,153.66996826171874,124.26001892089843,154.23996826171876,124.37001892089845C154.87996826171874,124.51001892089843,156.73996826171876,122.03001892089844,157.86996826171875,120.57001892089843C160.03996826171874,117.74000892089843,161.42996826171876,116.03001892089844,162.59996826171874,116.52000892089843C163.77996826171875,117.01000892089844,163.53996826171874,119.23000892089844,163.05996826171875,122.81000892089844C162.80996826171875,124.62001892089845,162.39996826171875,127.65001892089843,162.89996826171875,127.99001892089844C163.39996826171875,128.33001892089842,166.06996826171874,126.80001892089844,167.66996826171874,125.88001892089844C170.77996826171875,124.09001892089844,172.73996826171876,123.04001892089843,173.62996826171874,123.94001892089844C174.51996826171876,124.84001892089844,173.46996826171875,126.79001892089843,171.65996826171875,129.89001892089843C170.73996826171876,131.48001892089843,169.18996826171875,134.14001892089843,169.52996826171875,134.65001892089845C169.85996826171873,135.15001892089845,172.88996826171876,134.75001892089844,174.69996826171877,134.51001892089843C178.27996826171875,134.04001892089843,180.49996826171875,133.81001892089844,180.98996826171873,135.00001892089844C181.46996826171875,136.16001892089844,179.75996826171877,137.55001892089842,176.91996826171874,139.71001892089845C175.44996826171877,140.83001892089845,172.97996826171874,142.72001892089844,173.09996826171874,143.33001892089845C173.20996826171876,143.90001892089845,176.24996826171875,144.72001892089844,177.87996826171874,145.15001892089845C181.39996826171875,146.09001892089844,183.54996826171873,146.74001892089842,183.54996826171873,148.03001892089844C183.54996826171873,149.32001892089843,181.38996826171876,149.97001892089844,177.87996826171874,150.91001892089844C176.24996826171875,151.35001892089844,173.20996826171876,152.16001892089844,173.09996826171874,152.73001892089843C172.97996826171874,153.34001892089844,175.43996826171875,155.22001892089844,176.91996826171874,156.35001892089844C179.74996826171875,158.51001892089843,181.46996826171875,159.90001892089845,180.98996826171873,161.06001892089844C180.49996826171875,162.24001892089842,178.27996826171875,162.02001892089845,174.69996826171877,161.55001892089842C172.88996826171876,161.31001892089844,169.85996826171873,160.92001892089843,169.52996826171875,161.41001892089844C169.18996826171875,161.92001892089843,170.73996826171876,164.58001892089845,171.65996826171875,166.17001892089843C173.45996826171876,169.27001892089845,174.51996826171876,171.22001892089844,173.62996826171874,172.12001892089845C172.73006826171874,173.02001892089845,170.77996826171875,171.97001892089844,167.66996826171874,170.18001892089845C166.07996826171876,169.26001892089843,163.40996826171875,167.73001892089843,162.89996826171875,168.07001892089843C162.39996826171875,168.40001892089845,162.80996826171875,171.43001892089845,163.05996826171875,173.25001892089844C163.53996826171874,176.83001892089845,163.77996826171875,179.05001892089842,162.59996826171874,179.54001892089843C161.43996826171875,180.03001892089844,160.04996826171876,178.31001892089844,157.87996826171874,175.49001892089842C156.74996826171875,174.02001892089845,154.84996826171874,171.56001892089844,154.24996826171875,171.69001892089844C153.67996826171876,171.80001892089842,152.86996826171875,174.84001892089844,152.42996826171876,176.47001892089844C151.48996826171876,179.99001892089842,150.84996826171874,182.15001892089845,149.54996826171876,182.15001892089845L149.53996826171874,182.14001892089846ZM144.81996826171874,170.68001892089845C144.88996826171876,170.68001892089845,144.96996826171875,170.68001892089845,145.03996826171874,170.70001892089843C146.15996826171875,170.92001892089843,146.75996826171874,172.94001892089844,147.62996826171874,176.21001892089845C148.05996826171875,177.81001892089844,148.94996826171877,181.14001892089846,149.53996826171874,181.14001892089846C150.12996826171874,181.14001892089846,151.02996826171875,177.81001892089844,151.44996826171877,176.21001892089845C152.31996826171874,172.94001892089844,152.90996826171875,170.93001892089845,154.03996826171874,170.70001892089843C155.19996826171877,170.46001892089845,156.54996826171876,172.14001892089843,158.65996826171875,174.88001892089844C159.63996826171876,176.16001892089844,161.68996826171875,178.82001892089843,162.20996826171876,178.62001892089842C162.73996826171876,178.40001892089845,162.27996826171875,175.01001892089843,162.05996826171875,173.39001892089843C161.59996826171874,170.01001892089843,161.36996826171875,167.90001892089845,162.32996826171876,167.25001892089844C163.29996826171876,166.60001892089844,165.17996826171876,167.61001892089843,168.14996826171875,169.32001892089843C169.56006826171875,170.13001892089844,172.50996826171874,171.82001892089843,172.90996826171875,171.42001892089843C173.30996826171875,171.02001892089845,171.59996826171874,168.09001892089844,170.78996826171874,166.68001892089845C169.06006826171875,163.71001892089845,168.03996826171874,161.84001892089844,168.68996826171875,160.86001892089843C169.32996826171876,159.89001892089843,171.43996826171875,160.12001892089845,174.82996826171876,160.56001892089844C176.45996826171876,160.77001892089845,179.84996826171874,161.22001892089844,180.06996826171877,160.68001892089845C180.28006826171875,160.17001892089843,177.60996826171873,158.13001892089844,176.31996826171874,157.14001892089843C173.56996826171874,155.04001892089843,171.89996826171875,153.70001892089843,172.12996826171874,152.53001892089844C172.34996826171874,151.40001892089845,174.36996826171875,150.81001892089844,177.63996826171876,149.93001892089845C179.23996826171876,149.50001892089844,182.56996826171877,148.61001892089843,182.56996826171877,148.01001892089843C182.56996826171877,147.41001892089844,179.23996826171876,146.52001892089845,177.63996826171876,146.09001892089844C174.36996826171875,145.21001892089845,172.35996826171873,144.62001892089845,172.13996826171876,143.49001892089842C171.90996826171875,142.33001892089845,173.57996826171876,140.98001892089843,176.32996826171876,138.88001892089844C177.61996826171875,137.90001892089845,180.28996826171874,135.86001892089843,180.07996826171876,135.34001892089844C179.85996826171873,134.81001892089844,176.46996826171875,135.25001892089844,174.84996826171874,135.46001892089845C171.46996826171875,135.90001892089845,169.35996826171873,136.13001892089844,168.70996826171876,135.16001892089844C168.06006826171875,134.18001892089845,169.07996826171876,132.31001892089844,170.81006826171875,129.34001892089844C171.63006826171875,127.93001892089843,173.33006826171874,125.00001892089844,172.92996826171876,124.60001892089844C172.53006826171875,124.20001892089843,169.59006826171876,125.89001892089844,168.17006826171874,126.70001892089843C165.19006826171875,128.41001892089844,163.31996826171874,129.42001892089843,162.34996826171874,128.77001892089845C161.38996826171876,128.12001892089845,161.61996826171875,126.01001892089843,162.07996826171876,122.62998892089844C162.29996826171876,120.99998892089843,162.75996826171874,117.61998892089844,162.22996826171874,117.39998892089844C161.72996826171874,117.19998892089843,159.66996826171874,119.85998892089845,158.67996826171876,121.13998892089843C156.57996826171876,123.87997892089844,155.22996826171874,125.55001892089844,154.05996826171875,125.32001892089843C152.93996826171875,125.10001892089844,152.33996826171875,123.07998892089844,151.46996826171875,119.80997892089843C151.03996826171874,118.20997892089844,150.14996826171875,114.87998192089844,149.55996826171875,114.87998192089844C148.96996826171875,114.87998192089844,148.06996826171874,118.20997892089844,147.64996826171875,119.80997892089843C146.77996826171875,123.07997892089844,146.18996826171875,125.09001892089844,145.05996826171875,125.32001892089843C143.89996826171875,125.55001892089844,142.54996826171876,123.87997892089844,140.43996826171875,121.13998892089843C139.45996826171876,119.85998892089845,137.41996826171874,117.18998892089844,136.88996826171876,117.39998892089844C136.35996826171873,117.61998892089844,136.81996826171874,121.00998892089844,137.03996826171874,122.62998892089844C137.49996826171875,126.01001892089843,137.72996826171874,128.12001892089845,136.76996826171876,128.77001892089845C135.79996826171876,129.42001892089843,133.91996826171874,128.41001892089844,130.94996826171874,126.70001892089843C129.52996826171875,125.89001892089844,126.58996826171875,124.20001892089843,126.18996826171875,124.60001892089844C125.78996826171876,125.00001892089844,127.49996826171875,127.93001892089843,128.30996826171875,129.34001892089844C130.03996826171874,132.31001892089844,131.05996826171875,134.18001892089845,130.40996826171875,135.16001892089844C129.76996826171876,136.13001892089844,127.65996826171875,135.90001892089845,124.26999826171875,135.46001892089845C122.63999826171874,135.25001892089844,119.25999826171875,134.80001892089842,119.02999826171875,135.34001892089844C118.81999826171875,135.85001892089844,121.48999826171875,137.89001892089843,122.77999826171875,138.88001892089844C125.52996826171875,140.98001892089843,127.19996826171875,142.32001892089843,126.96996826171875,143.49001892089842C126.74996826171875,144.61001892089843,124.73000826171875,145.21001892089845,121.46999826171876,146.09001892089844C119.86999826171875,146.52001892089845,116.53999826171875,147.41001892089844,116.53999826171875,148.01001892089843C116.53999826171875,148.61001892089843,119.86999826171875,149.50001892089844,121.46999826171876,149.93001892089845C124.73999826171875,150.81001892089844,126.74996826171875,151.40001892089845,126.96996826171875,152.53001892089844C127.19996826171875,153.69001892089844,125.52996826171875,155.04001892089843,122.77999826171875,157.14001892089843C121.48999826171875,158.12001892089845,118.81999826171875,160.16001892089844,119.02999826171875,160.67001892089843C119.24999826171874,161.20001892089843,122.63999826171874,160.76001892089843,124.26999826171875,160.55001892089842C127.64996826171875,160.11001892089843,129.75996826171874,159.88001892089844,130.40996826171875,160.85001892089844C131.05996826171875,161.83001892089845,130.03996826171874,163.70001892089843,128.30996826171875,166.66001892089844C127.48996826171876,168.07001892089843,125.78996826171876,171.00001892089844,126.18996826171875,171.40001892089845C126.58996826171875,171.80001892089842,129.52996826171875,170.11001892089843,130.94996826171874,169.30001892089842C133.92996826171876,167.59001892089844,135.79996826171876,166.58001892089845,136.76996826171876,167.23001892089843C137.72996826171874,167.88001892089844,137.49996826171875,169.99001892089842,137.03996826171874,173.37001892089845C136.81996826171874,175.00001892089844,136.35996826171873,178.38001892089844,136.88996826171876,178.60001892089844C137.40996826171875,178.81001892089844,139.44996826171877,176.14001892089843,140.43996826171875,174.86001892089843C142.40996826171875,172.29001892089843,143.71996826171875,170.66001892089844,144.83996826171875,170.66001892089844L144.81996826171874,170.68001892089845Z" fill="#000000" fill-opacity="1"/></g></g><g><g><path d="M161.95004638671875,154.63000014648438C161.80004638671875,153.78000014648438,161.31994638671875,153.03000014648438,160.61004638671875,152.54000814648438C159.08004638671875,151.47000114648438,157.78994638671875,152.01000974648437,156.20004638671875,153.23001014648437C154.92994638671874,154.20001014648437,153.19004638671876,155.5300101464844,149.80004638671875,155.5300101464844C146.41000638671875,155.5300101464844,144.66999638671874,154.20001014648437,143.40000638671876,153.23001014648437C141.81001638671876,152.01000974648437,140.51000638671874,151.47001614648437,138.99000638671876,152.54000814648438C138.27999838671874,153.04001014648438,137.81001238671874,153.7800101464844,137.66000368671874,154.63000014648438C137.51000938671876,155.48001014648437,137.69999698671876,156.3400101464844,138.19999738671876,157.05000014648436C140.33999638671875,160.11000014648437,144.78999638671874,162.01000014648437,149.81004638671874,162.01000014648437C154.83994638671874,162.01000014648437,159.28994638671875,160.11002014648437,161.42004638671875,157.05000014648436C161.92004638671875,156.34000014648439,162.11004638671875,155.48000014648437,161.95994638671874,154.63000014648438L161.95004638671875,154.63000014648438Z" fill="#000000" fill-opacity="1"/></g><g><g><path d="M137.8300067138672,150.00999779296876C137.8300067138672,151.36999779296875,136.35000671386717,152.46999779296874,134.5200067138672,152.46999779296874C132.69000671386718,152.46999779296874,131.2100067138672,151.36999779296875,131.2100067138672,150.00999779296876C131.2100067138672,148.64999779296875,132.69000671386718,147.54998779296875,134.5200067138672,147.54998779296875C136.35000671386717,147.54998779296875,137.8300067138672,148.64999779296875,137.8300067138672,150.00999779296876Z" fill="#FF7FCB" fill-opacity="1"/></g><g><path d="M134.5200067138672,152.96999779296874C132.4199967138672,152.96999779296874,130.7100067138672,151.63999779296876,130.7100067138672,150.00999779296876C130.7100067138672,148.37998779296876,132.4200167138672,147.04998779296875,134.5200067138672,147.04998779296875C136.61999671386718,147.04998779296875,138.3300067138672,148.37998779296876,138.3300067138672,150.00999779296876C138.3300067138672,151.63999779296876,136.61999671386718,152.96999779296874,134.5200067138672,152.96999779296874ZM134.5200067138672,148.05000779296876C132.96999671386718,148.05000779296876,131.7100067138672,148.93000779296875,131.7100067138672,150.01000779296874C131.7100067138672,151.09000779296875,132.96999671386718,151.97001779296875,134.5200067138672,151.97001779296875C136.0700067138672,151.97001779296875,137.3300067138672,151.09000779296875,137.3300067138672,150.01000779296874C137.3300067138672,148.93000779296875,136.0700067138672,148.05000779296876,134.5200067138672,148.05000779296876Z" fill="#000000" fill-opacity="1"/></g></g><g><g><path d="M168.39000427246094,150.00999779296876C168.39000427246094,151.36999779296875,166.91000427246092,152.46999779296874,165.08000427246094,152.46999779296874C163.25000427246093,152.46999779296874,161.77000427246094,151.36999779296875,161.77000427246094,150.00999779296876C161.77000427246094,148.64999779296875,163.25000427246093,147.54998779296875,165.08000427246094,147.54998779296875C166.91000427246092,147.54998779296875,168.39000427246094,148.64999779296875,168.39000427246094,150.00999779296876Z" fill="#FF7FCB" fill-opacity="1"/></g><g><path d="M165.08000427246094,152.96999779296874C162.97999427246094,152.96999779296874,161.27000427246094,151.63999779296876,161.27000427246094,150.00999779296876C161.27000427246094,148.37998779296876,162.98001427246095,147.04998779296875,165.08000427246094,147.04998779296875C167.17999427246093,147.04998779296875,168.89000427246094,148.37998779296876,168.89000427246094,150.00999779296876C168.89000427246094,151.63999779296876,167.17999427246093,152.96999779296874,165.08000427246094,152.96999779296874ZM165.08000427246094,148.05000779296876C163.52999427246093,148.05000779296876,162.27000427246094,148.93000779296875,162.27000427246094,150.01000779296874C162.27000427246094,151.09000779296875,163.52999427246093,151.97001779296875,165.08000427246094,151.97001779296875C166.63000427246095,151.97001779296875,167.89000427246094,151.09000779296875,167.89000427246094,150.01000779296874C167.89000427246094,148.93000779296875,166.63000427246095,148.05000779296876,165.08000427246094,148.05000779296876Z" fill="#000000" fill-opacity="1"/></g></g><g><g><g><path d="M149.79999915527344,156.67999288867188Q156.70000915527345,153.93998588867188,156.70000915527345,160.73998588867187C156.70000915527345,164.54998588867187,153.61000915527345,167.63993588867189,149.79999915527344,167.63993588867189C145.99000915527344,167.63993588867189,142.90000915527344,164.54998588867187,142.90000915527344,160.73998588867187Q142.90000915527344,153.93998588867188,149.79999915527344,156.67999288867188Z" fill="#FF5B22" fill-opacity="1"/></g><g><path d="M155.36000366210936,156.3600004873047C153.40000366210938,155.02999848730468,150.55000366210936,155.8800044873047,149.80000366210936,156.1499934873047C149.05000366210936,155.8899994873047,146.19999366210936,155.02999848730468,144.2400036621094,156.3600004873047C143.0200046621094,157.1900044873047,142.41000366210938,158.6600044873047,142.41000366210938,160.74000448730467C142.41000366210938,164.8200044873047,145.73001366210937,168.1400244873047,149.80999366210938,168.1400244873047C153.89000366210936,168.1400244873047,157.2100036621094,164.81999448730468,157.2100036621094,160.74000448730467C157.2100036621094,158.6600044873047,156.59000366210938,157.1800044873047,155.38000366210937,156.3600004873047L155.36000366210936,156.3600004873047ZM149.80000366210936,167.1400244873047C146.2700036621094,167.1400244873047,143.40000866210937,164.27000448730467,143.40000866210937,160.74000448730467C143.40000866210937,159.0100144873047,143.8700136621094,157.8200044873047,144.79000366210937,157.1900044873047C145.4000136621094,156.77000448730467,146.16000366210938,156.6300044873047,146.89001366210937,156.6300044873047C148.29000366210937,156.6300044873047,149.59001366210938,157.1300044873047,149.61001366210937,157.13999448730468L149.79000366210937,157.2100044873047L149.97000366210938,157.13999448730468Q152.9900036621094,155.9600064873047,154.79000366210937,157.1799944873047C155.72000366210938,157.8099944873047,156.19000366210938,159.0000044873047,156.19000366210938,160.72999448730468C156.19000366210938,164.25999448730468,153.32000366210937,167.1300244873047,149.79000366210937,167.1300244873047L149.80000366210936,167.1400244873047Z" fill="#000000" fill-opacity="1"/></g></g><g><path d="M149.8000030517578,163.60999793457032C149.5200040517578,163.60999793457032,149.3000030517578,163.38999793457032,149.3000030517578,163.10999793457032L149.3000030517578,156.6800079345703C149.3000030517578,156.4000089345703,149.5200040517578,156.1800079345703,149.8000030517578,156.1800079345703C150.08000205175782,156.1800079345703,150.3000030517578,156.4000089345703,150.3000030517578,156.6800079345703L150.3000030517578,163.10999793457032C150.3000030517578,163.38999793457032,150.08000205175782,163.60999793457032,149.8000030517578,163.60999793457032Z" fill="#000000" fill-opacity="1"/></g></g><g><g><g><g><path d="M139.69000244140625,137.14999328613283C139.69000244140625,135.2899932861328,141.19999244140624,133.7899932861328,143.05000244140626,133.7899932861328C144.90001244140626,133.7899932861328,146.41000244140625,135.2999832861328,146.41000244140625,137.14999328613283L146.41000244140625,143.87999328613282C146.41000244140625,145.7399932861328,144.90001244140626,147.2399932861328,143.05000244140626,147.2399932861328C141.19999244140624,147.2399932861328,139.69000244140625,145.7299932861328,139.69000244140625,143.87999328613282L139.69000244140625,137.14999328613283Z" fill="#FFFFFF" fill-opacity="1"/></g><g><path d="M143.0599969482422,133.2899932861328C140.92999694824218,133.2899932861328,139.1999969482422,135.0199932861328,139.1999969482422,137.14999328613283L139.1999969482422,143.87999328613282C139.1999969482422,146.0099932861328,140.92999694824218,147.7399932861328,143.0599969482422,147.7399932861328C145.1900069482422,147.7399932861328,146.9199969482422,146.0099932861328,146.9199969482422,143.87999328613282L146.9199969482422,137.14999328613283C146.9199969482422,135.0199932861328,145.1900069482422,133.2899932861328,143.0599969482422,133.2899932861328ZM145.9199969482422,143.87999328613282C145.9199969482422,145.4599932861328,144.63999694824219,146.7399932861328,143.0599969482422,146.7399932861328C142.5999869482422,146.7399932861328,142.1699969482422,146.61999328613283,141.7899969482422,146.4299932861328C141.9399869482422,146.4599932861328,142.08999694824217,146.4799932861328,142.23998694824218,146.4799932861328C143.7499869482422,146.4799932861328,144.9799969482422,145.24999328613282,144.9799969482422,143.7399932861328L144.9799969482422,142.63000328613282C144.9799969482422,142.44000328613282,144.86999694824217,142.2700032861328,144.6999969482422,142.1800032861328L143.32999694824218,141.4900032861328L144.71000694824218,140.7700032861328C144.87000694824218,140.6800032861328,144.9800069482422,140.51001328613282,144.9800069482422,140.3300032861328L144.9800069482422,139.2700032861328C144.9800069482422,137.76001328613282,143.75001694824218,136.53000328613282,142.24000694824218,136.53000328613282C141.4199969482422,136.53000328613282,140.7000169482422,136.89999328613283,140.2000169482422,137.47000328613282L140.2000169482422,137.1699932861328C140.2000169482422,135.58999328613282,141.4800069482422,134.30999328613282,143.06001694824218,134.30999328613282C144.6400169482422,134.30999328613282,145.9200169482422,135.58999328613282,145.9200169482422,137.1699932861328L145.9200169482422,143.89999328613283L145.9199969482422,143.87999328613282Z" fill="#000000" fill-opacity="1"/></g></g><g><path d="M146.57001149414063,132.91999732421874C146.3700114941406,132.91999732421874,146.19000149414063,132.80000732421874,146.11000149414062,132.60999732421874C145.58999149414063,131.36999732421876,144.38000149414063,130.55999732421876,143.03000149414063,130.55999732421876C141.67999149414064,130.55999732421876,140.47000149414063,131.35999732421874,139.94999649414063,132.60999732421874C139.83999649414062,132.85999732421874,139.5500034941406,132.97999732421874,139.3000034941406,132.88000732421875C139.05000309414064,132.77000732421874,138.93000789414063,132.48000732421875,139.02999879414062,132.23000732421875C139.70999149414064,130.61001732421875,141.28000149414063,129.57000732421875,143.03000149414063,129.57000732421875C144.78000149414063,129.57000732421875,146.35000149414063,130.60999732421874,147.03000149414063,132.23000732421875C147.14000149414062,132.48000732421875,147.02000149414062,132.78001732421876,146.75999149414062,132.88000732421875C146.70000149414062,132.91000732421875,146.62999149414063,132.91999732421874,146.57001149414063,132.91999732421874Z" fill="#000000" fill-opacity="1"/></g></g><g><g><g><path d="M152.6699981689453,137.44999633789064C152.6699981689453,135.58999633789062,154.1799881689453,134.08999633789062,156.02999816894533,134.08999633789062C157.88000816894532,134.08999633789062,159.3899981689453,135.5999863378906,159.3899981689453,137.44999633789064L159.3899981689453,144.17999633789063C159.3899981689453,146.0399963378906,157.88000816894532,147.5399963378906,156.02999816894533,147.5399963378906C154.1799881689453,147.5399963378906,152.6699981689453,146.02999633789062,152.6699981689453,144.17999633789063L152.6699981689453,137.44999633789064Z" fill="#FFFFFF" fill-opacity="1"/></g><g><path d="M156.02999816894533,133.5800018310547C153.8999981689453,133.5800018310547,152.1699981689453,135.31000183105468,152.1699981689453,137.4400018310547L152.1699981689453,144.1700018310547C152.1699981689453,146.3000018310547,153.8999981689453,148.03000183105468,156.02999816894533,148.03000183105468C158.16000816894532,148.03000183105468,159.8899981689453,146.3000018310547,159.8899981689453,144.1700018310547L159.8899981689453,137.4400018310547C159.8899981689453,135.31000183105468,158.16000816894532,133.5800018310547,156.02999816894533,133.5800018310547ZM156.02999816894533,147.0400018310547C154.4499981689453,147.0400018310547,153.1699981689453,145.7600018310547,153.1699981689453,144.18000183105468L153.1699981689453,137.4500018310547C153.1699981689453,135.86999183105468,154.4499981689453,134.58999183105468,156.02999816894533,134.58999183105468C156.1699981689453,134.58999183105468,156.2999981689453,134.6100018310547,156.4299881689453,134.6299918310547C155.1199981689453,134.82998183105468,154.1099881689453,135.95999183105468,154.1099881689453,137.32998183105468L154.1099881689453,138.38998183105468C154.1099881689453,138.57998183105468,154.2099881689453,138.7499818310547,154.37998816894532,138.82998183105468L155.75999816894532,139.54999183105468L154.3899981689453,140.23999183105468C154.21999816894532,140.32998183105468,154.1099981689453,140.4999818310547,154.1099981689453,140.6899918310547L154.1099981689453,141.79999183105468C154.1099981689453,143.3099818310547,155.3399981689453,144.5400018310547,156.85000816894532,144.5400018310547C157.67001816894532,144.5400018310547,158.3899981689453,144.1700018310547,158.8899981689453,143.6100018310547L158.8899981689453,144.18000183105468C158.8899981689453,145.7600018310547,157.6099981689453,147.0400018310547,156.02999816894533,147.0400018310547Z" fill="#000000" fill-opacity="1"/></g></g><g><path d="M159.6000102734375,133.21000586914062C159.4000102734375,133.21000586914062,159.2200002734375,133.09001586914061,159.1400002734375,132.9000058691406C158.6199902734375,131.66000586914063,157.4100002734375,130.85000586914063,156.0600002734375,130.85000586914063C154.7099902734375,130.85000586914063,153.5000002734375,131.6500058691406,152.9799952734375,132.9000058691406C152.8699952734375,133.1500058691406,152.5800022734375,133.27000586914062,152.3300022734375,133.17001586914063C152.0800018734375,133.0600158691406,151.9600066734375,132.77001586914062,152.0599975734375,132.52001586914062C152.7399902734375,130.90002586914062,154.3100002734375,129.86001586914062,156.0600002734375,129.86001586914062C157.8100002734375,129.86001586914062,159.3800002734375,130.9000058691406,160.0600002734375,132.52001586914062C160.1700002734375,132.77001586914062,160.0500002734375,133.07002586914064,159.7899902734375,133.17001586914063C159.7300002734375,133.20001586914063,159.6599902734375,133.21000586914062,159.6000102734375,133.21000586914062Z" fill="#000000" fill-opacity="1"/></g></g></g></g></g></svg>